<?xml version="1.0" encoding="utf-8"?>
<!-- Generator: Adobe Illustrator 24.3.0, SVG Export Plug-In . SVG Version: 6.00 Build 0)  -->
<svg version="1.1" xmlns="http://www.w3.org/2000/svg" xmlns:xlink="http://www.w3.org/1999/xlink" x="0px" y="0px"
	 viewBox="0 0 324 108" style="enable-background:new 0 0 324 108;" xml:space="preserve">
<style type="text/css">
	.st0{fill-rule:evenodd;clip-rule:evenodd;fill:#500000;}
	.st1{fill-rule:evenodd;clip-rule:evenodd;fill:#67823A;}
	.st2{fill:#500000;}
	.st3{fill:#898D8D;}
</style>
<g id="Layer_1">
	<g>
		<g>
			<g>
				<polygon class="st0" points="91.8,46.6 66.6,46.6 58.9,22.7 51.1,46.6 26,46.6 46.3,61.4 38.6,85.3 55,73.3 49,69 58.9,38.4 
					68.8,69 62.8,73.3 79.2,85.3 71.4,61.4 				"/>
			</g>
			<g>
				<polygon class="st1" points="58.9,44.1 51,68.3 57.1,72.7 57.1,79.5 58.9,79.5 58.9,79.5 				"/>
			</g>
		</g>
		<g>
			<g>
				<path class="st2" d="M111.6,30.6l-5.1,0.1c-2,0.1-2.8,0.2-3.3,1c-0.3,0.5-0.5,0.9-0.6,1.2c-0.1,0.3-0.2,0.4-0.4,0.4
					c-0.2,0-0.3-0.2-0.3-0.5c0-0.5,0.7-3.7,0.7-3.9c0.1-0.4,0.2-0.6,0.4-0.6c0.3,0,0.6,0.3,1.5,0.4c1,0.1,2.3,0.2,3.4,0.2h13.6
					c1.1,0,1.8-0.1,2.4-0.2c0.5-0.1,0.8-0.2,0.9-0.2c0.2,0,0.3,0.2,0.3,0.7c0,0.7-0.1,3.1-0.1,4c0,0.3-0.1,0.5-0.3,0.5
					c-0.3,0-0.3-0.2-0.4-0.7l0-0.4c-0.1-0.9-1-1.8-4-1.9l-4.3-0.1v14c0,3.2,0,5.9,0.2,7.3c0.1,1,0.3,1.7,1.3,1.8
					c0.5,0.1,1.2,0.1,1.7,0.1c0.4,0,0.5,0.1,0.5,0.3c0,0.2-0.3,0.3-0.7,0.3c-2.3,0-4.4-0.1-5.4-0.1c-0.8,0-2.9,0.1-4.3,0.1
					c-0.4,0-0.7-0.1-0.7-0.3c0-0.2,0.1-0.3,0.5-0.3c0.5,0,0.9-0.1,1.2-0.1c0.7-0.1,0.9-0.9,1-1.9c0.2-1.4,0.2-4.1,0.2-7.3V30.6z"/>
				<path class="st2" d="M130.4,40.9c0-4.4,0-5.2,0-6.2c-0.1-1-0.3-1.3-1.3-1.6c-0.2-0.1-0.8-0.1-1.2-0.1c-0.3,0-0.5-0.1-0.5-0.3
					c0-0.2,0.2-0.3,0.7-0.3c1.6,0,3.5,0.1,4.3,0.1c1,0,7.6,0,8.2,0c0.5,0,1-0.1,1.3-0.2c0.2,0,0.3-0.1,0.5-0.1
					c0.2,0,0.2,0.1,0.2,0.3c0,0.2-0.2,0.5-0.2,1.9c0,0.3-0.1,1.6-0.2,1.9c0,0.1-0.1,0.5-0.3,0.5c-0.2,0-0.2-0.1-0.2-0.4
					c0-0.2,0-0.7-0.2-1.1c-0.2-0.5-0.5-0.9-2-1.1c-0.5-0.1-4.1-0.1-4.7-0.1c-0.1,0-0.2,0.1-0.2,0.3v7.2c0,0.2,0,0.3,0.2,0.3
					c0.7,0,4.6,0,5.3-0.1c0.7-0.1,1.2-0.1,1.4-0.4c0.2-0.2,0.3-0.4,0.5-0.4c0.1,0,0.2,0.1,0.2,0.3c0,0.2-0.1,0.6-0.2,2.1
					c-0.1,0.6-0.1,1.7-0.1,2c0,0.2,0,0.6-0.3,0.6c-0.2,0-0.3-0.1-0.3-0.2c0-0.3,0-0.7-0.1-1.1c-0.2-0.6-0.5-1-1.7-1.1
					c-0.5-0.1-4-0.1-4.7-0.1c-0.1,0-0.2,0.1-0.2,0.3v2.3c0,1,0,3.5,0,4.3c0.1,2,1,2.4,4.1,2.4c0.8,0,2.1,0,2.8-0.4
					c0.8-0.3,1.1-1,1.3-2.2c0.1-0.3,0.1-0.4,0.3-0.4c0.2,0,0.3,0.4,0.3,0.7c0,0.7-0.2,2.6-0.4,3.2c-0.2,0.8-0.5,0.8-1.6,0.8
					c-2.3,0-4.1,0-5.5-0.1c-1.5,0-2.6-0.1-3.5-0.1c-0.3,0-1,0-1.7,0c-0.7,0-1.5,0.1-2.1,0.1c-0.4,0-0.6-0.1-0.6-0.3
					c0-0.1,0.1-0.3,0.5-0.3c0.4,0,0.8,0,1.1-0.1c0.6-0.1,0.8-0.7,0.9-1.5c0.1-1.2,0.1-3.5,0.1-6.2V40.9z"/>
				<path class="st2" d="M158.4,42.3c1,1.4,6,9.3,6.7,10.3c0.5,0.7,1,1,1.6,1.2c0.4,0.1,0.9,0.2,1.2,0.2c0.2,0,0.4,0.1,0.4,0.3
					c0,0.2-0.2,0.3-0.6,0.3h-0.9c-0.7,0-3.1,0-5.6-0.1c-0.8,0-1.1-0.1-1.1-0.3c0-0.2,0.1-0.3,0.4-0.4c0.1,0,0.3-0.2,0.1-0.6
					c-1.7-2.8-3.4-5.6-4.8-7.8l-4.4,6.9c-0.3,0.5-0.5,0.9-0.4,1.2c0,0.3,0.3,0.4,0.6,0.4c0.2,0,0.4,0,0.7,0c0.2,0,0.4,0.2,0.4,0.3
					c0,0.2-0.2,0.3-0.6,0.3h-0.5c-0.2,0-2.2-0.1-2.9-0.1c-0.6,0-2.1,0.1-2.5,0.1h-0.5c-0.3,0-0.4-0.1-0.4-0.3c0-0.2,0.2-0.3,0.4-0.3
					c0.2,0,0.7,0,1.1-0.1c0.9-0.2,1.4-0.7,2.4-2.1l5.9-7.9l-5.3-8.3c-0.8-1.2-1.4-1.8-2.4-2.1c-0.5-0.1-1-0.2-1.3-0.2
					c-0.2,0-0.3-0.1-0.3-0.3c0-0.2,0.2-0.2,0.6-0.2c0.7,0,3.2,0.1,4.6,0.1c0.4,0,2.3-0.1,3.4-0.1c0.4,0,0.6,0.1,0.6,0.3
					c0,0.2-0.2,0.3-0.5,0.3c-0.2,0-0.5,0-0.7,0.1c-0.3,0.1-0.4,0.2-0.4,0.4c0,0.2,0.1,0.5,0.3,0.9c1.3,2.3,2.6,4.3,3.8,6.3
					c0.9-1.3,3.6-5.2,4.1-6.1c0.2-0.4,0.3-0.8,0.3-1.1c0-0.2-0.2-0.4-0.5-0.5c-0.3-0.1-0.7-0.1-1-0.1c-0.2,0-0.4-0.1-0.4-0.3
					c0-0.2,0.2-0.3,0.6-0.3c1.2,0,2.6,0.1,3.2,0.1c0.6,0,1.8-0.1,2.9-0.1c0.3,0,0.5,0.1,0.5,0.3c0,0.2-0.2,0.3-0.5,0.3
					c-0.3,0-0.7,0.1-1.1,0.2c-0.7,0.2-1.2,1-2.2,2.2L158.4,42.3z"/>
				<path class="st2" d="M173,47.2c-0.2,0-0.2,0-0.3,0.2l-1.6,3.9c-0.3,0.7-0.4,1.4-0.4,1.8c0,0.5,0.3,0.8,1.2,0.8h0.4
					c0.4,0,0.4,0.1,0.4,0.3c0,0.2-0.2,0.3-0.5,0.3c-1,0-2.4-0.1-3.4-0.1c-0.3,0-1.9,0.1-3.5,0.1c-0.4,0-0.5-0.1-0.5-0.3
					c0-0.2,0.1-0.3,0.3-0.3c0.3,0,0.6,0,0.9,0c1.4-0.2,1.9-1.1,2.5-2.6l7.9-18.3c0.3-0.8,0.6-1.2,0.9-1.2c0.4,0,0.6,0.3,0.9,0.9
					c0.7,1.6,5.8,13.5,7.7,17.9c1.2,2.6,2,3,2.6,3.1c0.4,0.1,0.8,0.1,1.1,0.1c0.3,0,0.4,0.1,0.4,0.3c0,0.2-0.2,0.3-1.3,0.3
					c-1.1,0-3.3,0-5.8-0.1c-0.5,0-0.9,0-0.9-0.2c0-0.2,0.1-0.3,0.4-0.3c0.2,0,0.4-0.3,0.3-0.7l-2.3-5.9c-0.1-0.2-0.2-0.2-0.3-0.2
					H173z M179.4,45.6c0.1,0,0.2-0.1,0.1-0.2l-2.8-7.4c0-0.1-0.1-0.3-0.1-0.3c-0.1,0-0.1,0.2-0.2,0.3l-2.9,7.4
					c-0.1,0.1,0,0.2,0.1,0.2H179.4z"/>
				<path class="st2" d="M191.3,54.2c-0.5-0.2-0.6-0.3-0.6-1c0-1.6,0.1-3.4,0.2-3.9c0-0.4,0.1-0.8,0.4-0.8c0.3,0,0.3,0.3,0.3,0.5
					c0,0.4,0.1,1,0.3,1.5c0.7,2.2,2.9,2.9,4.8,2.9c2.6,0,4.2-1.6,4.2-3.7c0-1.3-0.3-2.5-3-4.1l-1.7-1c-3.6-2.1-4.7-4-4.7-6.6
					c0-3.6,3.4-5.9,7.6-5.9c2,0,3.5,0.3,4.3,0.5c0.3,0.1,0.4,0.2,0.4,0.4c0,0.4-0.1,1.2-0.1,3.5c0,0.6-0.1,0.9-0.4,0.9
					c-0.2,0-0.3-0.2-0.3-0.5c0-0.3-0.1-1.2-0.8-1.9c-0.4-0.5-1.4-1.4-3.4-1.4c-2.2,0-4.1,1.1-4.1,3.1c0,1.3,0.5,2.3,3.2,3.8l1.2,0.7
					c4,2.2,5.2,4.4,5.2,7.1c0,2.2-0.8,3.9-3,5.4c-1.4,1-3.4,1.2-5,1.2C194.5,54.9,192.6,54.7,191.3,54.2z"/>
				<path class="st2" d="M223.8,45.6c-0.2,0-0.2,0.1-0.3,0.3l-1.8,4.9c-0.3,0.9-0.5,1.7-0.5,2.1c0,0.6,0.3,1.1,1.4,1.1h0.5
					c0.4,0,0.5,0.1,0.5,0.3c0,0.3-0.2,0.3-0.6,0.3c-1.1,0-2.6-0.1-3.6-0.1c-0.4,0-2.3,0.1-4,0.1c-0.4,0-0.7-0.1-0.7-0.3
					c0-0.2,0.1-0.3,0.4-0.3c0.3,0,0.8,0,1.1-0.1c1.6-0.2,2.2-1.4,2.9-3.1l8.6-21.5c0.4-1,0.6-1.4,1-1.4c0.3,0,0.5,0.3,0.9,1.1
					c0.8,1.9,6.3,15.9,8.5,21.1c1.3,3.1,2.3,3.6,3,3.7c0.5,0.1,1,0.1,1.4,0.1c0.3,0,0.4,0,0.4,0.3c0,0.3-0.3,0.3-1.6,0.3
					c-1.2,0-3.7,0-6.5-0.1c-0.6,0-1,0-1-0.3c0-0.2,0.1-0.3,0.5-0.3c0.2-0.1,0.5-0.4,0.3-0.8l-2.7-7.3c-0.1-0.2-0.2-0.2-0.3-0.2
					H223.8z M230.8,43.9c0.2,0,0.2-0.1,0.2-0.2l-3.1-8.5c0-0.1-0.1-0.3-0.2-0.3c-0.1,0-0.2,0.2-0.2,0.3l-3.2,8.4
					c0,0.1,0,0.2,0.1,0.2H230.8z"/>
				<path class="st2" d="M248.4,39.3c-1.4-1.9-1.7-3.3-1.7-4.9c0-2.7,2.4-6.3,8.3-6.3c1.7,0,3.2,0.3,4.1,0.7
					c0.6,0.2,0.6,0.5,0.6,0.9c0,1.1-0.3,3.9-0.4,4.4c-0.1,0.5-0.2,0.6-0.4,0.6c-0.2,0-0.2-0.1-0.2-0.7c0-0.9-0.2-2-1-2.9
					c-0.7-0.8-1.9-1.5-3.8-1.5c-1.4,0-3.7,1-3.7,3.9c0,3.2,2.9,6,5.7,9c1.2,1.3,5.4,5.1,6,5.7c0.7-1,1.6-3.2,1.6-5.3
					c0-0.5-0.1-1.1-0.7-1.6c-0.4-0.4-1.2-0.5-1.7-0.5c-0.2,0-0.4-0.1-0.4-0.3c0-0.3,0.3-0.3,0.5-0.3c0.8,0,2.2,0,4.1,0.2
					c0.7,0.1,1.2,0.3,1.2,0.7c0,2.6-1.4,5.8-3.4,8.1c2.3,1.9,3.8,2.8,4.8,3.4c1.1,0.7,3,1.2,3.7,1.2c0.3,0,0.5,0,0.5,0.3
					c0,0.2-0.3,0.3-1,0.3h-2.6c-3.9,0-5.1-0.4-8.1-2.6c-1.1,1-3.4,3.1-8.1,3.1c-7.3,0-9.5-4.6-9.5-7.6
					C242.8,43.4,246.3,40.3,248.4,39.3z M259.1,50.8c-2-1.7-5.3-4.9-6.2-5.9s-3.1-3.4-3.7-4.3c-1.2,0.9-2.4,2.5-2.4,5.2
					c0,4.3,3,7,6.6,7C256.1,52.9,258.4,51.5,259.1,50.8z"/>
				<path class="st2" d="M276.1,28.8c0.1-0.6,0.3-0.9,0.6-0.9c0.3,0,0.5,0.2,0.9,1.1l9.3,19.3l9.3-19.6c0.3-0.5,0.4-0.8,0.8-0.8
					c0.3,0,0.5,0.3,0.6,1.1l3.1,21.2c0.3,2.2,0.7,3.2,1.7,3.5c1,0.3,1.7,0.3,2.1,0.3c0.3,0,0.5,0,0.5,0.2c0,0.3-0.4,0.4-0.9,0.4
					c-0.9,0-5.6-0.1-7-0.2c-0.8-0.1-1-0.2-1-0.4c0-0.2,0.1-0.3,0.4-0.4c0.2-0.1,0.3-0.5,0.2-1.5L294.8,37h-0.1l-7.5,15.5
					c-0.8,1.6-1,1.9-1.3,1.9c-0.3,0-0.7-0.7-1.2-1.7c-0.8-1.6-3.5-6.8-3.9-7.8c-0.3-0.7-2.4-5-3.6-7.6h-0.1L275.3,51
					c-0.1,0.6-0.1,1.1-0.1,1.6c0,0.6,0.4,1,1,1.1c0.6,0.1,1.1,0.2,1.4,0.2c0.3,0,0.5,0.1,0.5,0.2c0,0.3-0.3,0.4-0.8,0.4
					c-1.4,0-3-0.1-3.6-0.1c-0.7,0-2.3,0.1-3.4,0.1c-0.3,0-0.6-0.1-0.6-0.4c0-0.2,0.2-0.2,0.5-0.2c0.3,0,0.5,0,1-0.1
					c1-0.2,1.2-1.5,1.4-2.7L276.1,28.8z"/>
			</g>
			<g>
				<path class="st3" d="M111.8,76c0,2.5,0,4.4,0.1,5.5c0.1,0.7,0.2,1.3,1,1.4c0.4,0.1,0.9,0.1,1.3,0.1c0.3,0,0.4,0.1,0.4,0.2
					c0,0.2-0.2,0.3-0.6,0.3c-1.6,0-3.2-0.1-3.9-0.1c-0.7,0-2.3,0.1-3.3,0.1c-0.4,0-0.5-0.1-0.5-0.3c0-0.1,0.1-0.2,0.4-0.2
					c0.4,0,0.7-0.1,0.9-0.1c0.5-0.1,0.6-0.7,0.7-1.4c0.1-1.1,0.1-3,0.1-5.5v-4.5c0-3.9,0-4.6-0.1-5.4c-0.1-0.9-0.3-1.3-1.1-1.5
					c-0.2-0.1-0.6-0.1-1-0.1c-0.3,0-0.4-0.1-0.4-0.2c0-0.2,0.2-0.3,0.6-0.3c0.7,0,1.4,0,2.1,0c0.7,0,1.3,0.1,1.6,0.1
					c1,0,6.2,0,6.8,0c0.5,0,0.8,0,1.1-0.1c0.2-0.1,0.3-0.2,0.4-0.2c0.1,0,0.2,0.1,0.2,0.2c0,0.2-0.1,0.5-0.2,1.2
					c0,0.3-0.1,1.8-0.1,2.1c0,0.2-0.1,0.4-0.3,0.4c-0.2,0-0.2-0.1-0.3-0.4c0-0.2,0-0.6-0.2-1c-0.2-0.4-0.7-0.7-1.7-0.8l-4-0.1
					c-0.2,0-0.2,0.1-0.2,0.4v6.4c0,0.2,0,0.2,0.2,0.2l3.3,0c0.4,0,0.8,0,1.2,0c0.5,0,0.8-0.1,1.1-0.5c0.1-0.2,0.2-0.3,0.3-0.3
					c0.1,0,0.2,0.1,0.2,0.2c0,0.2-0.1,0.8-0.2,1.6c-0.1,0.5-0.1,1.7-0.1,1.9c0,0.2,0,0.5-0.3,0.5c-0.2,0-0.2-0.2-0.2-0.4
					c0-0.2-0.1-0.5-0.2-0.8c-0.1-0.4-0.5-0.8-1.3-0.9c-0.6-0.1-3.4-0.1-3.8-0.1c-0.1,0-0.2,0.1-0.2,0.2V76z"/>
				<path class="st3" d="M120.5,75.2c0-3.7,2.6-8.5,9.5-8.5c5.7,0,9.2,3.2,9.2,8.2c0,5-3.6,8.9-9.5,8.9
					C123.2,83.7,120.5,79,120.5,75.2z M135.8,75.6c0-4.8-2.9-7.8-6.5-7.8c-2.5,0-5.5,1.3-5.5,6.7c0,4.5,2.6,8,6.8,8
					C132.2,82.5,135.8,81.8,135.8,75.6z"/>
				<path class="st3" d="M142.2,73.2c0-3.3,0-3.9,0-4.6c-0.1-0.7-0.3-1-1-1.2c-0.2-0.1-0.6-0.1-0.9-0.1c-0.2,0-0.4-0.1-0.4-0.2
					c0-0.2,0.2-0.2,0.5-0.2c1.2,0,2.6,0.1,3.1,0.1c0.8,0,2.8-0.1,3.5-0.1c1.4,0,3.1,0.1,4.3,0.9c0.6,0.4,1.6,1.5,1.6,3
					c0,1.6-0.9,3.1-3.1,4.8c2,2.5,3.6,4.4,5,5.8c1.3,1.3,2.1,1.4,2.4,1.4c0.2,0.1,0.4,0.1,0.5,0.1c0.2,0,0.3,0.1,0.3,0.2
					c0,0.2-0.2,0.2-0.4,0.2h-2.2c-1.3,0-1.9-0.1-2.5-0.4c-1-0.5-1.8-1.5-3.1-3.2c-0.9-1.2-1.8-2.6-2.1-3c-0.1-0.1-0.3-0.2-0.4-0.2
					l-2-0.1c-0.1,0-0.2,0.1-0.2,0.2v0.3c0,2,0,3.7,0.1,4.6c0.1,0.6,0.2,1.1,0.9,1.2c0.3,0.1,0.8,0.1,1.1,0.1c0.2,0,0.3,0.1,0.3,0.2
					c0,0.2-0.2,0.2-0.5,0.2c-1.3,0-3.2-0.1-3.5-0.1c-0.4,0-1.9,0.1-2.8,0.1c-0.3,0-0.4-0.1-0.4-0.2c0-0.1,0.1-0.2,0.4-0.2
					c0.3,0,0.6,0,0.8-0.1c0.5-0.1,0.6-0.5,0.7-1.2c0.1-0.9,0.1-2.6,0.1-4.6V73.2z M145.1,74.9c0,0.2,0.1,0.3,0.2,0.4
					c0.5,0.2,1.2,0.2,1.7,0.2c0.9,0,1.2-0.1,1.6-0.4c0.7-0.5,1.5-1.4,1.5-3.2c0-3.1-2.1-3.9-3.4-3.9c-0.6,0-1.1,0-1.3,0.1
					c-0.2,0.1-0.2,0.1-0.2,0.3V74.9z"/>
				<path class="st3" d="M159.1,73.2c0-3.3,0-3.9,0-4.6c-0.1-0.7-0.3-1-1-1.2c-0.2-0.1-0.6-0.1-0.9-0.1c-0.2,0-0.4-0.1-0.4-0.2
					c0-0.2,0.2-0.2,0.5-0.2c1.2,0,2.6,0.1,3.3,0.1c0.7,0,5.7,0,6.2,0c0.4,0,0.8-0.1,0.9-0.1c0.1,0,0.3-0.1,0.4-0.1
					c0.1,0,0.2,0.1,0.2,0.2c0,0.2-0.1,0.4-0.2,1.4c0,0.2-0.1,1.2-0.1,1.4c0,0.1-0.1,0.4-0.3,0.4c-0.2,0-0.2-0.1-0.2-0.3
					c0-0.2,0-0.5-0.2-0.8c-0.2-0.4-0.4-0.7-1.5-0.8c-0.4-0.1-3.1-0.1-3.5-0.1c-0.1,0-0.2,0.1-0.2,0.2v5.4c0,0.1,0,0.2,0.2,0.2
					c0.5,0,3.4,0,4-0.1c0.5-0.1,0.9-0.1,1.1-0.3c0.2-0.2,0.3-0.3,0.4-0.3c0.1,0,0.2,0.1,0.2,0.2c0,0.1-0.1,0.5-0.2,1.6
					c-0.1,0.4-0.1,1.3-0.1,1.5c0,0.2,0,0.5-0.2,0.5c-0.2,0-0.2-0.1-0.2-0.2c0-0.2,0-0.5-0.1-0.8c-0.1-0.4-0.4-0.8-1.3-0.8
					c-0.4-0.1-3-0.1-3.5-0.1c-0.1,0-0.1,0.1-0.1,0.2v1.7c0,0.7,0,2.6,0,3.2c0.1,1.5,0.7,1.8,3.1,1.8c0.6,0,1.5,0,2.1-0.3
					c0.6-0.3,0.8-0.7,1-1.6c0.1-0.2,0.1-0.3,0.3-0.3c0.2,0,0.2,0.3,0.2,0.5c0,0.5-0.2,2-0.3,2.4c-0.2,0.6-0.4,0.6-1.2,0.6
					c-1.7,0-3.1,0-4.2-0.1c-1.1,0-1.9-0.1-2.6-0.1c-0.3,0-0.7,0-1.3,0c-0.5,0-1.1,0.1-1.6,0.1c-0.3,0-0.4-0.1-0.4-0.2
					c0-0.1,0.1-0.2,0.4-0.2c0.3,0,0.6,0,0.8-0.1c0.5-0.1,0.6-0.5,0.7-1.2c0.1-0.9,0.1-2.6,0.1-4.6V73.2z"/>
				<path class="st3" d="M171.6,83.1c-0.4-0.2-0.4-0.3-0.4-0.7c0-1.2,0.1-2.5,0.1-2.9c0-0.3,0.1-0.6,0.3-0.6c0.2,0,0.2,0.2,0.2,0.4
					c0,0.3,0.1,0.7,0.2,1.1c0.5,1.6,2.2,2.2,3.6,2.2c2,0,3.1-1.2,3.1-2.8c0-0.9-0.2-1.9-2.2-3.1l-1.3-0.8c-2.7-1.6-3.5-3-3.5-5
					c0-2.7,2.6-4.4,5.7-4.4c1.5,0,2.6,0.2,3.2,0.4c0.2,0.1,0.3,0.1,0.3,0.3c0,0.3-0.1,0.9-0.1,2.6c0,0.5-0.1,0.7-0.3,0.7
					c-0.2,0-0.2-0.1-0.2-0.4c0-0.2-0.1-0.9-0.6-1.4c-0.3-0.4-1.1-1-2.5-1c-1.6,0-3.1,0.8-3.1,2.3c0,1,0.4,1.7,2.4,2.9l0.9,0.5
					c3,1.6,3.9,3.3,3.9,5.3c0,1.6-0.6,2.9-2.3,4.1c-1.1,0.8-2.6,0.9-3.8,0.9C174,83.7,172.6,83.6,171.6,83.1z"/>
				<path class="st3" d="M188.9,68.3l-3.4,0.1c-1.3,0-1.8,0.2-2.2,0.7c-0.2,0.3-0.3,0.6-0.4,0.7c-0.1,0.2-0.1,0.3-0.3,0.3
					c-0.2,0-0.2-0.1-0.2-0.4c0-0.4,0.4-2.5,0.5-2.6c0.1-0.3,0.1-0.4,0.3-0.4c0.2,0,0.4,0.2,1,0.3c0.7,0.1,1.5,0.1,2.3,0.1h9.2
					c0.7,0,1.2-0.1,1.5-0.1c0.4-0.1,0.5-0.1,0.6-0.1c0.2,0,0.2,0.1,0.2,0.5c0,0.5-0.1,2.1-0.1,2.6c0,0.2-0.1,0.4-0.2,0.4
					c-0.2,0-0.2-0.1-0.3-0.4l0-0.2c-0.1-0.6-0.6-1.2-2.7-1.3l-2.8-0.1v8.8c0,2,0,3.7,0.1,4.7c0.1,0.6,0.2,1,0.9,1.1
					c0.3,0.1,0.8,0.1,1.2,0.1c0.3,0,0.4,0.1,0.4,0.2c0,0.2-0.2,0.2-0.4,0.2c-1.5,0-3-0.1-3.6-0.1c-0.5,0-2.1,0.1-3,0.1
					c-0.3,0-0.4-0.1-0.4-0.2c0-0.1,0.1-0.2,0.4-0.2c0.3,0,0.6,0,0.8-0.1c0.5-0.1,0.6-0.5,0.7-1.2c0.1-0.9,0.1-2.6,0.1-4.6V68.3z"/>
				<path class="st3" d="M207.2,83.1c-0.4-0.2-0.5-0.3-0.5-0.9c0-1.4,0.1-3,0.1-3.4c0-0.4,0.1-0.7,0.3-0.7c0.2,0,0.3,0.2,0.3,0.4
					c0,0.3,0.1,0.9,0.2,1.3c0.6,1.9,2.1,2.6,3.7,2.6c2.3,0,3.4-1.6,3.4-2.9c0-1.3-0.4-2.4-2.5-4.1l-1.2-0.9c-2.8-2.2-3.8-4-3.8-6.1
					c0-2.8,2.4-4.9,5.9-4.9c1.7,0,2.7,0.3,3.4,0.4c0.2,0.1,0.4,0.1,0.4,0.3c0,0.3-0.1,1.1-0.1,3.1c0,0.6-0.1,0.8-0.3,0.8
					c-0.2,0-0.3-0.2-0.3-0.5c0-0.2-0.1-1-0.7-1.7c-0.4-0.5-1.1-1.3-2.8-1.3c-1.9,0-3.1,1.1-3.1,2.6c0,1.2,0.6,2.1,2.7,3.7l0.7,0.5
					c3.1,2.3,4.2,4.1,4.2,6.5c0,1.5-0.6,3.3-2.4,4.5c-1.3,0.8-2.7,1.1-4.1,1.1C209.4,83.8,208.3,83.6,207.2,83.1z"/>
				<path class="st3" d="M221.7,73.2c0-3.3,0-3.9,0-4.6c-0.1-0.7-0.3-1-1-1.2c-0.2-0.1-0.6-0.1-0.9-0.1c-0.2,0-0.4-0.1-0.4-0.2
					c0-0.2,0.2-0.2,0.5-0.2c1.2,0,2.6,0.1,3.3,0.1c0.7,0,5.7,0,6.2,0c0.4,0,0.8-0.1,0.9-0.1c0.1,0,0.3-0.1,0.4-0.1
					c0.1,0,0.2,0.1,0.2,0.2c0,0.2-0.1,0.4-0.2,1.4c0,0.2-0.1,1.2-0.1,1.4c0,0.1-0.1,0.4-0.3,0.4c-0.2,0-0.2-0.1-0.2-0.3
					c0-0.2,0-0.5-0.2-0.8c-0.2-0.4-0.4-0.7-1.5-0.8c-0.4-0.1-3.1-0.1-3.5-0.1c-0.1,0-0.2,0.1-0.2,0.2v5.4c0,0.1,0,0.2,0.2,0.2
					c0.5,0,3.4,0,4-0.1c0.5-0.1,0.9-0.1,1.1-0.3c0.2-0.2,0.3-0.3,0.4-0.3c0.1,0,0.2,0.1,0.2,0.2c0,0.1-0.1,0.5-0.2,1.6
					c-0.1,0.4-0.1,1.3-0.1,1.5c0,0.2,0,0.5-0.2,0.5c-0.2,0-0.2-0.1-0.2-0.2c0-0.2,0-0.5-0.1-0.8c-0.1-0.4-0.4-0.8-1.3-0.8
					c-0.4-0.1-3-0.1-3.5-0.1c-0.1,0-0.1,0.1-0.1,0.2v1.7c0,0.7,0,2.6,0,3.2c0.1,1.5,0.7,1.8,3.1,1.8c0.6,0,1.5,0,2.1-0.3
					c0.6-0.3,0.8-0.7,1-1.6c0.1-0.2,0.1-0.3,0.3-0.3c0.2,0,0.2,0.3,0.2,0.5c0,0.5-0.2,2-0.3,2.4c-0.2,0.6-0.4,0.6-1.2,0.6
					c-1.7,0-3.1,0-4.2-0.1c-1.1,0-2-0.1-2.6-0.1c-0.3,0-0.7,0-1.3,0c-0.5,0-1.1,0.1-1.6,0.1c-0.3,0-0.4-0.1-0.4-0.2
					c0-0.1,0.1-0.2,0.4-0.2c0.3,0,0.6,0,0.8-0.1c0.5-0.1,0.6-0.5,0.7-1.2c0.1-0.9,0.1-2.6,0.1-4.6V73.2z"/>
				<path class="st3" d="M235.5,73.2c0-3.3,0-3.9,0-4.6c-0.1-0.7-0.3-1-1-1.2c-0.2-0.1-0.6-0.1-0.9-0.1c-0.2,0-0.4-0.1-0.4-0.2
					c0-0.2,0.2-0.2,0.5-0.2c1.2,0,2.6,0.1,3.1,0.1c0.8,0,2.8-0.1,3.5-0.1c1.4,0,3.1,0.1,4.3,0.9c0.6,0.4,1.6,1.5,1.6,3
					c0,1.6-0.9,3.1-3.1,4.8c2,2.5,3.6,4.4,5,5.8c1.3,1.3,2.1,1.4,2.4,1.4c0.2,0.1,0.4,0.1,0.5,0.1c0.2,0,0.3,0.1,0.3,0.2
					c0,0.2-0.2,0.2-0.4,0.2h-2.2c-1.3,0-1.9-0.1-2.5-0.4c-1-0.5-1.8-1.5-3.1-3.2c-0.9-1.2-1.8-2.6-2.1-3c-0.1-0.1-0.3-0.2-0.4-0.2
					l-2-0.1c-0.1,0-0.2,0.1-0.2,0.2v0.3c0,2,0,3.7,0.1,4.6c0.1,0.6,0.2,1.1,0.9,1.2c0.3,0.1,0.8,0.1,1.1,0.1c0.2,0,0.3,0.1,0.3,0.2
					c0,0.2-0.2,0.2-0.5,0.2c-1.3,0-3.2-0.1-3.5-0.1c-0.4,0-1.9,0.1-2.8,0.1c-0.3,0-0.4-0.1-0.4-0.2c0-0.1,0.1-0.2,0.4-0.2
					c0.3,0,0.6,0,0.8-0.1c0.5-0.1,0.6-0.5,0.7-1.2c0.1-0.9,0.1-2.6,0.1-4.6V73.2z M238.3,74.9c0,0.2,0.1,0.3,0.2,0.4
					c0.5,0.2,1.2,0.2,1.7,0.2c0.9,0,1.2-0.1,1.6-0.4c0.7-0.5,1.5-1.4,1.5-3.2c0-3.1-2.1-3.9-3.4-3.9c-0.6,0-1.1,0-1.3,0.1
					c-0.2,0.1-0.2,0.1-0.2,0.3V74.9z"/>
				<path class="st3" d="M249.5,69.1c-0.5-1.2-0.8-1.4-1.7-1.6c-0.3-0.1-0.7-0.1-0.9-0.1c-0.2,0-0.3-0.1-0.3-0.2
					c0-0.2,0.2-0.2,0.6-0.2c1.2,0,2.5,0.1,3.3,0.1c0.6,0,1.7-0.1,2.9-0.1c0.3,0,0.5,0.1,0.5,0.2c0,0.2-0.2,0.2-0.4,0.2
					c-0.4,0-0.7,0-0.9,0.2c-0.2,0.1-0.2,0.2-0.2,0.4c0,0.3,0.2,0.9,0.5,1.6l3.8,9.8h0.1c1-2.3,3.9-9.3,4.4-10.7
					c0.1-0.3,0.2-0.6,0.2-0.8c0-0.2-0.1-0.3-0.3-0.4c-0.3-0.1-0.6-0.1-0.9-0.1c-0.2,0-0.4-0.1-0.4-0.2c0-0.2,0.2-0.2,0.6-0.2
					c1.1,0,2.1,0.1,2.4,0.1c0.4,0,1.4-0.1,2.1-0.1c0.3,0,0.5,0.1,0.5,0.2c0,0.2-0.1,0.2-0.4,0.2c-0.2,0-0.7,0-1.1,0.3
					c-0.3,0.2-0.6,0.5-1.2,1.9c-0.9,2.1-1.5,3.2-2.7,5.9c-1.4,3.2-2.5,5.6-3,6.7c-0.6,1.3-0.8,1.6-1.1,1.6c-0.3,0-0.5-0.3-0.9-1.3
					L249.5,69.1z"/>
				<path class="st3" d="M267.1,73.2c0-3.3,0-3.9,0-4.6c-0.1-0.7-0.3-1-0.8-1.2c-0.3-0.1-0.5-0.1-0.8-0.1c-0.2,0-0.4-0.1-0.4-0.3
					c0-0.1,0.2-0.2,0.5-0.2c0.8,0,2.4,0.1,3,0.1c0.6,0,2-0.1,2.9-0.1c0.3,0,0.5,0.1,0.5,0.2c0,0.2-0.1,0.3-0.4,0.3s-0.4,0-0.7,0.1
					c-0.6,0.1-0.8,0.4-0.8,1.2c-0.1,0.7-0.1,1.3-0.1,4.6v3.8c0,2.1,0,3.8,0.1,4.8c0.1,0.6,0.2,0.9,0.9,1c0.3,0.1,0.8,0.1,1.2,0.1
					c0.3,0,0.4,0.1,0.4,0.2c0,0.2-0.2,0.2-0.4,0.2c-1.5,0-3-0.1-3.6-0.1c-0.5,0-2.1,0.1-3,0.1c-0.3,0-0.4-0.1-0.4-0.2
					c0-0.1,0.1-0.2,0.4-0.2c0.3,0,0.6,0,0.8-0.1c0.5-0.1,0.6-0.4,0.7-1.1c0.1-0.9,0.1-2.6,0.1-4.7V73.2z"/>
				<path class="st3" d="M276.2,81.4c-2.2-1.9-2.8-4.3-2.8-6.4c0-1.5,0.5-4.1,2.6-6c1.6-1.4,3.8-2.3,7.2-2.3c1.4,0,2.3,0.1,3.3,0.2
					c0.8,0.1,1.6,0.3,2.3,0.4c0.3,0,0.3,0.1,0.3,0.3c0,0.2-0.1,0.4-0.1,1.2c-0.1,0.7-0.1,1.9-0.1,2.4c0,0.3-0.1,0.5-0.3,0.5
					c-0.2,0-0.2-0.2-0.2-0.5c0-0.7-0.3-1.5-0.9-2c-0.8-0.7-2.3-1.3-4.4-1.3c-2,0-3.2,0.4-4.3,1.2c-1.7,1.4-2.1,3.5-2.1,5.7
					c0,5.2,4,7.6,7,7.6c2,0,3.1-0.2,4-1.2c0.4-0.4,0.7-1.1,0.8-1.5c0.1-0.3,0.1-0.4,0.3-0.4c0.2,0,0.3,0.2,0.3,0.4
					c0,0.3-0.3,2.2-0.5,2.9c-0.1,0.4-0.2,0.5-0.6,0.6c-0.9,0.4-2.6,0.5-4.1,0.5C280.9,83.7,278.3,83.1,276.2,81.4z"/>
				<path class="st3" d="M293.2,73.2c0-3.3,0-3.9,0-4.6c-0.1-0.7-0.3-1-1-1.2c-0.2-0.1-0.6-0.1-0.9-0.1c-0.2,0-0.4-0.1-0.4-0.2
					c0-0.2,0.2-0.2,0.5-0.2c1.2,0,2.6,0.1,3.3,0.1c0.7,0,5.7,0,6.2,0c0.4,0,0.8-0.1,0.9-0.1c0.1,0,0.3-0.1,0.4-0.1
					c0.1,0,0.2,0.1,0.2,0.2c0,0.2-0.1,0.4-0.2,1.4c0,0.2-0.1,1.2-0.1,1.4c0,0.1-0.1,0.4-0.3,0.4c-0.2,0-0.2-0.1-0.2-0.3
					c0-0.2,0-0.5-0.2-0.8c-0.2-0.4-0.4-0.7-1.5-0.8c-0.4-0.1-3.1-0.1-3.5-0.1c-0.1,0-0.2,0.1-0.2,0.2v5.4c0,0.1,0,0.2,0.2,0.2
					c0.5,0,3.4,0,4-0.1c0.5-0.1,0.9-0.1,1.1-0.3c0.2-0.2,0.3-0.3,0.4-0.3c0.1,0,0.2,0.1,0.2,0.2c0,0.1-0.1,0.5-0.2,1.6
					c-0.1,0.4-0.1,1.3-0.1,1.5c0,0.2,0,0.5-0.2,0.5c-0.2,0-0.2-0.1-0.2-0.2c0-0.2,0-0.5-0.1-0.8c-0.1-0.4-0.4-0.8-1.3-0.8
					c-0.4-0.1-3-0.1-3.5-0.1c-0.1,0-0.1,0.1-0.1,0.2v1.7c0,0.7,0,2.6,0,3.2c0.1,1.5,0.7,1.8,3.1,1.8c0.6,0,1.5,0,2.1-0.3
					c0.6-0.3,0.8-0.7,1-1.6c0.1-0.2,0.1-0.3,0.3-0.3c0.2,0,0.2,0.3,0.2,0.5c0,0.5-0.2,2-0.3,2.4c-0.2,0.6-0.4,0.6-1.2,0.6
					c-1.7,0-3.1,0-4.2-0.1c-1.1,0-2-0.1-2.6-0.1c-0.3,0-0.7,0-1.3,0c-0.5,0-1.1,0.1-1.6,0.1c-0.3,0-0.4-0.1-0.4-0.2
					c0-0.1,0.1-0.2,0.4-0.2c0.3,0,0.6,0,0.8-0.1c0.5-0.1,0.6-0.5,0.7-1.2c0.1-0.9,0.1-2.6,0.1-4.6V73.2z"/>
			</g>
			<rect x="101.9" y="59.3" class="st3" width="204.1" height="0.8"/>
		</g>
	</g>
</g>
<g id="Layer_2">
</g>
</svg>
