<?xml version="1.0" encoding="utf-8"?>
<!-- Generator: Adobe Illustrator 24.3.0, SVG Export Plug-In . SVG Version: 6.00 Build 0)  -->
<svg version="1.1" xmlns="http://www.w3.org/2000/svg" xmlns:xlink="http://www.w3.org/1999/xlink" x="0px" y="0px"
	 viewBox="0 0 270 270" style="enable-background:new 0 0 270 270;" xml:space="preserve">
<style type="text/css">
	.st0{fill-rule:evenodd;clip-rule:evenodd;fill:#5D0025;}
	.st1{fill-rule:evenodd;clip-rule:evenodd;fill:#617D2F;}
	.st2{fill:#5D0025;}
	.st3{fill:#878A8F;}
	.st4{fill-rule:evenodd;clip-rule:evenodd;fill:#691C32;}
	.st5{fill-rule:evenodd;clip-rule:evenodd;fill:#68813C;}
	.st6{fill:#691C32;}
</style>
<g id="Layer_1">
	<g>
		<g>
			<g>
				<polygon class="st0" points="215,118.5 153.8,118.5 134.9,60.3 116,118.5 54.9,118.5 104.3,154.4 85.4,212.6 125.4,183.5 
					110.7,172.9 134.9,98.4 159.1,172.9 144.4,183.5 184.4,212.6 165.5,154.4 				"/>
			</g>
			<g>
				<polygon class="st1" points="134.9,112.3 115.8,171.2 130.6,182 130.6,198.6 134.9,198.6 134.9,198.6 				"/>
			</g>
		</g>
		<g>
			<g>
				<path class="st2" d="M468.9,143.1l-5.1,0.1c-2,0.1-2.8,0.2-3.3,1c-0.3,0.5-0.5,0.9-0.6,1.2c-0.1,0.3-0.2,0.4-0.4,0.4
					c-0.2,0-0.3-0.2-0.3-0.5c0-0.5,0.7-3.7,0.7-3.9c0.1-0.4,0.2-0.6,0.4-0.6c0.3,0,0.6,0.3,1.5,0.4c1,0.1,2.3,0.2,3.4,0.2h13.6
					c1.1,0,1.8-0.1,2.4-0.2c0.5-0.1,0.8-0.2,0.9-0.2c0.2,0,0.3,0.2,0.3,0.7c0,0.7-0.1,3.1-0.1,4c0,0.3-0.1,0.5-0.3,0.5
					c-0.3,0-0.3-0.2-0.4-0.7l0-0.4c-0.1-0.9-1-1.8-4-1.9l-4.3-0.1v14c0,3.2,0,5.9,0.2,7.3c0.1,1,0.3,1.7,1.3,1.8
					c0.5,0.1,1.2,0.1,1.7,0.1c0.4,0,0.5,0.1,0.5,0.3c0,0.2-0.3,0.3-0.7,0.3c-2.3,0-4.4-0.1-5.4-0.1c-0.8,0-2.9,0.1-4.3,0.1
					c-0.4,0-0.7-0.1-0.7-0.3c0-0.2,0.1-0.3,0.5-0.3c0.5,0,0.9-0.1,1.2-0.1c0.7-0.1,0.9-0.9,1-1.9c0.2-1.4,0.2-4.1,0.2-7.3V143.1z"/>
				<path class="st2" d="M487.6,153.5c0-4.4,0-5.2,0-6.2c-0.1-1-0.3-1.3-1.3-1.6c-0.2-0.1-0.8-0.1-1.2-0.1c-0.3,0-0.5-0.1-0.5-0.3
					c0-0.2,0.2-0.3,0.7-0.3c1.6,0,3.5,0.1,4.3,0.1c1,0,7.6,0,8.2,0c0.5,0,1-0.1,1.3-0.2c0.2,0,0.3-0.1,0.5-0.1
					c0.2,0,0.2,0.1,0.2,0.3c0,0.2-0.2,0.5-0.2,1.9c0,0.3-0.1,1.6-0.2,1.9c0,0.1-0.1,0.5-0.3,0.5c-0.2,0-0.2-0.1-0.2-0.4
					c0-0.2,0-0.7-0.2-1.1c-0.2-0.5-0.5-0.9-2-1.1c-0.5-0.1-4.1-0.1-4.7-0.1c-0.1,0-0.2,0.1-0.2,0.3v7.2c0,0.2,0,0.3,0.2,0.3
					c0.7,0,4.6,0,5.3-0.1c0.7-0.1,1.2-0.1,1.4-0.4c0.2-0.2,0.3-0.4,0.5-0.4c0.1,0,0.2,0.1,0.2,0.3c0,0.2-0.1,0.6-0.2,2.1
					c-0.1,0.6-0.1,1.7-0.1,2c0,0.2,0,0.6-0.3,0.6c-0.2,0-0.3-0.1-0.3-0.2c0-0.3,0-0.7-0.1-1.1c-0.2-0.6-0.5-1-1.7-1.1
					c-0.5-0.1-4-0.1-4.7-0.1c-0.1,0-0.2,0.1-0.2,0.3v2.3c0,1,0,3.5,0,4.3c0.1,2,1,2.4,4.1,2.4c0.8,0,2.1,0,2.8-0.4
					c0.8-0.3,1.1-1,1.3-2.2c0.1-0.3,0.1-0.4,0.3-0.4c0.2,0,0.3,0.4,0.3,0.7c0,0.7-0.2,2.6-0.4,3.2c-0.2,0.8-0.5,0.8-1.6,0.8
					c-2.3,0-4.1,0-5.5-0.1c-1.5,0-2.6-0.1-3.5-0.1c-0.3,0-1,0-1.7,0c-0.7,0-1.5,0.1-2.1,0.1c-0.4,0-0.6-0.1-0.6-0.3
					c0-0.1,0.1-0.3,0.5-0.3c0.4,0,0.8,0,1.1-0.1c0.6-0.1,0.8-0.7,0.9-1.5c0.1-1.2,0.1-3.5,0.1-6.2V153.5z"/>
				<path class="st2" d="M515.6,154.9c1,1.4,6,9.3,6.7,10.3c0.5,0.7,1,1,1.6,1.2c0.4,0.1,0.9,0.2,1.2,0.2c0.2,0,0.4,0.1,0.4,0.3
					c0,0.2-0.2,0.3-0.6,0.3H524c-0.7,0-3.1,0-5.6-0.1c-0.8,0-1.1-0.1-1.1-0.3c0-0.2,0.1-0.3,0.4-0.4c0.1,0,0.3-0.2,0.1-0.6
					c-1.7-2.8-3.4-5.6-4.8-7.8l-4.4,6.9c-0.3,0.5-0.5,0.9-0.4,1.2c0,0.3,0.3,0.4,0.6,0.4c0.2,0,0.4,0,0.7,0c0.2,0,0.4,0.2,0.4,0.3
					c0,0.2-0.2,0.3-0.6,0.3h-0.5c-0.2,0-2.2-0.1-2.9-0.1c-0.6,0-2.1,0.1-2.5,0.1h-0.5c-0.3,0-0.4-0.1-0.4-0.3c0-0.2,0.2-0.3,0.4-0.3
					c0.2,0,0.7,0,1.1-0.1c0.9-0.2,1.4-0.7,2.4-2.1l5.9-7.9l-5.3-8.3c-0.8-1.2-1.4-1.8-2.4-2.1c-0.5-0.1-1-0.2-1.3-0.2
					c-0.2,0-0.3-0.1-0.3-0.3c0-0.2,0.2-0.2,0.6-0.2c0.7,0,3.2,0.1,4.6,0.1c0.4,0,2.3-0.1,3.4-0.1c0.4,0,0.6,0.1,0.6,0.3
					c0,0.2-0.2,0.3-0.5,0.3c-0.2,0-0.5,0-0.7,0.1c-0.3,0.1-0.4,0.2-0.4,0.4s0.1,0.5,0.3,0.9c1.3,2.3,2.6,4.3,3.8,6.3
					c0.9-1.3,3.6-5.2,4.1-6.1c0.2-0.4,0.3-0.8,0.3-1.1c0-0.2-0.2-0.4-0.5-0.5c-0.3-0.1-0.7-0.1-1-0.1c-0.2,0-0.4-0.1-0.4-0.3
					c0-0.2,0.2-0.3,0.6-0.3c1.2,0,2.6,0.1,3.2,0.1c0.6,0,1.8-0.1,2.9-0.1c0.3,0,0.5,0.1,0.5,0.3c0,0.2-0.2,0.3-0.5,0.3
					c-0.3,0-0.7,0.1-1.1,0.2c-0.7,0.2-1.2,1-2.2,2.2L515.6,154.9z"/>
				<path class="st2" d="M530.2,159.8c-0.2,0-0.2,0-0.3,0.2l-1.6,3.9c-0.3,0.7-0.4,1.4-0.4,1.8c0,0.5,0.3,0.8,1.2,0.8h0.4
					c0.4,0,0.4,0.1,0.4,0.3c0,0.2-0.2,0.3-0.5,0.3c-1,0-2.4-0.1-3.4-0.1c-0.3,0-1.9,0.1-3.5,0.1c-0.4,0-0.5-0.1-0.5-0.3
					c0-0.2,0.1-0.3,0.3-0.3c0.3,0,0.6,0,0.9,0c1.4-0.2,1.9-1.1,2.5-2.6l7.9-18.3c0.3-0.8,0.6-1.2,0.9-1.2c0.4,0,0.6,0.3,0.9,0.9
					c0.7,1.6,5.8,13.5,7.7,17.9c1.2,2.6,2,3,2.6,3.1c0.4,0.1,0.8,0.1,1.1,0.1c0.3,0,0.4,0.1,0.4,0.3c0,0.2-0.2,0.3-1.3,0.3
					c-1.1,0-3.3,0-5.8-0.1c-0.5,0-0.9,0-0.9-0.2c0-0.2,0.1-0.3,0.4-0.3c0.2,0,0.4-0.3,0.3-0.7l-2.3-5.9c-0.1-0.2-0.2-0.2-0.3-0.2
					H530.2z M536.7,158.1c0.1,0,0.2-0.1,0.1-0.2l-2.8-7.4c0-0.1-0.1-0.3-0.1-0.3c-0.1,0-0.1,0.2-0.2,0.3l-2.9,7.4
					c-0.1,0.1,0,0.2,0.1,0.2H536.7z"/>
				<path class="st2" d="M548.6,166.7c-0.5-0.2-0.6-0.3-0.6-1c0-1.6,0.1-3.4,0.2-3.9c0-0.4,0.1-0.8,0.4-0.8c0.3,0,0.3,0.3,0.3,0.5
					c0,0.4,0.1,1,0.3,1.5c0.7,2.2,2.9,2.9,4.8,2.9c2.6,0,4.2-1.6,4.2-3.7c0-1.3-0.3-2.5-3-4.1l-1.7-1c-3.6-2.1-4.7-4-4.7-6.6
					c0-3.6,3.4-5.9,7.6-5.9c2,0,3.5,0.3,4.3,0.5c0.3,0.1,0.4,0.2,0.4,0.4c0,0.4-0.1,1.2-0.1,3.5c0,0.6-0.1,0.9-0.4,0.9
					c-0.2,0-0.3-0.2-0.3-0.5c0-0.3-0.1-1.2-0.8-1.9c-0.4-0.5-1.4-1.4-3.4-1.4c-2.2,0-4.1,1.1-4.1,3.1c0,1.3,0.5,2.3,3.2,3.8l1.2,0.7
					c4,2.2,5.2,4.4,5.2,7.1c0,2.2-0.8,3.9-3,5.4c-1.4,1-3.4,1.2-5,1.2C551.7,167.5,549.9,167.3,548.6,166.7z"/>
				<path class="st2" d="M581.1,158.1c-0.2,0-0.2,0.1-0.3,0.3l-1.8,4.9c-0.3,0.9-0.5,1.7-0.5,2.1c0,0.6,0.3,1.1,1.4,1.1h0.5
					c0.4,0,0.5,0.1,0.5,0.3c0,0.3-0.2,0.3-0.6,0.3c-1.1,0-2.6-0.1-3.6-0.1c-0.4,0-2.3,0.1-4,0.1c-0.4,0-0.7-0.1-0.7-0.3
					c0-0.2,0.1-0.3,0.4-0.3c0.3,0,0.8,0,1.1-0.1c1.6-0.2,2.2-1.4,2.9-3.1l8.6-21.5c0.4-1,0.6-1.4,1-1.4c0.3,0,0.5,0.3,0.9,1.1
					c0.8,1.9,6.3,15.9,8.5,21.1c1.3,3.1,2.3,3.6,3,3.7c0.5,0.1,1,0.1,1.4,0.1c0.3,0,0.4,0,0.4,0.3c0,0.3-0.3,0.3-1.6,0.3
					c-1.2,0-3.7,0-6.5-0.1c-0.6,0-1,0-1-0.3c0-0.2,0.1-0.3,0.5-0.3c0.2-0.1,0.5-0.4,0.3-0.8l-2.7-7.3c-0.1-0.2-0.2-0.2-0.3-0.2
					H581.1z M588,156.4c0.2,0,0.2-0.1,0.2-0.2l-3.1-8.5c0-0.1-0.1-0.3-0.2-0.3c-0.1,0-0.2,0.2-0.2,0.3l-3.2,8.4c0,0.1,0,0.2,0.1,0.2
					H588z"/>
				<path class="st2" d="M605.6,151.9c-1.4-1.9-1.7-3.3-1.7-4.9c0-2.7,2.4-6.3,8.3-6.3c1.7,0,3.2,0.3,4.1,0.7
					c0.6,0.2,0.6,0.5,0.6,0.9c0,1.1-0.3,3.9-0.4,4.4c-0.1,0.5-0.2,0.6-0.4,0.6c-0.2,0-0.2-0.1-0.2-0.7c0-0.9-0.2-2-1-2.9
					c-0.7-0.8-1.9-1.5-3.8-1.5c-1.4,0-3.7,1-3.7,3.9c0,3.2,2.9,6,5.7,9c1.2,1.3,5.4,5.1,6,5.7c0.7-1,1.6-3.2,1.6-5.3
					c0-0.5-0.1-1.1-0.7-1.6c-0.4-0.4-1.2-0.5-1.7-0.5c-0.2,0-0.4-0.1-0.4-0.3c0-0.3,0.3-0.3,0.5-0.3c0.8,0,2.2,0,4.1,0.2
					c0.7,0.1,1.2,0.3,1.2,0.7c0,2.6-1.4,5.8-3.4,8.1c2.3,1.9,3.8,2.8,4.8,3.4c1.1,0.7,3,1.2,3.7,1.2c0.3,0,0.5,0,0.5,0.3
					c0,0.2-0.3,0.3-1,0.3h-2.6c-3.9,0-5.1-0.4-8.1-2.6c-1.1,1-3.4,3.1-8.1,3.1c-7.3,0-9.5-4.6-9.5-7.6
					C600,156,603.6,152.9,605.6,151.9z M616.3,163.4c-2-1.7-5.3-4.9-6.2-5.9c-0.9-1-3.1-3.4-3.7-4.3c-1.2,0.9-2.4,2.5-2.4,5.2
					c0,4.3,3,7,6.6,7C613.4,165.4,615.6,164,616.3,163.4z"/>
				<path class="st2" d="M633.4,141.3c0.1-0.6,0.3-0.9,0.6-0.9c0.3,0,0.5,0.2,0.9,1.1l9.3,19.3l9.3-19.6c0.3-0.5,0.4-0.8,0.8-0.8
					c0.3,0,0.5,0.3,0.6,1.1l3.1,21.2c0.3,2.2,0.7,3.2,1.7,3.5c1,0.3,1.7,0.3,2.1,0.3c0.3,0,0.5,0,0.5,0.2c0,0.3-0.4,0.4-0.9,0.4
					c-0.9,0-5.6-0.1-7-0.2c-0.8-0.1-1-0.2-1-0.4c0-0.2,0.1-0.3,0.4-0.4c0.2-0.1,0.3-0.5,0.2-1.5l-2.1-15.1h-0.1l-7.5,15.5
					c-0.8,1.6-1,1.9-1.3,1.9c-0.3,0-0.7-0.7-1.2-1.7c-0.8-1.6-3.5-6.8-3.9-7.8c-0.3-0.7-2.4-5-3.6-7.6h-0.1l-1.8,13.6
					c-0.1,0.6-0.1,1.1-0.1,1.6c0,0.6,0.4,1,1,1.1c0.6,0.1,1.1,0.2,1.4,0.2c0.3,0,0.5,0.1,0.5,0.2c0,0.3-0.3,0.4-0.8,0.4
					c-1.4,0-3-0.1-3.6-0.1c-0.7,0-2.3,0.1-3.4,0.1c-0.3,0-0.6-0.1-0.6-0.4c0-0.2,0.2-0.2,0.5-0.2c0.3,0,0.5,0,1-0.1
					c1-0.2,1.2-1.5,1.4-2.7L633.4,141.3z"/>
			</g>
			<g>
				<path class="st3" d="M469,188.5c0,2.5,0,4.4,0.1,5.5c0.1,0.7,0.2,1.3,1,1.4c0.4,0.1,0.9,0.1,1.3,0.1c0.3,0,0.4,0.1,0.4,0.2
					c0,0.2-0.2,0.3-0.6,0.3c-1.6,0-3.2-0.1-3.9-0.1c-0.7,0-2.3,0.1-3.3,0.1c-0.4,0-0.5-0.1-0.5-0.3c0-0.1,0.1-0.2,0.4-0.2
					c0.4,0,0.7-0.1,0.9-0.1c0.5-0.1,0.6-0.7,0.7-1.4c0.1-1.1,0.1-3,0.1-5.5V184c0-3.9,0-4.6-0.1-5.4c-0.1-0.9-0.3-1.3-1.1-1.5
					c-0.2-0.1-0.6-0.1-1-0.1c-0.3,0-0.4-0.1-0.4-0.2c0-0.2,0.2-0.3,0.6-0.3c0.7,0,1.4,0,2.1,0c0.7,0,1.3,0.1,1.6,0.1
					c1,0,6.2,0,6.8,0c0.5,0,0.8,0,1.1-0.1c0.2-0.1,0.3-0.2,0.4-0.2c0.1,0,0.2,0.1,0.2,0.2c0,0.2-0.1,0.5-0.2,1.2
					c0,0.3-0.1,1.8-0.1,2.1c0,0.2-0.1,0.4-0.3,0.4c-0.2,0-0.2-0.1-0.3-0.4c0-0.2,0-0.6-0.2-1c-0.2-0.4-0.7-0.7-1.7-0.8l-4-0.1
					c-0.2,0-0.2,0.1-0.2,0.4v6.4c0,0.2,0,0.2,0.2,0.2l3.3,0c0.4,0,0.8,0,1.2,0c0.5,0,0.8-0.1,1.1-0.5c0.1-0.2,0.2-0.3,0.3-0.3
					c0.1,0,0.2,0.1,0.2,0.2c0,0.2-0.1,0.8-0.2,1.6c-0.1,0.5-0.1,1.7-0.1,1.9c0,0.2,0,0.5-0.3,0.5c-0.2,0-0.2-0.2-0.2-0.4
					c0-0.2-0.1-0.5-0.2-0.8c-0.1-0.4-0.5-0.8-1.3-0.9c-0.6-0.1-3.4-0.1-3.8-0.1c-0.1,0-0.2,0.1-0.2,0.2V188.5z"/>
				<path class="st3" d="M477.7,187.7c0-3.7,2.6-8.5,9.5-8.5c5.7,0,9.2,3.2,9.2,8.2c0,5-3.6,8.9-9.5,8.9
					C480.4,196.3,477.7,191.6,477.7,187.7z M493.1,188.1c0-4.8-2.9-7.8-6.5-7.8c-2.5,0-5.5,1.3-5.5,6.7c0,4.5,2.6,8,6.8,8
					C489.5,195.1,493.1,194.3,493.1,188.1z"/>
				<path class="st3" d="M499.5,185.8c0-3.3,0-3.9,0-4.6c-0.1-0.7-0.3-1-1-1.2c-0.2-0.1-0.6-0.1-0.9-0.1c-0.2,0-0.4-0.1-0.4-0.2
					c0-0.2,0.2-0.2,0.5-0.2c1.2,0,2.6,0.1,3.1,0.1c0.8,0,2.8-0.1,3.5-0.1c1.4,0,3.1,0.1,4.3,0.9c0.6,0.4,1.6,1.5,1.6,3
					c0,1.6-0.9,3.1-3.1,4.8c2,2.5,3.6,4.4,5,5.8c1.3,1.3,2.1,1.4,2.4,1.4c0.2,0.1,0.4,0.1,0.5,0.1c0.2,0,0.3,0.1,0.3,0.2
					c0,0.2-0.2,0.2-0.4,0.2h-2.2c-1.3,0-1.9-0.1-2.5-0.4c-1-0.5-1.8-1.5-3.1-3.2c-0.9-1.2-1.8-2.6-2.1-3c-0.1-0.1-0.3-0.2-0.4-0.2
					l-2-0.1c-0.1,0-0.2,0.1-0.2,0.2v0.3c0,2,0,3.7,0.1,4.6c0.1,0.6,0.2,1.1,0.9,1.2c0.3,0.1,0.8,0.1,1.1,0.1c0.2,0,0.3,0.1,0.3,0.2
					c0,0.2-0.2,0.2-0.5,0.2c-1.3,0-3.2-0.1-3.5-0.1c-0.4,0-1.9,0.1-2.8,0.1c-0.3,0-0.4-0.1-0.4-0.2c0-0.1,0.1-0.2,0.4-0.2
					c0.3,0,0.6,0,0.8-0.1c0.5-0.1,0.6-0.5,0.7-1.2c0.1-0.9,0.1-2.6,0.1-4.6V185.8z M502.4,187.5c0,0.2,0.1,0.3,0.2,0.4
					c0.5,0.2,1.2,0.2,1.7,0.2c0.9,0,1.2-0.1,1.6-0.4c0.7-0.5,1.5-1.4,1.5-3.2c0-3.1-2.1-3.9-3.4-3.9c-0.6,0-1.1,0-1.3,0.1
					c-0.2,0.1-0.2,0.1-0.2,0.3V187.5z"/>
				<path class="st3" d="M516.3,185.8c0-3.3,0-3.9,0-4.6c-0.1-0.7-0.3-1-1-1.2c-0.2-0.1-0.6-0.1-0.9-0.1c-0.2,0-0.4-0.1-0.4-0.2
					c0-0.2,0.2-0.2,0.5-0.2c1.2,0,2.6,0.1,3.3,0.1c0.7,0,5.7,0,6.2,0c0.4,0,0.8-0.1,0.9-0.1c0.1,0,0.3-0.1,0.4-0.1
					c0.1,0,0.2,0.1,0.2,0.2c0,0.2-0.1,0.4-0.2,1.4c0,0.2-0.1,1.2-0.1,1.4c0,0.1-0.1,0.4-0.3,0.4c-0.2,0-0.2-0.1-0.2-0.3
					c0-0.2,0-0.5-0.2-0.8c-0.2-0.4-0.4-0.7-1.5-0.8c-0.4-0.1-3.1-0.1-3.5-0.1c-0.1,0-0.2,0.1-0.2,0.2v5.4c0,0.1,0,0.2,0.2,0.2
					c0.5,0,3.4,0,4-0.1c0.5-0.1,0.9-0.1,1.1-0.3c0.2-0.2,0.3-0.3,0.4-0.3c0.1,0,0.2,0.1,0.2,0.2c0,0.1-0.1,0.5-0.2,1.6
					c-0.1,0.4-0.1,1.3-0.1,1.5c0,0.2,0,0.5-0.2,0.5c-0.2,0-0.2-0.1-0.2-0.2c0-0.2,0-0.5-0.1-0.8c-0.1-0.4-0.4-0.8-1.3-0.8
					c-0.4-0.1-3-0.1-3.5-0.1c-0.1,0-0.1,0.1-0.1,0.2v1.7c0,0.7,0,2.6,0,3.2c0.1,1.5,0.7,1.8,3.1,1.8c0.6,0,1.5,0,2.1-0.3
					c0.6-0.3,0.8-0.7,1-1.6c0.1-0.2,0.1-0.3,0.3-0.3c0.2,0,0.2,0.3,0.2,0.5c0,0.5-0.2,2-0.3,2.4c-0.2,0.6-0.4,0.6-1.2,0.6
					c-1.7,0-3.1,0-4.2-0.1c-1.1,0-1.9-0.1-2.6-0.1c-0.3,0-0.7,0-1.3,0c-0.5,0-1.1,0.1-1.6,0.1c-0.3,0-0.4-0.1-0.4-0.2
					c0-0.1,0.1-0.2,0.4-0.2c0.3,0,0.6,0,0.8-0.1c0.5-0.1,0.6-0.5,0.7-1.2c0.1-0.9,0.1-2.6,0.1-4.6V185.8z"/>
				<path class="st3" d="M528.8,195.7c-0.4-0.2-0.4-0.3-0.4-0.7c0-1.2,0.1-2.5,0.1-2.9c0-0.3,0.1-0.6,0.3-0.6c0.2,0,0.2,0.2,0.2,0.4
					c0,0.3,0.1,0.7,0.2,1.1c0.5,1.6,2.2,2.2,3.6,2.2c2,0,3.1-1.2,3.1-2.8c0-0.9-0.2-1.9-2.2-3.1l-1.3-0.8c-2.7-1.6-3.5-3-3.5-5
					c0-2.7,2.6-4.4,5.7-4.4c1.5,0,2.6,0.2,3.2,0.4c0.2,0.1,0.3,0.1,0.3,0.3c0,0.3-0.1,0.9-0.1,2.6c0,0.5-0.1,0.7-0.3,0.7
					c-0.2,0-0.2-0.1-0.2-0.4c0-0.2-0.1-0.9-0.6-1.4c-0.3-0.4-1.1-1-2.5-1c-1.6,0-3.1,0.8-3.1,2.3c0,1,0.4,1.7,2.4,2.9l0.9,0.5
					c3,1.6,3.9,3.3,3.9,5.3c0,1.6-0.6,2.9-2.3,4.1c-1.1,0.8-2.6,0.9-3.8,0.9C531.2,196.3,529.8,196.1,528.8,195.7z"/>
				<path class="st3" d="M546.2,180.8l-3.4,0.1c-1.3,0-1.8,0.2-2.2,0.7c-0.2,0.3-0.3,0.6-0.4,0.7c-0.1,0.2-0.1,0.3-0.3,0.3
					c-0.2,0-0.2-0.1-0.2-0.4c0-0.4,0.4-2.5,0.5-2.6c0.1-0.3,0.1-0.4,0.3-0.4c0.2,0,0.4,0.2,1,0.3c0.7,0.1,1.5,0.1,2.3,0.1h9.2
					c0.7,0,1.2-0.1,1.5-0.1c0.4-0.1,0.5-0.1,0.6-0.1c0.2,0,0.2,0.1,0.2,0.5c0,0.5-0.1,2.1-0.1,2.6c0,0.2-0.1,0.4-0.2,0.4
					c-0.2,0-0.2-0.1-0.3-0.4l0-0.2c-0.1-0.6-0.6-1.2-2.7-1.3l-2.8-0.1v8.8c0,2,0,3.7,0.1,4.7c0.1,0.6,0.2,1,0.9,1.1
					c0.3,0.1,0.8,0.1,1.2,0.1c0.3,0,0.4,0.1,0.4,0.2c0,0.2-0.2,0.2-0.4,0.2c-1.5,0-3-0.1-3.6-0.1c-0.5,0-2.1,0.1-3,0.1
					c-0.3,0-0.4-0.1-0.4-0.2c0-0.1,0.1-0.2,0.4-0.2c0.3,0,0.6,0,0.8-0.1c0.5-0.1,0.6-0.5,0.7-1.2c0.1-0.9,0.1-2.6,0.1-4.6V180.8z"/>
				<path class="st3" d="M564.4,195.7c-0.4-0.2-0.5-0.3-0.5-0.9c0-1.4,0.1-3,0.1-3.4c0-0.4,0.1-0.7,0.3-0.7c0.2,0,0.3,0.2,0.3,0.4
					c0,0.3,0.1,0.9,0.2,1.3c0.6,1.9,2.1,2.6,3.7,2.6c2.3,0,3.4-1.6,3.4-2.9c0-1.3-0.4-2.4-2.5-4.1l-1.2-0.9c-2.8-2.2-3.8-4-3.8-6.1
					c0-2.8,2.4-4.9,5.9-4.9c1.7,0,2.7,0.3,3.4,0.4c0.2,0.1,0.4,0.1,0.4,0.3c0,0.3-0.1,1.1-0.1,3.1c0,0.6-0.1,0.8-0.3,0.8
					c-0.2,0-0.3-0.2-0.3-0.5c0-0.2-0.1-1-0.7-1.7c-0.4-0.5-1.1-1.3-2.8-1.3c-1.9,0-3.1,1.1-3.1,2.6c0,1.2,0.6,2.1,2.7,3.7l0.7,0.5
					c3.1,2.3,4.2,4.1,4.2,6.5c0,1.5-0.6,3.3-2.4,4.5c-1.3,0.8-2.7,1.1-4.1,1.1C566.7,196.3,565.5,196.2,564.4,195.7z"/>
				<path class="st3" d="M579,185.8c0-3.3,0-3.9,0-4.6c-0.1-0.7-0.3-1-1-1.2c-0.2-0.1-0.6-0.1-0.9-0.1c-0.2,0-0.4-0.1-0.4-0.2
					c0-0.2,0.2-0.2,0.5-0.2c1.2,0,2.6,0.1,3.3,0.1c0.7,0,5.7,0,6.2,0c0.4,0,0.8-0.1,0.9-0.1c0.1,0,0.3-0.1,0.4-0.1
					c0.1,0,0.2,0.1,0.2,0.2c0,0.2-0.1,0.4-0.2,1.4c0,0.2-0.1,1.2-0.1,1.4c0,0.1-0.1,0.4-0.3,0.4c-0.2,0-0.2-0.1-0.2-0.3
					c0-0.2,0-0.5-0.2-0.8c-0.2-0.4-0.4-0.7-1.5-0.8c-0.4-0.1-3.1-0.1-3.5-0.1c-0.1,0-0.2,0.1-0.2,0.2v5.4c0,0.1,0,0.2,0.2,0.2
					c0.5,0,3.4,0,4-0.1c0.5-0.1,0.9-0.1,1.1-0.3c0.2-0.2,0.3-0.3,0.4-0.3c0.1,0,0.2,0.1,0.2,0.2c0,0.1-0.1,0.5-0.2,1.6
					c-0.1,0.4-0.1,1.3-0.1,1.5c0,0.2,0,0.5-0.2,0.5c-0.2,0-0.2-0.1-0.2-0.2c0-0.2,0-0.5-0.1-0.8c-0.1-0.4-0.4-0.8-1.3-0.8
					c-0.4-0.1-3-0.1-3.5-0.1c-0.1,0-0.1,0.1-0.1,0.2v1.7c0,0.7,0,2.6,0,3.2c0.1,1.5,0.7,1.8,3.1,1.8c0.6,0,1.5,0,2.1-0.3
					c0.6-0.3,0.8-0.7,1-1.6c0.1-0.2,0.1-0.3,0.3-0.3c0.2,0,0.2,0.3,0.2,0.5c0,0.5-0.2,2-0.3,2.4c-0.2,0.6-0.4,0.6-1.2,0.6
					c-1.7,0-3.1,0-4.2-0.1c-1.1,0-2-0.1-2.6-0.1c-0.3,0-0.7,0-1.3,0c-0.5,0-1.1,0.1-1.6,0.1c-0.3,0-0.4-0.1-0.4-0.2
					c0-0.1,0.1-0.2,0.4-0.2c0.3,0,0.6,0,0.8-0.1c0.5-0.1,0.6-0.5,0.7-1.2c0.1-0.9,0.1-2.6,0.1-4.6V185.8z"/>
				<path class="st3" d="M592.7,185.8c0-3.3,0-3.9,0-4.6c-0.1-0.7-0.3-1-1-1.2c-0.2-0.1-0.6-0.1-0.9-0.1c-0.2,0-0.4-0.1-0.4-0.2
					c0-0.2,0.2-0.2,0.5-0.2c1.2,0,2.6,0.1,3.1,0.1c0.8,0,2.8-0.1,3.5-0.1c1.4,0,3.1,0.1,4.3,0.9c0.6,0.4,1.6,1.5,1.6,3
					c0,1.6-0.9,3.1-3.1,4.8c2,2.5,3.6,4.4,5,5.8c1.3,1.3,2.1,1.4,2.4,1.4c0.2,0.1,0.4,0.1,0.5,0.1s0.3,0.1,0.3,0.2
					c0,0.2-0.2,0.2-0.4,0.2h-2.2c-1.3,0-1.9-0.1-2.5-0.4c-1-0.5-1.8-1.5-3.1-3.2c-0.9-1.2-1.8-2.6-2.1-3c-0.1-0.1-0.3-0.2-0.4-0.2
					l-2-0.1c-0.1,0-0.2,0.1-0.2,0.2v0.3c0,2,0,3.7,0.1,4.6c0.1,0.6,0.2,1.1,0.9,1.2c0.3,0.1,0.8,0.1,1.1,0.1c0.2,0,0.3,0.1,0.3,0.2
					c0,0.2-0.2,0.2-0.5,0.2c-1.3,0-3.2-0.1-3.5-0.1c-0.4,0-1.9,0.1-2.8,0.1c-0.3,0-0.4-0.1-0.4-0.2c0-0.1,0.1-0.2,0.4-0.2
					c0.3,0,0.6,0,0.8-0.1c0.5-0.1,0.6-0.5,0.7-1.2c0.1-0.9,0.1-2.6,0.1-4.6V185.8z M595.6,187.5c0,0.2,0.1,0.3,0.2,0.4
					c0.5,0.2,1.2,0.2,1.7,0.2c0.9,0,1.2-0.1,1.6-0.4c0.7-0.5,1.5-1.4,1.5-3.2c0-3.1-2.1-3.9-3.4-3.9c-0.6,0-1.1,0-1.3,0.1
					c-0.2,0.1-0.2,0.1-0.2,0.3V187.5z"/>
				<path class="st3" d="M606.8,181.6c-0.5-1.2-0.8-1.4-1.7-1.6c-0.3-0.1-0.7-0.1-0.9-0.1c-0.2,0-0.3-0.1-0.3-0.2
					c0-0.2,0.2-0.2,0.6-0.2c1.2,0,2.5,0.1,3.3,0.1c0.6,0,1.7-0.1,2.9-0.1c0.3,0,0.5,0.1,0.5,0.2c0,0.2-0.2,0.2-0.4,0.2
					c-0.4,0-0.7,0-0.9,0.2c-0.2,0.1-0.2,0.2-0.2,0.4c0,0.3,0.2,0.9,0.5,1.6l3.8,9.8h0.1c1-2.3,3.9-9.3,4.4-10.7
					c0.1-0.3,0.2-0.6,0.2-0.8c0-0.2-0.1-0.3-0.3-0.4c-0.3-0.1-0.6-0.1-0.9-0.1c-0.2,0-0.4-0.1-0.4-0.2c0-0.2,0.2-0.2,0.6-0.2
					c1.1,0,2.1,0.1,2.4,0.1c0.4,0,1.4-0.1,2.1-0.1c0.3,0,0.5,0.1,0.5,0.2c0,0.2-0.1,0.2-0.4,0.2c-0.2,0-0.7,0-1.1,0.3
					c-0.3,0.2-0.6,0.5-1.2,1.9c-0.9,2.1-1.5,3.2-2.7,5.9c-1.4,3.2-2.5,5.6-3,6.7c-0.6,1.3-0.8,1.6-1.1,1.6c-0.3,0-0.5-0.3-0.9-1.3
					L606.8,181.6z"/>
				<path class="st3" d="M624.4,185.8c0-3.3,0-3.9,0-4.6c-0.1-0.7-0.3-1-0.8-1.2c-0.3-0.1-0.5-0.1-0.8-0.1c-0.2,0-0.4-0.1-0.4-0.3
					c0-0.1,0.2-0.2,0.5-0.2c0.8,0,2.4,0.1,3,0.1c0.6,0,2-0.1,2.9-0.1c0.3,0,0.5,0.1,0.5,0.2c0,0.2-0.1,0.3-0.4,0.3
					c-0.2,0-0.4,0-0.7,0.1c-0.6,0.1-0.8,0.4-0.8,1.2c-0.1,0.7-0.1,1.3-0.1,4.6v3.8c0,2.1,0,3.8,0.1,4.8c0.1,0.6,0.2,0.9,0.9,1
					c0.3,0.1,0.8,0.1,1.2,0.1c0.3,0,0.4,0.1,0.4,0.2c0,0.2-0.2,0.2-0.4,0.2c-1.5,0-3-0.1-3.6-0.1c-0.5,0-2.1,0.1-3,0.1
					c-0.3,0-0.4-0.1-0.4-0.2c0-0.1,0.1-0.2,0.4-0.2c0.3,0,0.6,0,0.8-0.1c0.5-0.1,0.6-0.4,0.7-1.1c0.1-0.9,0.1-2.6,0.1-4.7V185.8z"/>
				<path class="st3" d="M633.5,193.9c-2.2-1.9-2.8-4.3-2.8-6.4c0-1.5,0.5-4.1,2.6-6c1.6-1.4,3.8-2.3,7.2-2.3c1.4,0,2.3,0.1,3.3,0.2
					c0.8,0.1,1.6,0.3,2.3,0.4c0.3,0,0.3,0.1,0.3,0.3c0,0.2-0.1,0.4-0.1,1.2c-0.1,0.7-0.1,1.9-0.1,2.4c0,0.3-0.1,0.5-0.3,0.5
					c-0.2,0-0.2-0.2-0.2-0.5c0-0.7-0.3-1.5-0.9-2c-0.8-0.7-2.3-1.3-4.4-1.3c-2,0-3.2,0.4-4.3,1.2c-1.7,1.4-2.1,3.5-2.1,5.7
					c0,5.2,4,7.6,7,7.6c2,0,3.1-0.2,4-1.2c0.4-0.4,0.7-1.1,0.8-1.5c0.1-0.3,0.1-0.4,0.3-0.4c0.2,0,0.3,0.2,0.3,0.4
					c0,0.3-0.3,2.2-0.5,2.9c-0.1,0.4-0.2,0.5-0.6,0.6c-0.9,0.4-2.6,0.5-4.1,0.5C638.2,196.3,635.5,195.6,633.5,193.9z"/>
				<path class="st3" d="M650.4,185.8c0-3.3,0-3.9,0-4.6c-0.1-0.7-0.3-1-1-1.2c-0.2-0.1-0.6-0.1-0.9-0.1c-0.2,0-0.4-0.1-0.4-0.2
					c0-0.2,0.2-0.2,0.5-0.2c1.2,0,2.6,0.1,3.3,0.1c0.7,0,5.7,0,6.2,0c0.4,0,0.8-0.1,0.9-0.1c0.1,0,0.3-0.1,0.4-0.1
					c0.1,0,0.2,0.1,0.2,0.2c0,0.2-0.1,0.4-0.2,1.4c0,0.2-0.1,1.2-0.1,1.4c0,0.1-0.1,0.4-0.3,0.4c-0.2,0-0.2-0.1-0.2-0.3
					c0-0.2,0-0.5-0.2-0.8c-0.2-0.4-0.4-0.7-1.5-0.8c-0.4-0.1-3.1-0.1-3.5-0.1c-0.1,0-0.2,0.1-0.2,0.2v5.4c0,0.1,0,0.2,0.2,0.2
					c0.5,0,3.4,0,4-0.1c0.5-0.1,0.9-0.1,1.1-0.3c0.2-0.2,0.3-0.3,0.4-0.3c0.1,0,0.2,0.1,0.2,0.2c0,0.1-0.1,0.5-0.2,1.6
					c-0.1,0.4-0.1,1.3-0.1,1.5c0,0.2,0,0.5-0.2,0.5c-0.2,0-0.2-0.1-0.2-0.2c0-0.2,0-0.5-0.1-0.8c-0.1-0.4-0.4-0.8-1.3-0.8
					c-0.4-0.1-3-0.1-3.5-0.1c-0.1,0-0.1,0.1-0.1,0.2v1.7c0,0.7,0,2.6,0,3.2c0.1,1.5,0.7,1.8,3.1,1.8c0.6,0,1.5,0,2.1-0.3
					c0.6-0.3,0.8-0.7,1-1.6c0.1-0.2,0.1-0.3,0.3-0.3c0.2,0,0.2,0.3,0.2,0.5c0,0.5-0.2,2-0.3,2.4c-0.2,0.6-0.4,0.6-1.2,0.6
					c-1.7,0-3.1,0-4.2-0.1c-1.1,0-2-0.1-2.6-0.1c-0.3,0-0.7,0-1.3,0c-0.5,0-1.1,0.1-1.6,0.1c-0.3,0-0.4-0.1-0.4-0.2
					c0-0.1,0.1-0.2,0.4-0.2c0.3,0,0.6,0,0.8-0.1c0.5-0.1,0.6-0.5,0.7-1.2c0.1-0.9,0.1-2.6,0.1-4.6V185.8z"/>
			</g>
			<rect x="459.1" y="171.8" class="st3" width="204.1" height="0.8"/>
		</g>
		<g>
			<g>
				<g>
					<polygon class="st0" points="917.1,53.1 865.9,53.1 850.1,4.3 834.2,53.1 783,53.1 824.4,83.2 808.6,131.9 842.1,107.6 
						829.8,98.6 850.1,36.3 870.3,98.6 858,107.6 891.5,131.9 875.7,83.2 					"/>
				</g>
				<g>
					<polygon class="st1" points="850.1,47.9 834,97.3 846.5,106.3 846.5,120.2 850.1,120.2 850.1,120.2 					"/>
				</g>
			</g>
			<g>
				<g>
					<path class="st2" d="M755.1,147.2l-5.1,0.1c-2,0.1-2.8,0.2-3.3,1c-0.3,0.5-0.5,0.9-0.6,1.2c-0.1,0.3-0.2,0.4-0.4,0.4
						c-0.2,0-0.3-0.2-0.3-0.5c0-0.5,0.7-3.7,0.7-3.9c0.1-0.4,0.2-0.6,0.4-0.6c0.3,0,0.6,0.3,1.5,0.4c1,0.1,2.3,0.2,3.4,0.2H765
						c1.1,0,1.8-0.1,2.4-0.2c0.5-0.1,0.8-0.2,0.9-0.2c0.2,0,0.3,0.2,0.3,0.7c0,0.7-0.1,3.1-0.1,4c0,0.3-0.1,0.5-0.3,0.5
						c-0.3,0-0.3-0.2-0.4-0.7l0-0.4c-0.1-0.9-1-1.8-4-1.9l-4.3-0.1v14c0,3.2,0,5.9,0.2,7.3c0.1,1,0.3,1.7,1.3,1.8
						c0.5,0.1,1.2,0.1,1.7,0.1c0.4,0,0.5,0.1,0.5,0.3c0,0.2-0.3,0.3-0.7,0.3c-2.3,0-4.4-0.1-5.4-0.1c-0.8,0-2.9,0.1-4.3,0.1
						c-0.4,0-0.7-0.1-0.7-0.3c0-0.2,0.1-0.3,0.5-0.3c0.5,0,0.9-0.1,1.2-0.1c0.7-0.1,0.9-0.9,1-1.9c0.2-1.4,0.2-4.1,0.2-7.3V147.2z"
						/>
					<path class="st2" d="M773.8,157.6c0-4.4,0-5.2,0-6.2c-0.1-1-0.3-1.3-1.3-1.6c-0.2-0.1-0.8-0.1-1.2-0.1c-0.3,0-0.5-0.1-0.5-0.3
						s0.2-0.3,0.7-0.3c1.6,0,3.5,0.1,4.3,0.1c1,0,7.6,0,8.2,0c0.5,0,1-0.1,1.3-0.2c0.2,0,0.3-0.1,0.5-0.1c0.2,0,0.2,0.1,0.2,0.3
						c0,0.2-0.2,0.5-0.2,1.9c0,0.3-0.1,1.6-0.2,1.9c0,0.1-0.1,0.5-0.3,0.5c-0.2,0-0.2-0.1-0.2-0.4c0-0.2,0-0.7-0.2-1.1
						c-0.2-0.5-0.5-0.9-2-1.1c-0.5-0.1-4.1-0.1-4.7-0.1c-0.1,0-0.2,0.1-0.2,0.3v7.2c0,0.2,0,0.3,0.2,0.3c0.7,0,4.6,0,5.3-0.1
						c0.7-0.1,1.2-0.1,1.4-0.4c0.2-0.2,0.3-0.4,0.5-0.4c0.1,0,0.2,0.1,0.2,0.3c0,0.2-0.1,0.6-0.2,2.1c-0.1,0.6-0.1,1.7-0.1,2
						c0,0.2,0,0.6-0.3,0.6c-0.2,0-0.3-0.1-0.3-0.2c0-0.3,0-0.7-0.1-1.1c-0.2-0.6-0.5-1-1.7-1.1c-0.5-0.1-4-0.1-4.7-0.1
						c-0.1,0-0.2,0.1-0.2,0.3v2.3c0,1,0,3.5,0,4.3c0.1,2,1,2.4,4.1,2.4c0.8,0,2.1,0,2.8-0.4c0.8-0.3,1.1-1,1.3-2.2
						c0.1-0.3,0.1-0.4,0.3-0.4c0.2,0,0.3,0.4,0.3,0.7c0,0.7-0.2,2.6-0.4,3.2c-0.2,0.8-0.5,0.8-1.6,0.8c-2.3,0-4.1,0-5.5-0.1
						c-1.5,0-2.6-0.1-3.5-0.1c-0.3,0-1,0-1.7,0c-0.7,0-1.5,0.1-2.1,0.1c-0.4,0-0.6-0.1-0.6-0.3c0-0.1,0.1-0.3,0.5-0.3
						c0.4,0,0.8,0,1.1-0.1c0.6-0.1,0.8-0.7,0.9-1.5c0.1-1.2,0.1-3.5,0.1-6.2V157.6z"/>
					<path class="st2" d="M801.8,158.9c1,1.4,6,9.3,6.7,10.3c0.5,0.7,1,1,1.6,1.2c0.4,0.1,0.9,0.2,1.2,0.2c0.2,0,0.4,0.1,0.4,0.3
						c0,0.2-0.2,0.3-0.6,0.3h-0.9c-0.7,0-3.1,0-5.6-0.1c-0.8,0-1.1-0.1-1.1-0.3c0-0.2,0.1-0.3,0.4-0.4c0.1,0,0.3-0.2,0.1-0.6
						c-1.7-2.8-3.4-5.6-4.8-7.8l-4.4,6.9c-0.3,0.5-0.5,0.9-0.4,1.2c0,0.3,0.3,0.4,0.6,0.4c0.2,0,0.4,0,0.7,0c0.2,0,0.4,0.2,0.4,0.3
						c0,0.2-0.2,0.3-0.6,0.3h-0.5c-0.2,0-2.2-0.1-2.9-0.1c-0.6,0-2.1,0.1-2.5,0.1H789c-0.3,0-0.4-0.1-0.4-0.3c0-0.2,0.2-0.3,0.4-0.3
						c0.2,0,0.7,0,1.1-0.1c0.9-0.2,1.4-0.7,2.4-2.1l5.9-7.9l-5.3-8.3c-0.8-1.2-1.4-1.8-2.4-2.1c-0.5-0.1-1-0.2-1.3-0.2
						c-0.2,0-0.3-0.1-0.3-0.3c0-0.2,0.2-0.2,0.6-0.2c0.7,0,3.2,0.1,4.6,0.1c0.4,0,2.3-0.1,3.4-0.1c0.4,0,0.6,0.1,0.6,0.3
						s-0.2,0.3-0.5,0.3c-0.2,0-0.5,0-0.7,0.1c-0.3,0.1-0.4,0.2-0.4,0.4s0.1,0.5,0.3,0.9c1.3,2.3,2.6,4.3,3.8,6.3
						c0.9-1.3,3.6-5.2,4.1-6.1c0.2-0.4,0.3-0.8,0.3-1.1c0-0.2-0.2-0.4-0.5-0.5c-0.3-0.1-0.7-0.1-1-0.1c-0.2,0-0.4-0.1-0.4-0.3
						s0.2-0.3,0.6-0.3c1.2,0,2.6,0.1,3.2,0.1c0.6,0,1.8-0.1,2.9-0.1c0.3,0,0.5,0.1,0.5,0.3c0,0.2-0.2,0.3-0.5,0.3
						c-0.3,0-0.7,0.1-1.1,0.2c-0.7,0.2-1.2,1-2.2,2.2L801.8,158.9z"/>
					<path class="st2" d="M816.4,163.8c-0.2,0-0.2,0-0.3,0.2l-1.6,3.9c-0.3,0.7-0.4,1.4-0.4,1.8c0,0.5,0.3,0.8,1.2,0.8h0.4
						c0.4,0,0.4,0.1,0.4,0.3c0,0.2-0.2,0.3-0.5,0.3c-1,0-2.4-0.1-3.4-0.1c-0.3,0-1.9,0.1-3.5,0.1c-0.4,0-0.5-0.1-0.5-0.3
						c0-0.2,0.1-0.3,0.3-0.3c0.3,0,0.6,0,0.9,0c1.4-0.2,1.9-1.1,2.5-2.6l7.9-18.3c0.3-0.8,0.6-1.2,0.9-1.2c0.4,0,0.6,0.3,0.9,0.9
						c0.7,1.6,5.8,13.5,7.7,17.9c1.2,2.6,2,3,2.6,3.1c0.4,0.1,0.8,0.1,1.1,0.1c0.3,0,0.4,0.1,0.4,0.3c0,0.2-0.2,0.3-1.3,0.3
						c-1.1,0-3.3,0-5.8-0.1c-0.5,0-0.9,0-0.9-0.2c0-0.2,0.1-0.3,0.4-0.3c0.2,0,0.4-0.3,0.3-0.7l-2.3-5.9c-0.1-0.2-0.2-0.2-0.3-0.2
						H816.4z M822.9,162.2c0.1,0,0.2-0.1,0.1-0.2l-2.8-7.4c0-0.1-0.1-0.3-0.1-0.3c-0.1,0-0.1,0.2-0.2,0.3L817,162
						c-0.1,0.1,0,0.2,0.1,0.2H822.9z"/>
					<path class="st2" d="M834.8,170.8c-0.5-0.2-0.6-0.3-0.6-1c0-1.6,0.1-3.4,0.2-3.9c0-0.4,0.1-0.8,0.4-0.8c0.3,0,0.3,0.3,0.3,0.5
						c0,0.4,0.1,1,0.3,1.5c0.7,2.2,2.9,2.9,4.8,2.9c2.6,0,4.2-1.6,4.2-3.7c0-1.3-0.3-2.5-3-4.1l-1.7-1c-3.6-2.1-4.7-4-4.7-6.6
						c0-3.6,3.4-5.9,7.6-5.9c2,0,3.5,0.3,4.3,0.5c0.3,0.1,0.4,0.2,0.4,0.4c0,0.4-0.1,1.2-0.1,3.5c0,0.6-0.1,0.9-0.4,0.9
						c-0.2,0-0.3-0.2-0.3-0.5c0-0.3-0.1-1.2-0.8-1.9c-0.4-0.5-1.4-1.4-3.4-1.4c-2.2,0-4.1,1.1-4.1,3.1c0,1.3,0.5,2.3,3.2,3.8
						l1.2,0.7c4,2.2,5.2,4.4,5.2,7.1c0,2.2-0.8,3.9-3,5.4c-1.4,1-3.4,1.2-5,1.2C837.9,171.5,836.1,171.4,834.8,170.8z"/>
					<path class="st2" d="M867.3,162.2c-0.2,0-0.2,0.1-0.3,0.3l-1.8,4.9c-0.3,0.9-0.5,1.7-0.5,2.1c0,0.6,0.3,1.1,1.4,1.1h0.5
						c0.4,0,0.5,0.1,0.5,0.3c0,0.3-0.2,0.3-0.6,0.3c-1.1,0-2.6-0.1-3.6-0.1c-0.4,0-2.3,0.1-4,0.1c-0.4,0-0.7-0.1-0.7-0.3
						c0-0.2,0.1-0.3,0.4-0.3c0.3,0,0.8,0,1.1-0.1c1.6-0.2,2.2-1.4,2.9-3.1l8.6-21.5c0.4-1,0.6-1.4,1-1.4c0.3,0,0.5,0.3,0.9,1.1
						c0.8,1.9,6.3,15.9,8.5,21.1c1.3,3.1,2.3,3.6,3,3.7c0.5,0.1,1,0.1,1.4,0.1c0.3,0,0.4,0,0.4,0.3c0,0.3-0.3,0.3-1.6,0.3
						c-1.2,0-3.7,0-6.5-0.1c-0.6,0-1,0-1-0.3c0-0.2,0.1-0.3,0.5-0.3c0.2-0.1,0.5-0.4,0.3-0.8l-2.7-7.3c-0.1-0.2-0.2-0.2-0.3-0.2
						H867.3z M874.2,160.5c0.2,0,0.2-0.1,0.2-0.2l-3.1-8.5c0-0.1-0.1-0.3-0.2-0.3c-0.1,0-0.2,0.2-0.2,0.3l-3.2,8.4
						c0,0.1,0,0.2,0.1,0.2H874.2z"/>
					<path class="st2" d="M891.8,156c-1.4-1.9-1.7-3.3-1.7-4.9c0-2.7,2.4-6.3,8.3-6.3c1.7,0,3.2,0.3,4.1,0.7
						c0.6,0.2,0.6,0.5,0.6,0.9c0,1.1-0.3,3.9-0.4,4.4c-0.1,0.5-0.2,0.6-0.4,0.6c-0.2,0-0.2-0.1-0.2-0.7c0-0.9-0.2-2-1-2.9
						c-0.7-0.8-1.9-1.5-3.8-1.5c-1.4,0-3.7,1-3.7,3.9c0,3.2,2.9,6,5.7,9c1.2,1.3,5.4,5.1,6,5.7c0.7-1,1.6-3.2,1.6-5.3
						c0-0.5-0.1-1.1-0.7-1.6c-0.4-0.4-1.2-0.5-1.7-0.5c-0.2,0-0.4-0.1-0.4-0.3c0-0.3,0.3-0.3,0.5-0.3c0.8,0,2.2,0,4.1,0.2
						c0.7,0.1,1.2,0.3,1.2,0.7c0,2.6-1.4,5.8-3.4,8.1c2.3,1.9,3.8,2.8,4.8,3.4c1.1,0.7,3,1.2,3.7,1.2c0.3,0,0.5,0,0.5,0.3
						c0,0.2-0.3,0.3-1,0.3H912c-3.9,0-5.1-0.4-8.1-2.6c-1.1,1-3.4,3.1-8.1,3.1c-7.3,0-9.5-4.6-9.5-7.6
						C886.2,160.1,889.8,157,891.8,156z M902.5,167.4c-2-1.7-5.3-4.9-6.2-5.9c-0.9-1-3.1-3.4-3.7-4.3c-1.2,0.9-2.4,2.5-2.4,5.2
						c0,4.3,3,7,6.6,7C899.6,169.5,901.8,168.1,902.5,167.4z"/>
					<path class="st2" d="M919.6,145.4c0.1-0.6,0.3-0.9,0.6-0.9c0.3,0,0.5,0.2,0.9,1.1l9.3,19.3l9.3-19.6c0.3-0.5,0.4-0.8,0.8-0.8
						c0.3,0,0.5,0.3,0.6,1.1l3.1,21.2c0.3,2.2,0.7,3.2,1.7,3.5c1,0.3,1.7,0.3,2.1,0.3c0.3,0,0.5,0,0.5,0.2c0,0.3-0.4,0.4-0.9,0.4
						c-0.9,0-5.6-0.1-7-0.2c-0.8-0.1-1-0.2-1-0.4c0-0.2,0.1-0.3,0.4-0.4c0.2-0.1,0.3-0.5,0.2-1.5l-2.1-15.1h-0.1l-7.5,15.5
						c-0.8,1.6-1,1.9-1.3,1.9c-0.3,0-0.7-0.7-1.2-1.7c-0.8-1.6-3.5-6.8-3.9-7.8c-0.3-0.7-2.4-5-3.6-7.6h-0.1l-1.8,13.6
						c-0.1,0.6-0.1,1.1-0.1,1.6c0,0.6,0.4,1,1,1.1c0.6,0.1,1.1,0.2,1.4,0.2c0.3,0,0.5,0.1,0.5,0.2c0,0.3-0.3,0.4-0.8,0.4
						c-1.4,0-3-0.1-3.6-0.1c-0.7,0-2.3,0.1-3.4,0.1c-0.3,0-0.6-0.1-0.6-0.4c0-0.2,0.2-0.2,0.5-0.2c0.3,0,0.5,0,1-0.1
						c1-0.2,1.2-1.5,1.4-2.7L919.6,145.4z"/>
				</g>
				<g>
					<path class="st3" d="M755.2,192.6c0,2.5,0,4.4,0.1,5.5c0.1,0.7,0.2,1.3,1,1.4c0.4,0.1,0.9,0.1,1.3,0.1c0.3,0,0.4,0.1,0.4,0.2
						c0,0.2-0.2,0.3-0.6,0.3c-1.6,0-3.2-0.1-3.9-0.1c-0.7,0-2.3,0.1-3.3,0.1c-0.4,0-0.5-0.1-0.5-0.3c0-0.1,0.1-0.2,0.4-0.2
						c0.4,0,0.7-0.1,0.9-0.1c0.5-0.1,0.6-0.7,0.7-1.4c0.1-1.1,0.1-3,0.1-5.5v-4.5c0-3.9,0-4.6-0.1-5.4c-0.1-0.9-0.3-1.3-1.1-1.5
						c-0.2-0.1-0.6-0.1-1-0.1c-0.3,0-0.4-0.1-0.4-0.2c0-0.2,0.2-0.3,0.6-0.3c0.7,0,1.4,0,2.1,0c0.7,0,1.3,0.1,1.6,0.1
						c1,0,6.2,0,6.8,0c0.5,0,0.8,0,1.1-0.1c0.2-0.1,0.3-0.2,0.4-0.2c0.1,0,0.2,0.1,0.2,0.2c0,0.2-0.1,0.5-0.2,1.2
						c0,0.3-0.1,1.8-0.1,2.1c0,0.2-0.1,0.4-0.3,0.4c-0.2,0-0.2-0.1-0.3-0.4c0-0.2,0-0.6-0.2-1c-0.2-0.4-0.7-0.7-1.7-0.8l-4-0.1
						c-0.2,0-0.2,0.1-0.2,0.4v6.4c0,0.2,0,0.2,0.2,0.2l3.3,0c0.4,0,0.8,0,1.2,0c0.5,0,0.8-0.1,1.1-0.5c0.1-0.2,0.2-0.3,0.3-0.3
						c0.1,0,0.2,0.1,0.2,0.2c0,0.2-0.1,0.8-0.2,1.6c-0.1,0.5-0.1,1.7-0.1,1.9c0,0.2,0,0.5-0.3,0.5c-0.2,0-0.2-0.2-0.2-0.4
						c0-0.2-0.1-0.5-0.2-0.8c-0.1-0.4-0.5-0.8-1.3-0.9c-0.6-0.1-3.4-0.1-3.8-0.1c-0.1,0-0.2,0.1-0.2,0.2V192.6z"/>
					<path class="st3" d="M763.9,191.8c0-3.7,2.6-8.5,9.5-8.5c5.7,0,9.2,3.2,9.2,8.2c0,5-3.6,8.9-9.5,8.9
						C766.6,200.4,763.9,195.7,763.9,191.8z M779.3,192.2c0-4.8-2.9-7.8-6.5-7.8c-2.5,0-5.5,1.3-5.5,6.7c0,4.5,2.6,8,6.8,8
						C775.7,199.2,779.3,198.4,779.3,192.2z"/>
					<path class="st3" d="M785.7,189.9c0-3.3,0-3.9,0-4.6c-0.1-0.7-0.3-1-1-1.2c-0.2-0.1-0.6-0.1-0.9-0.1c-0.2,0-0.4-0.1-0.4-0.2
						c0-0.2,0.2-0.2,0.5-0.2c1.2,0,2.6,0.1,3.1,0.1c0.8,0,2.8-0.1,3.5-0.1c1.4,0,3.1,0.1,4.3,0.9c0.6,0.4,1.6,1.5,1.6,3
						c0,1.6-0.9,3.1-3.1,4.8c2,2.5,3.6,4.4,5,5.8c1.3,1.3,2.1,1.4,2.4,1.4c0.2,0.1,0.4,0.1,0.5,0.1c0.2,0,0.3,0.1,0.3,0.2
						c0,0.2-0.2,0.2-0.4,0.2h-2.2c-1.3,0-1.9-0.1-2.5-0.4c-1-0.5-1.8-1.5-3.1-3.2c-0.9-1.2-1.8-2.6-2.1-3c-0.1-0.1-0.3-0.2-0.4-0.2
						l-2-0.1c-0.1,0-0.2,0.1-0.2,0.2v0.3c0,2,0,3.7,0.1,4.6c0.1,0.6,0.2,1.1,0.9,1.2c0.3,0.1,0.8,0.1,1.1,0.1c0.2,0,0.3,0.1,0.3,0.2
						c0,0.2-0.2,0.2-0.5,0.2c-1.3,0-3.2-0.1-3.5-0.1c-0.4,0-1.9,0.1-2.8,0.1c-0.3,0-0.4-0.1-0.4-0.2c0-0.1,0.1-0.2,0.4-0.2
						c0.3,0,0.6,0,0.8-0.1c0.5-0.1,0.6-0.5,0.7-1.2c0.1-0.9,0.1-2.6,0.1-4.6V189.9z M788.6,191.6c0,0.2,0.1,0.3,0.2,0.4
						c0.5,0.2,1.2,0.2,1.7,0.2c0.9,0,1.2-0.1,1.6-0.4c0.7-0.5,1.5-1.4,1.5-3.2c0-3.1-2.1-3.9-3.4-3.9c-0.6,0-1.1,0-1.3,0.1
						c-0.2,0.1-0.2,0.1-0.2,0.3V191.6z"/>
					<path class="st3" d="M802.5,189.9c0-3.3,0-3.9,0-4.6c-0.1-0.7-0.3-1-1-1.2c-0.2-0.1-0.6-0.1-0.9-0.1c-0.2,0-0.4-0.1-0.4-0.2
						c0-0.2,0.2-0.2,0.5-0.2c1.2,0,2.6,0.1,3.3,0.1c0.7,0,5.7,0,6.2,0c0.4,0,0.8-0.1,0.9-0.1c0.1,0,0.3-0.1,0.4-0.1
						c0.1,0,0.2,0.1,0.2,0.2c0,0.2-0.1,0.4-0.2,1.4c0,0.2-0.1,1.2-0.1,1.4c0,0.1-0.1,0.4-0.3,0.4c-0.2,0-0.2-0.1-0.2-0.3
						c0-0.2,0-0.5-0.2-0.8c-0.2-0.4-0.4-0.7-1.5-0.8c-0.4-0.1-3.1-0.1-3.5-0.1c-0.1,0-0.2,0.1-0.2,0.2v5.4c0,0.1,0,0.2,0.2,0.2
						c0.5,0,3.4,0,4-0.1c0.5-0.1,0.9-0.1,1.1-0.3c0.2-0.2,0.3-0.3,0.4-0.3c0.1,0,0.2,0.1,0.2,0.2c0,0.1-0.1,0.5-0.2,1.6
						c-0.1,0.4-0.1,1.3-0.1,1.5c0,0.2,0,0.5-0.2,0.5c-0.2,0-0.2-0.1-0.2-0.2c0-0.2,0-0.5-0.1-0.8c-0.1-0.4-0.4-0.8-1.3-0.8
						c-0.4-0.1-3-0.1-3.5-0.1c-0.1,0-0.1,0.1-0.1,0.2v1.7c0,0.7,0,2.6,0,3.2c0.1,1.5,0.7,1.8,3.1,1.8c0.6,0,1.5,0,2.1-0.3
						c0.6-0.3,0.8-0.7,1-1.6c0.1-0.2,0.1-0.3,0.3-0.3c0.2,0,0.2,0.3,0.2,0.5c0,0.5-0.2,2-0.3,2.4c-0.2,0.6-0.4,0.6-1.2,0.6
						c-1.7,0-3.1,0-4.2-0.1c-1.1,0-1.9-0.1-2.6-0.1c-0.3,0-0.7,0-1.3,0c-0.5,0-1.1,0.1-1.6,0.1c-0.3,0-0.4-0.1-0.4-0.2
						c0-0.1,0.1-0.2,0.4-0.2c0.3,0,0.6,0,0.8-0.1c0.5-0.1,0.6-0.5,0.7-1.2c0.1-0.9,0.1-2.6,0.1-4.6V189.9z"/>
					<path class="st3" d="M815,199.8c-0.4-0.2-0.4-0.3-0.4-0.7c0-1.2,0.1-2.5,0.1-2.9c0-0.3,0.1-0.6,0.3-0.6c0.2,0,0.2,0.2,0.2,0.4
						c0,0.3,0.1,0.7,0.2,1.1c0.5,1.6,2.2,2.2,3.6,2.2c2,0,3.1-1.2,3.1-2.8c0-0.9-0.2-1.9-2.2-3.1l-1.3-0.8c-2.7-1.6-3.5-3-3.5-5
						c0-2.7,2.6-4.4,5.7-4.4c1.5,0,2.6,0.2,3.2,0.4c0.2,0.1,0.3,0.1,0.3,0.3c0,0.3-0.1,0.9-0.1,2.6c0,0.5-0.1,0.7-0.3,0.7
						c-0.2,0-0.2-0.1-0.2-0.4c0-0.2-0.1-0.9-0.6-1.4c-0.3-0.4-1.1-1-2.5-1c-1.6,0-3.1,0.8-3.1,2.3c0,1,0.4,1.7,2.4,2.9l0.9,0.5
						c3,1.6,3.9,3.3,3.9,5.3c0,1.6-0.6,2.9-2.3,4.1c-1.1,0.8-2.6,0.9-3.8,0.9C817.4,200.4,816,200.2,815,199.8z"/>
					<path class="st3" d="M832.4,184.9L829,185c-1.3,0-1.8,0.2-2.2,0.7c-0.2,0.3-0.3,0.6-0.4,0.7c-0.1,0.2-0.1,0.3-0.3,0.3
						c-0.2,0-0.2-0.1-0.2-0.4c0-0.4,0.4-2.5,0.5-2.6c0.1-0.3,0.1-0.4,0.3-0.4c0.2,0,0.4,0.2,1,0.3c0.7,0.1,1.5,0.1,2.3,0.1h9.2
						c0.7,0,1.2-0.1,1.5-0.1c0.4-0.1,0.5-0.1,0.6-0.1c0.2,0,0.2,0.1,0.2,0.5c0,0.5-0.1,2.1-0.1,2.6c0,0.2-0.1,0.4-0.2,0.4
						c-0.2,0-0.2-0.1-0.3-0.4l0-0.2c-0.1-0.6-0.6-1.2-2.7-1.3l-2.8-0.1v8.8c0,2,0,3.7,0.1,4.7c0.1,0.6,0.2,1,0.9,1.1
						c0.3,0.1,0.8,0.1,1.2,0.1c0.3,0,0.4,0.1,0.4,0.2c0,0.2-0.2,0.2-0.4,0.2c-1.5,0-3-0.1-3.6-0.1c-0.5,0-2.1,0.1-3,0.1
						c-0.3,0-0.4-0.1-0.4-0.2c0-0.1,0.1-0.2,0.4-0.2c0.3,0,0.6,0,0.8-0.1c0.5-0.1,0.6-0.5,0.7-1.2c0.1-0.9,0.1-2.6,0.1-4.6V184.9z"
						/>
					<path class="st3" d="M850.6,199.8c-0.4-0.2-0.5-0.3-0.5-0.9c0-1.4,0.1-3,0.1-3.4c0-0.4,0.1-0.7,0.3-0.7c0.2,0,0.3,0.2,0.3,0.4
						c0,0.3,0.1,0.9,0.2,1.3c0.6,1.9,2.1,2.6,3.7,2.6c2.3,0,3.4-1.6,3.4-2.9c0-1.3-0.4-2.4-2.5-4.1l-1.2-0.9c-2.8-2.2-3.8-4-3.8-6.1
						c0-2.8,2.4-4.9,5.9-4.9c1.7,0,2.7,0.3,3.4,0.4c0.2,0.1,0.4,0.1,0.4,0.3c0,0.3-0.1,1.1-0.1,3.1c0,0.6-0.1,0.8-0.3,0.8
						c-0.2,0-0.3-0.2-0.3-0.5c0-0.2-0.1-1-0.7-1.7c-0.4-0.5-1.1-1.3-2.8-1.3c-1.9,0-3.1,1.1-3.1,2.6c0,1.2,0.6,2.1,2.7,3.7l0.7,0.5
						c3.1,2.3,4.2,4.1,4.2,6.5c0,1.5-0.6,3.3-2.4,4.5c-1.3,0.8-2.7,1.1-4.1,1.1C852.9,200.4,851.7,200.2,850.6,199.8z"/>
					<path class="st3" d="M865.2,189.9c0-3.3,0-3.9,0-4.6c-0.1-0.7-0.3-1-1-1.2c-0.2-0.1-0.6-0.1-0.9-0.1c-0.2,0-0.4-0.1-0.4-0.2
						c0-0.2,0.2-0.2,0.5-0.2c1.2,0,2.6,0.1,3.3,0.1c0.7,0,5.7,0,6.2,0c0.4,0,0.8-0.1,0.9-0.1c0.1,0,0.3-0.1,0.4-0.1
						c0.1,0,0.2,0.1,0.2,0.2c0,0.2-0.1,0.4-0.2,1.4c0,0.2-0.1,1.2-0.1,1.4c0,0.1-0.1,0.4-0.3,0.4c-0.2,0-0.2-0.1-0.2-0.3
						c0-0.2,0-0.5-0.2-0.8c-0.2-0.4-0.4-0.7-1.5-0.8c-0.4-0.1-3.1-0.1-3.5-0.1c-0.1,0-0.2,0.1-0.2,0.2v5.4c0,0.1,0,0.2,0.2,0.2
						c0.5,0,3.4,0,4-0.1c0.5-0.1,0.9-0.1,1.1-0.3c0.2-0.2,0.3-0.3,0.4-0.3c0.1,0,0.2,0.1,0.2,0.2c0,0.1-0.1,0.5-0.2,1.6
						c-0.1,0.4-0.1,1.3-0.1,1.5c0,0.2,0,0.5-0.2,0.5c-0.2,0-0.2-0.1-0.2-0.2c0-0.2,0-0.5-0.1-0.8c-0.1-0.4-0.4-0.8-1.3-0.8
						c-0.4-0.1-3-0.1-3.5-0.1c-0.1,0-0.1,0.1-0.1,0.2v1.7c0,0.7,0,2.6,0,3.2c0.1,1.5,0.7,1.8,3.1,1.8c0.6,0,1.5,0,2.1-0.3
						c0.6-0.3,0.8-0.7,1-1.6c0.1-0.2,0.1-0.3,0.3-0.3c0.2,0,0.2,0.3,0.2,0.5c0,0.5-0.2,2-0.3,2.4c-0.2,0.6-0.4,0.6-1.2,0.6
						c-1.7,0-3.1,0-4.2-0.1c-1.1,0-2-0.1-2.6-0.1c-0.3,0-0.7,0-1.3,0c-0.5,0-1.1,0.1-1.6,0.1c-0.3,0-0.4-0.1-0.4-0.2
						c0-0.1,0.1-0.2,0.4-0.2c0.3,0,0.6,0,0.8-0.1c0.5-0.1,0.6-0.5,0.7-1.2c0.1-0.9,0.1-2.6,0.1-4.6V189.9z"/>
					<path class="st3" d="M878.9,189.9c0-3.3,0-3.9,0-4.6c-0.1-0.7-0.3-1-1-1.2c-0.2-0.1-0.6-0.1-0.9-0.1c-0.2,0-0.4-0.1-0.4-0.2
						c0-0.2,0.2-0.2,0.5-0.2c1.2,0,2.6,0.1,3.1,0.1c0.8,0,2.8-0.1,3.5-0.1c1.4,0,3.1,0.1,4.3,0.9c0.6,0.4,1.6,1.5,1.6,3
						c0,1.6-0.9,3.1-3.1,4.8c2,2.5,3.6,4.4,5,5.8c1.3,1.3,2.1,1.4,2.4,1.4c0.2,0.1,0.4,0.1,0.5,0.1c0.2,0,0.3,0.1,0.3,0.2
						c0,0.2-0.2,0.2-0.4,0.2h-2.2c-1.3,0-1.9-0.1-2.5-0.4c-1-0.5-1.8-1.5-3.1-3.2c-0.9-1.2-1.8-2.6-2.1-3c-0.1-0.1-0.3-0.2-0.4-0.2
						l-2-0.1c-0.1,0-0.2,0.1-0.2,0.2v0.3c0,2,0,3.7,0.1,4.6c0.1,0.6,0.2,1.1,0.9,1.2c0.3,0.1,0.8,0.1,1.1,0.1c0.2,0,0.3,0.1,0.3,0.2
						c0,0.2-0.2,0.2-0.5,0.2c-1.3,0-3.2-0.1-3.5-0.1c-0.4,0-1.9,0.1-2.8,0.1c-0.3,0-0.4-0.1-0.4-0.2c0-0.1,0.1-0.2,0.4-0.2
						c0.3,0,0.6,0,0.8-0.1c0.5-0.1,0.6-0.5,0.7-1.2c0.1-0.9,0.1-2.6,0.1-4.6V189.9z M881.8,191.6c0,0.2,0.1,0.3,0.2,0.4
						c0.5,0.2,1.2,0.2,1.7,0.2c0.9,0,1.2-0.1,1.6-0.4c0.7-0.5,1.5-1.4,1.5-3.2c0-3.1-2.1-3.9-3.4-3.9c-0.6,0-1.1,0-1.3,0.1
						c-0.2,0.1-0.2,0.1-0.2,0.3V191.6z"/>
					<path class="st3" d="M893,185.7c-0.5-1.2-0.8-1.4-1.7-1.6c-0.3-0.1-0.7-0.1-0.9-0.1c-0.2,0-0.3-0.1-0.3-0.2
						c0-0.2,0.2-0.2,0.6-0.2c1.2,0,2.5,0.1,3.3,0.1c0.6,0,1.7-0.1,2.9-0.1c0.3,0,0.5,0.1,0.5,0.2c0,0.2-0.2,0.2-0.4,0.2
						c-0.4,0-0.7,0-0.9,0.2c-0.2,0.1-0.2,0.2-0.2,0.4c0,0.3,0.2,0.9,0.5,1.6l3.8,9.8h0.1c1-2.3,3.9-9.3,4.4-10.7
						c0.1-0.3,0.2-0.6,0.2-0.8c0-0.2-0.1-0.3-0.3-0.4c-0.3-0.1-0.6-0.1-0.9-0.1c-0.2,0-0.4-0.1-0.4-0.2c0-0.2,0.2-0.2,0.6-0.2
						c1.1,0,2.1,0.1,2.4,0.1c0.4,0,1.4-0.1,2.1-0.1c0.3,0,0.5,0.1,0.5,0.2c0,0.2-0.1,0.2-0.4,0.2c-0.2,0-0.7,0-1.1,0.3
						c-0.3,0.2-0.6,0.5-1.2,1.9c-0.9,2.1-1.5,3.2-2.7,5.9c-1.4,3.2-2.5,5.6-3,6.7c-0.6,1.3-0.8,1.6-1.1,1.6c-0.3,0-0.5-0.3-0.9-1.3
						L893,185.7z"/>
					<path class="st3" d="M910.6,189.9c0-3.3,0-3.9,0-4.6c-0.1-0.7-0.3-1-0.8-1.2c-0.3-0.1-0.5-0.1-0.8-0.1c-0.2,0-0.4-0.1-0.4-0.3
						c0-0.1,0.2-0.2,0.5-0.2c0.8,0,2.4,0.1,3,0.1c0.6,0,2-0.1,2.9-0.1c0.3,0,0.5,0.1,0.5,0.2c0,0.2-0.1,0.3-0.4,0.3
						c-0.2,0-0.4,0-0.7,0.1c-0.6,0.1-0.8,0.4-0.8,1.2c-0.1,0.7-0.1,1.3-0.1,4.6v3.8c0,2.1,0,3.8,0.1,4.8c0.1,0.6,0.2,0.9,0.9,1
						c0.3,0.1,0.8,0.1,1.2,0.1c0.3,0,0.4,0.1,0.4,0.2c0,0.2-0.2,0.2-0.4,0.2c-1.5,0-3-0.1-3.6-0.1c-0.5,0-2.1,0.1-3,0.1
						c-0.3,0-0.4-0.1-0.4-0.2c0-0.1,0.1-0.2,0.4-0.2c0.3,0,0.6,0,0.8-0.1c0.5-0.1,0.6-0.4,0.7-1.1c0.1-0.9,0.1-2.6,0.1-4.7V189.9z"
						/>
					<path class="st3" d="M919.7,198c-2.2-1.9-2.8-4.3-2.8-6.4c0-1.5,0.5-4.1,2.6-6c1.6-1.4,3.8-2.3,7.2-2.3c1.4,0,2.3,0.1,3.3,0.2
						c0.8,0.1,1.6,0.3,2.3,0.4c0.3,0,0.3,0.1,0.3,0.3c0,0.2-0.1,0.4-0.1,1.2c-0.1,0.7-0.1,1.9-0.1,2.4c0,0.3-0.1,0.5-0.3,0.5
						c-0.2,0-0.2-0.2-0.2-0.5c0-0.7-0.3-1.5-0.9-2c-0.8-0.7-2.3-1.3-4.4-1.3c-2,0-3.2,0.4-4.3,1.2c-1.7,1.4-2.1,3.5-2.1,5.7
						c0,5.2,4,7.6,7,7.6c2,0,3.1-0.2,4-1.2c0.4-0.4,0.7-1.1,0.8-1.5c0.1-0.3,0.1-0.4,0.3-0.4c0.2,0,0.3,0.2,0.3,0.4
						c0,0.3-0.3,2.2-0.5,2.9c-0.1,0.4-0.2,0.5-0.6,0.6c-0.9,0.4-2.6,0.5-4.1,0.5C924.4,200.4,921.7,199.7,919.7,198z"/>
					<path class="st3" d="M936.7,189.9c0-3.3,0-3.9,0-4.6c-0.1-0.7-0.3-1-1-1.2c-0.2-0.1-0.6-0.1-0.9-0.1c-0.2,0-0.4-0.1-0.4-0.2
						c0-0.2,0.2-0.2,0.5-0.2c1.2,0,2.6,0.1,3.3,0.1c0.7,0,5.7,0,6.2,0c0.4,0,0.8-0.1,0.9-0.1c0.1,0,0.3-0.1,0.4-0.1
						c0.1,0,0.2,0.1,0.2,0.2c0,0.2-0.1,0.4-0.2,1.4c0,0.2-0.1,1.2-0.1,1.4c0,0.1-0.1,0.4-0.3,0.4c-0.2,0-0.2-0.1-0.2-0.3
						c0-0.2,0-0.5-0.2-0.8c-0.2-0.4-0.4-0.7-1.5-0.8c-0.4-0.1-3.1-0.1-3.5-0.1c-0.1,0-0.2,0.1-0.2,0.2v5.4c0,0.1,0,0.2,0.2,0.2
						c0.5,0,3.4,0,4-0.1c0.5-0.1,0.9-0.1,1.1-0.3c0.2-0.2,0.3-0.3,0.4-0.3c0.1,0,0.2,0.1,0.2,0.2c0,0.1-0.1,0.5-0.2,1.6
						c-0.1,0.4-0.1,1.3-0.1,1.5c0,0.2,0,0.5-0.2,0.5c-0.2,0-0.2-0.1-0.2-0.2c0-0.2,0-0.5-0.1-0.8c-0.1-0.4-0.4-0.8-1.3-0.8
						c-0.4-0.1-3-0.1-3.5-0.1c-0.1,0-0.1,0.1-0.1,0.2v1.7c0,0.7,0,2.6,0,3.2c0.1,1.5,0.7,1.8,3.1,1.8c0.6,0,1.5,0,2.1-0.3
						c0.6-0.3,0.8-0.7,1-1.6c0.1-0.2,0.1-0.3,0.3-0.3c0.2,0,0.2,0.3,0.2,0.5c0,0.5-0.2,2-0.3,2.4c-0.2,0.6-0.4,0.6-1.2,0.6
						c-1.7,0-3.1,0-4.2-0.1c-1.1,0-2-0.1-2.6-0.1c-0.3,0-0.7,0-1.3,0c-0.5,0-1.1,0.1-1.6,0.1c-0.3,0-0.4-0.1-0.4-0.2
						c0-0.1,0.1-0.2,0.4-0.2c0.3,0,0.6,0,0.8-0.1c0.5-0.1,0.6-0.5,0.7-1.2c0.1-0.9,0.1-2.6,0.1-4.6V189.9z"/>
				</g>
				<rect x="745.3" y="175.9" class="st3" width="204.1" height="0.8"/>
			</g>
		</g>
		<g>
			<g>
				<g>
					<polygon class="st0" points="1183.9,66.7 1141.5,66.7 1128.4,26.4 1115.4,66.7 1073,66.7 1107.3,91.6 1094.2,131.9 
						1121.9,111.8 1111.7,104.4 1128.4,52.8 1145.2,104.4 1135,111.8 1162.7,131.9 1149.6,91.6 					"/>
				</g>
				<g>
					<polygon class="st1" points="1128.4,62.4 1115.2,103.3 1125.5,110.8 1125.5,122.2 1128.4,122.2 1128.4,122.2 					"/>
				</g>
			</g>
			<g>
				<g>
					<path class="st2" d="M1035.1,147.2l-5.1,0.1c-2,0.1-2.8,0.2-3.3,1c-0.3,0.5-0.5,0.9-0.6,1.2c-0.1,0.3-0.2,0.4-0.4,0.4
						c-0.2,0-0.3-0.2-0.3-0.5c0-0.5,0.7-3.7,0.7-3.9c0.1-0.4,0.2-0.6,0.4-0.6c0.3,0,0.6,0.3,1.5,0.4c1,0.1,2.3,0.2,3.4,0.2h13.6
						c1.1,0,1.8-0.1,2.4-0.2c0.5-0.1,0.8-0.2,0.9-0.2c0.2,0,0.3,0.2,0.3,0.7c0,0.7-0.1,3.1-0.1,4c0,0.3-0.1,0.5-0.3,0.5
						c-0.3,0-0.3-0.2-0.4-0.7l0-0.4c-0.1-0.9-1-1.8-4-1.9l-4.3-0.1v14c0,3.2,0,5.9,0.2,7.3c0.1,1,0.3,1.7,1.3,1.8
						c0.5,0.1,1.2,0.1,1.7,0.1c0.4,0,0.5,0.1,0.5,0.3c0,0.2-0.3,0.3-0.7,0.3c-2.3,0-4.4-0.1-5.4-0.1c-0.8,0-2.9,0.1-4.3,0.1
						c-0.4,0-0.7-0.1-0.7-0.3c0-0.2,0.1-0.3,0.5-0.3c0.5,0,0.9-0.1,1.2-0.1c0.7-0.1,0.9-0.9,1-1.9c0.2-1.4,0.2-4.1,0.2-7.3V147.2z"
						/>
					<path class="st2" d="M1053.8,157.6c0-4.4,0-5.2,0-6.2c-0.1-1-0.3-1.3-1.3-1.6c-0.2-0.1-0.8-0.1-1.2-0.1c-0.3,0-0.5-0.1-0.5-0.3
						s0.2-0.3,0.7-0.3c1.6,0,3.5,0.1,4.3,0.1c1,0,7.6,0,8.2,0c0.5,0,1-0.1,1.3-0.2c0.2,0,0.3-0.1,0.5-0.1c0.2,0,0.2,0.1,0.2,0.3
						c0,0.2-0.2,0.5-0.2,1.9c0,0.3-0.1,1.6-0.2,1.9c0,0.1-0.1,0.5-0.3,0.5c-0.2,0-0.2-0.1-0.2-0.4c0-0.2,0-0.7-0.2-1.1
						c-0.2-0.5-0.5-0.9-2-1.1c-0.5-0.1-4.1-0.1-4.7-0.1c-0.1,0-0.2,0.1-0.2,0.3v7.2c0,0.2,0,0.3,0.2,0.3c0.7,0,4.6,0,5.3-0.1
						c0.7-0.1,1.2-0.1,1.4-0.4c0.2-0.2,0.3-0.4,0.5-0.4c0.1,0,0.2,0.1,0.2,0.3c0,0.2-0.1,0.6-0.2,2.1c-0.1,0.6-0.1,1.7-0.1,2
						c0,0.2,0,0.6-0.3,0.6c-0.2,0-0.3-0.1-0.3-0.2c0-0.3,0-0.7-0.1-1.1c-0.2-0.6-0.5-1-1.7-1.1c-0.5-0.1-4-0.1-4.7-0.1
						c-0.1,0-0.2,0.1-0.2,0.3v2.3c0,1,0,3.5,0,4.3c0.1,2,1,2.4,4.1,2.4c0.8,0,2.1,0,2.8-0.4c0.8-0.3,1.1-1,1.3-2.2
						c0.1-0.3,0.1-0.4,0.3-0.4c0.2,0,0.3,0.4,0.3,0.7c0,0.7-0.2,2.6-0.4,3.2c-0.2,0.8-0.5,0.8-1.6,0.8c-2.3,0-4.1,0-5.5-0.1
						c-1.5,0-2.6-0.1-3.5-0.1c-0.3,0-1,0-1.7,0c-0.7,0-1.5,0.1-2.1,0.1c-0.4,0-0.6-0.1-0.6-0.3c0-0.1,0.1-0.3,0.5-0.3
						c0.4,0,0.8,0,1.1-0.1c0.6-0.1,0.8-0.7,0.9-1.5c0.1-1.2,0.1-3.5,0.1-6.2V157.6z"/>
					<path class="st2" d="M1081.8,158.9c1,1.4,6,9.3,6.7,10.3c0.5,0.7,1,1,1.6,1.2c0.4,0.1,0.9,0.2,1.2,0.2c0.2,0,0.4,0.1,0.4,0.3
						c0,0.2-0.2,0.3-0.6,0.3h-0.9c-0.7,0-3.1,0-5.6-0.1c-0.8,0-1.1-0.1-1.1-0.3c0-0.2,0.1-0.3,0.4-0.4c0.1,0,0.3-0.2,0.1-0.6
						c-1.7-2.8-3.4-5.6-4.8-7.8l-4.4,6.9c-0.3,0.5-0.5,0.9-0.4,1.2c0,0.3,0.3,0.4,0.6,0.4c0.2,0,0.4,0,0.7,0c0.2,0,0.4,0.2,0.4,0.3
						c0,0.2-0.2,0.3-0.6,0.3h-0.5c-0.2,0-2.2-0.1-2.9-0.1c-0.6,0-2.1,0.1-2.5,0.1h-0.5c-0.3,0-0.4-0.1-0.4-0.3
						c0-0.2,0.2-0.3,0.4-0.3c0.2,0,0.7,0,1.1-0.1c0.9-0.2,1.4-0.7,2.4-2.1l5.9-7.9l-5.3-8.3c-0.8-1.2-1.4-1.8-2.4-2.1
						c-0.5-0.1-1-0.2-1.3-0.2c-0.2,0-0.3-0.1-0.3-0.3c0-0.2,0.2-0.2,0.6-0.2c0.7,0,3.2,0.1,4.6,0.1c0.4,0,2.3-0.1,3.4-0.1
						c0.4,0,0.6,0.1,0.6,0.3s-0.2,0.3-0.5,0.3c-0.2,0-0.5,0-0.7,0.1c-0.3,0.1-0.4,0.2-0.4,0.4s0.1,0.5,0.3,0.9
						c1.3,2.3,2.6,4.3,3.8,6.3c0.9-1.3,3.6-5.2,4.1-6.1c0.2-0.4,0.3-0.8,0.3-1.1c0-0.2-0.2-0.4-0.5-0.5c-0.3-0.1-0.7-0.1-1-0.1
						c-0.2,0-0.4-0.1-0.4-0.3s0.2-0.3,0.6-0.3c1.2,0,2.6,0.1,3.2,0.1c0.6,0,1.8-0.1,2.9-0.1c0.3,0,0.5,0.1,0.5,0.3
						c0,0.2-0.2,0.3-0.5,0.3c-0.3,0-0.7,0.1-1.1,0.2c-0.7,0.2-1.2,1-2.2,2.2L1081.8,158.9z"/>
					<path class="st2" d="M1096.4,163.8c-0.2,0-0.2,0-0.3,0.2l-1.6,3.9c-0.3,0.7-0.4,1.4-0.4,1.8c0,0.5,0.3,0.8,1.2,0.8h0.4
						c0.4,0,0.4,0.1,0.4,0.3c0,0.2-0.2,0.3-0.5,0.3c-1,0-2.4-0.1-3.4-0.1c-0.3,0-1.9,0.1-3.5,0.1c-0.4,0-0.5-0.1-0.5-0.3
						c0-0.2,0.1-0.3,0.3-0.3c0.3,0,0.6,0,0.9,0c1.4-0.2,1.9-1.1,2.5-2.6l7.9-18.3c0.3-0.8,0.6-1.2,0.9-1.2c0.4,0,0.6,0.3,0.9,0.9
						c0.7,1.6,5.8,13.5,7.7,17.9c1.2,2.6,2,3,2.6,3.1c0.4,0.1,0.8,0.1,1.1,0.1c0.3,0,0.4,0.1,0.4,0.3c0,0.2-0.2,0.3-1.3,0.3
						c-1.1,0-3.3,0-5.8-0.1c-0.5,0-0.9,0-0.9-0.2c0-0.2,0.1-0.3,0.4-0.3c0.2,0,0.4-0.3,0.3-0.7l-2.3-5.9c-0.1-0.2-0.2-0.2-0.3-0.2
						H1096.4z M1102.9,162.2c0.1,0,0.2-0.1,0.1-0.2l-2.8-7.4c0-0.1-0.1-0.3-0.1-0.3c-0.1,0-0.1,0.2-0.2,0.3l-2.9,7.4
						c-0.1,0.1,0,0.2,0.1,0.2H1102.9z"/>
					<path class="st2" d="M1114.8,170.8c-0.5-0.2-0.6-0.3-0.6-1c0-1.6,0.1-3.4,0.2-3.9c0-0.4,0.1-0.8,0.4-0.8c0.3,0,0.3,0.3,0.3,0.5
						c0,0.4,0.1,1,0.3,1.5c0.7,2.2,2.9,2.9,4.8,2.9c2.6,0,4.2-1.6,4.2-3.7c0-1.3-0.3-2.5-3-4.1l-1.7-1c-3.6-2.1-4.7-4-4.7-6.6
						c0-3.6,3.4-5.9,7.6-5.9c2,0,3.5,0.3,4.3,0.5c0.3,0.1,0.4,0.2,0.4,0.4c0,0.4-0.1,1.2-0.1,3.5c0,0.6-0.1,0.9-0.4,0.9
						c-0.2,0-0.3-0.2-0.3-0.5c0-0.3-0.1-1.2-0.8-1.9c-0.4-0.5-1.4-1.4-3.4-1.4c-2.2,0-4.1,1.1-4.1,3.1c0,1.3,0.5,2.3,3.2,3.8
						l1.2,0.7c4,2.2,5.2,4.4,5.2,7.1c0,2.2-0.8,3.9-3,5.4c-1.4,1-3.4,1.2-5,1.2C1117.9,171.5,1116.1,171.4,1114.8,170.8z"/>
					<path class="st2" d="M1147.3,162.2c-0.2,0-0.2,0.1-0.3,0.3l-1.8,4.9c-0.3,0.9-0.5,1.7-0.5,2.1c0,0.6,0.3,1.1,1.4,1.1h0.5
						c0.4,0,0.5,0.1,0.5,0.3c0,0.3-0.2,0.3-0.6,0.3c-1.1,0-2.6-0.1-3.6-0.1c-0.4,0-2.3,0.1-4,0.1c-0.4,0-0.7-0.1-0.7-0.3
						c0-0.2,0.1-0.3,0.4-0.3c0.3,0,0.8,0,1.1-0.1c1.6-0.2,2.2-1.4,2.9-3.1l8.6-21.5c0.4-1,0.6-1.4,1-1.4c0.3,0,0.5,0.3,0.9,1.1
						c0.8,1.9,6.3,15.9,8.5,21.1c1.3,3.1,2.3,3.6,3,3.7c0.5,0.1,1,0.1,1.4,0.1c0.3,0,0.4,0,0.4,0.3c0,0.3-0.3,0.3-1.6,0.3
						c-1.2,0-3.7,0-6.5-0.1c-0.6,0-1,0-1-0.3c0-0.2,0.1-0.3,0.5-0.3c0.2-0.1,0.5-0.4,0.3-0.8l-2.7-7.3c-0.1-0.2-0.2-0.2-0.3-0.2
						H1147.3z M1154.2,160.5c0.2,0,0.2-0.1,0.2-0.2l-3.1-8.5c0-0.1-0.1-0.3-0.2-0.3s-0.2,0.2-0.2,0.3l-3.2,8.4c0,0.1,0,0.2,0.1,0.2
						H1154.2z"/>
					<path class="st2" d="M1171.8,156c-1.4-1.9-1.7-3.3-1.7-4.9c0-2.7,2.4-6.3,8.3-6.3c1.7,0,3.2,0.3,4.1,0.7
						c0.6,0.2,0.6,0.5,0.6,0.9c0,1.1-0.3,3.9-0.4,4.4c-0.1,0.5-0.2,0.6-0.4,0.6c-0.2,0-0.2-0.1-0.2-0.7c0-0.9-0.2-2-1-2.9
						c-0.7-0.8-1.9-1.5-3.8-1.5c-1.4,0-3.7,1-3.7,3.9c0,3.2,2.9,6,5.7,9c1.2,1.3,5.4,5.1,6,5.7c0.7-1,1.6-3.2,1.6-5.3
						c0-0.5-0.1-1.1-0.7-1.6c-0.4-0.4-1.2-0.5-1.7-0.5c-0.2,0-0.4-0.1-0.4-0.3c0-0.3,0.3-0.3,0.5-0.3c0.8,0,2.2,0,4.1,0.2
						c0.7,0.1,1.2,0.3,1.2,0.7c0,2.6-1.4,5.8-3.4,8.1c2.3,1.9,3.8,2.8,4.8,3.4c1.1,0.7,3,1.2,3.7,1.2c0.3,0,0.5,0,0.5,0.3
						c0,0.2-0.3,0.3-1,0.3h-2.6c-3.9,0-5.1-0.4-8.1-2.6c-1.1,1-3.4,3.1-8.1,3.1c-7.3,0-9.5-4.6-9.5-7.6
						C1166.2,160.1,1169.8,157,1171.8,156z M1182.5,167.4c-2-1.7-5.3-4.9-6.2-5.9c-0.9-1-3.1-3.4-3.7-4.3c-1.2,0.9-2.4,2.5-2.4,5.2
						c0,4.3,3,7,6.6,7C1179.6,169.5,1181.8,168.1,1182.5,167.4z"/>
					<path class="st2" d="M1199.6,145.4c0.1-0.6,0.3-0.9,0.6-0.9s0.5,0.2,0.9,1.1l9.3,19.3l9.3-19.6c0.3-0.5,0.4-0.8,0.8-0.8
						s0.5,0.3,0.6,1.1l3.1,21.2c0.3,2.2,0.7,3.2,1.7,3.5c1,0.3,1.7,0.3,2.1,0.3c0.3,0,0.5,0,0.5,0.2c0,0.3-0.4,0.4-0.9,0.4
						c-0.9,0-5.6-0.1-7-0.2c-0.8-0.1-1-0.2-1-0.4c0-0.2,0.1-0.3,0.4-0.4c0.2-0.1,0.3-0.5,0.2-1.5l-2.1-15.1h-0.1l-7.5,15.5
						c-0.8,1.6-1,1.9-1.3,1.9c-0.3,0-0.7-0.7-1.2-1.7c-0.8-1.6-3.5-6.8-3.9-7.8c-0.3-0.7-2.4-5-3.6-7.6h-0.1l-1.8,13.6
						c-0.1,0.6-0.1,1.1-0.1,1.6c0,0.6,0.4,1,1,1.1c0.6,0.1,1.1,0.2,1.4,0.2c0.3,0,0.5,0.1,0.5,0.2c0,0.3-0.3,0.4-0.8,0.4
						c-1.4,0-3-0.1-3.6-0.1c-0.7,0-2.3,0.1-3.4,0.1c-0.3,0-0.6-0.1-0.6-0.4c0-0.2,0.2-0.2,0.5-0.2c0.3,0,0.5,0,1-0.1
						c1-0.2,1.2-1.5,1.4-2.7L1199.6,145.4z"/>
				</g>
				<g>
					<path class="st3" d="M1035.2,192.6c0,2.5,0,4.4,0.1,5.5c0.1,0.7,0.2,1.3,1,1.4c0.4,0.1,0.9,0.1,1.3,0.1c0.3,0,0.4,0.1,0.4,0.2
						c0,0.2-0.2,0.3-0.6,0.3c-1.6,0-3.2-0.1-3.9-0.1c-0.7,0-2.3,0.1-3.3,0.1c-0.4,0-0.5-0.1-0.5-0.3c0-0.1,0.1-0.2,0.4-0.2
						c0.4,0,0.7-0.1,0.9-0.1c0.5-0.1,0.6-0.7,0.7-1.4c0.1-1.1,0.1-3,0.1-5.5v-4.5c0-3.9,0-4.6-0.1-5.4c-0.1-0.9-0.3-1.3-1.1-1.5
						c-0.2-0.1-0.6-0.1-1-0.1c-0.3,0-0.4-0.1-0.4-0.2c0-0.2,0.2-0.3,0.6-0.3c0.7,0,1.4,0,2.1,0c0.7,0,1.3,0.1,1.6,0.1
						c1,0,6.2,0,6.8,0c0.5,0,0.8,0,1.1-0.1c0.2-0.1,0.3-0.2,0.4-0.2c0.1,0,0.2,0.1,0.2,0.2c0,0.2-0.1,0.5-0.2,1.2
						c0,0.3-0.1,1.8-0.1,2.1c0,0.2-0.1,0.4-0.3,0.4s-0.2-0.1-0.3-0.4c0-0.2,0-0.6-0.2-1c-0.2-0.4-0.7-0.7-1.7-0.8l-4-0.1
						c-0.2,0-0.2,0.1-0.2,0.4v6.4c0,0.2,0,0.2,0.2,0.2l3.3,0c0.4,0,0.8,0,1.2,0c0.5,0,0.8-0.1,1.1-0.5c0.1-0.2,0.2-0.3,0.3-0.3
						c0.1,0,0.2,0.1,0.2,0.2c0,0.2-0.1,0.8-0.2,1.6c-0.1,0.5-0.1,1.7-0.1,1.9c0,0.2,0,0.5-0.3,0.5c-0.2,0-0.2-0.2-0.2-0.4
						c0-0.2-0.1-0.5-0.2-0.8c-0.1-0.4-0.5-0.8-1.3-0.9c-0.6-0.1-3.4-0.1-3.8-0.1c-0.1,0-0.2,0.1-0.2,0.2V192.6z"/>
					<path class="st3" d="M1043.9,191.8c0-3.7,2.6-8.5,9.5-8.5c5.7,0,9.2,3.2,9.2,8.2c0,5-3.6,8.9-9.5,8.9
						C1046.6,200.4,1043.9,195.7,1043.9,191.8z M1059.3,192.2c0-4.8-2.9-7.8-6.5-7.8c-2.5,0-5.5,1.3-5.5,6.7c0,4.5,2.6,8,6.8,8
						C1055.7,199.2,1059.3,198.4,1059.3,192.2z"/>
					<path class="st3" d="M1065.7,189.9c0-3.3,0-3.9,0-4.6c-0.1-0.7-0.3-1-1-1.2c-0.2-0.1-0.6-0.1-0.9-0.1c-0.2,0-0.4-0.1-0.4-0.2
						c0-0.2,0.2-0.2,0.5-0.2c1.2,0,2.6,0.1,3.1,0.1c0.8,0,2.8-0.1,3.5-0.1c1.4,0,3.1,0.1,4.3,0.9c0.6,0.4,1.6,1.5,1.6,3
						c0,1.6-0.9,3.1-3.1,4.8c2,2.5,3.6,4.4,5,5.8c1.3,1.3,2.1,1.4,2.4,1.4c0.2,0.1,0.4,0.1,0.5,0.1s0.3,0.1,0.3,0.2
						c0,0.2-0.2,0.2-0.4,0.2h-2.2c-1.3,0-1.9-0.1-2.5-0.4c-1-0.5-1.8-1.5-3.1-3.2c-0.9-1.2-1.8-2.6-2.1-3c-0.1-0.1-0.3-0.2-0.4-0.2
						l-2-0.1c-0.1,0-0.2,0.1-0.2,0.2v0.3c0,2,0,3.7,0.1,4.6c0.1,0.6,0.2,1.1,0.9,1.2c0.3,0.1,0.8,0.1,1.1,0.1c0.2,0,0.3,0.1,0.3,0.2
						c0,0.2-0.2,0.2-0.5,0.2c-1.3,0-3.2-0.1-3.5-0.1c-0.4,0-1.9,0.1-2.8,0.1c-0.3,0-0.4-0.1-0.4-0.2c0-0.1,0.1-0.2,0.4-0.2
						c0.3,0,0.6,0,0.8-0.1c0.5-0.1,0.6-0.5,0.7-1.2c0.1-0.9,0.1-2.6,0.1-4.6V189.9z M1068.6,191.6c0,0.2,0.1,0.3,0.2,0.4
						c0.5,0.2,1.2,0.2,1.7,0.2c0.9,0,1.2-0.1,1.6-0.4c0.7-0.5,1.5-1.4,1.5-3.2c0-3.1-2.1-3.9-3.4-3.9c-0.6,0-1.1,0-1.3,0.1
						c-0.2,0.1-0.2,0.1-0.2,0.3V191.6z"/>
					<path class="st3" d="M1082.5,189.9c0-3.3,0-3.9,0-4.6c-0.1-0.7-0.3-1-1-1.2c-0.2-0.1-0.6-0.1-0.9-0.1c-0.2,0-0.4-0.1-0.4-0.2
						c0-0.2,0.2-0.2,0.5-0.2c1.2,0,2.6,0.1,3.3,0.1c0.7,0,5.7,0,6.2,0c0.4,0,0.8-0.1,0.9-0.1c0.1,0,0.3-0.1,0.4-0.1
						c0.1,0,0.2,0.1,0.2,0.2c0,0.2-0.1,0.4-0.2,1.4c0,0.2-0.1,1.2-0.1,1.4c0,0.1-0.1,0.4-0.3,0.4c-0.2,0-0.2-0.1-0.2-0.3
						c0-0.2,0-0.5-0.2-0.8c-0.2-0.4-0.4-0.7-1.5-0.8c-0.4-0.1-3.1-0.1-3.5-0.1c-0.1,0-0.2,0.1-0.2,0.2v5.4c0,0.1,0,0.2,0.2,0.2
						c0.5,0,3.4,0,4-0.1c0.5-0.1,0.9-0.1,1.1-0.3c0.2-0.2,0.3-0.3,0.4-0.3c0.1,0,0.2,0.1,0.2,0.2c0,0.1-0.1,0.5-0.2,1.6
						c-0.1,0.4-0.1,1.3-0.1,1.5c0,0.2,0,0.5-0.2,0.5c-0.2,0-0.2-0.1-0.2-0.2c0-0.2,0-0.5-0.1-0.8c-0.1-0.4-0.4-0.8-1.3-0.8
						c-0.4-0.1-3-0.1-3.5-0.1c-0.1,0-0.1,0.1-0.1,0.2v1.7c0,0.7,0,2.6,0,3.2c0.1,1.5,0.7,1.8,3.1,1.8c0.6,0,1.5,0,2.1-0.3
						c0.6-0.3,0.8-0.7,1-1.6c0-0.2,0.1-0.3,0.3-0.3c0.2,0,0.2,0.3,0.2,0.5c0,0.5-0.2,2-0.3,2.4c-0.2,0.6-0.4,0.6-1.2,0.6
						c-1.7,0-3.1,0-4.2-0.1c-1.1,0-1.9-0.1-2.6-0.1c-0.3,0-0.7,0-1.3,0c-0.5,0-1.1,0.1-1.6,0.1c-0.3,0-0.4-0.1-0.4-0.2
						c0-0.1,0.1-0.2,0.4-0.2c0.3,0,0.6,0,0.8-0.1c0.5-0.1,0.6-0.5,0.7-1.2c0.1-0.9,0.1-2.6,0.1-4.6V189.9z"/>
					<path class="st3" d="M1095,199.8c-0.4-0.2-0.4-0.3-0.4-0.7c0-1.2,0.1-2.5,0.1-2.9c0-0.3,0.1-0.6,0.3-0.6c0.2,0,0.2,0.2,0.2,0.4
						c0,0.3,0.1,0.7,0.2,1.1c0.5,1.6,2.2,2.2,3.6,2.2c2,0,3.1-1.2,3.1-2.8c0-0.9-0.2-1.9-2.2-3.1l-1.3-0.8c-2.7-1.6-3.5-3-3.5-5
						c0-2.7,2.6-4.4,5.7-4.4c1.5,0,2.6,0.2,3.2,0.4c0.2,0.1,0.3,0.1,0.3,0.3c0,0.3-0.1,0.9-0.1,2.6c0,0.5-0.1,0.7-0.3,0.7
						c-0.2,0-0.2-0.1-0.2-0.4c0-0.2-0.1-0.9-0.6-1.4c-0.3-0.4-1.1-1-2.5-1c-1.6,0-3.1,0.8-3.1,2.3c0,1,0.4,1.7,2.4,2.9l0.9,0.5
						c3,1.6,3.9,3.3,3.9,5.3c0,1.6-0.6,2.9-2.3,4.1c-1.1,0.8-2.6,0.9-3.8,0.9C1097.4,200.4,1096,200.2,1095,199.8z"/>
					<path class="st3" d="M1112.4,184.9l-3.4,0.1c-1.3,0-1.8,0.2-2.2,0.7c-0.2,0.3-0.3,0.6-0.4,0.7c-0.1,0.2-0.1,0.3-0.3,0.3
						s-0.2-0.1-0.2-0.4c0-0.4,0.4-2.5,0.5-2.6c0-0.3,0.1-0.4,0.3-0.4c0.2,0,0.4,0.2,1,0.3c0.7,0.1,1.5,0.1,2.3,0.1h9.2
						c0.7,0,1.2-0.1,1.5-0.1c0.4-0.1,0.5-0.1,0.6-0.1c0.2,0,0.2,0.1,0.2,0.5c0,0.5-0.1,2.1-0.1,2.6c0,0.2-0.1,0.4-0.2,0.4
						c-0.2,0-0.2-0.1-0.3-0.4l0-0.2c-0.1-0.6-0.6-1.2-2.7-1.3l-2.8-0.1v8.8c0,2,0,3.7,0.1,4.7c0.1,0.6,0.2,1,0.9,1.1
						c0.3,0.1,0.8,0.1,1.2,0.1c0.3,0,0.4,0.1,0.4,0.2c0,0.2-0.2,0.2-0.4,0.2c-1.5,0-3-0.1-3.6-0.1c-0.5,0-2.1,0.1-3,0.1
						c-0.3,0-0.4-0.1-0.4-0.2c0-0.1,0.1-0.2,0.4-0.2c0.3,0,0.6,0,0.8-0.1c0.5-0.1,0.6-0.5,0.7-1.2c0.1-0.9,0.1-2.6,0.1-4.6V184.9z"
						/>
					<path class="st3" d="M1130.6,199.8c-0.4-0.2-0.5-0.3-0.5-0.9c0-1.4,0.1-3,0.1-3.4c0-0.4,0.1-0.7,0.3-0.7c0.2,0,0.3,0.2,0.3,0.4
						c0,0.3,0.1,0.9,0.2,1.3c0.6,1.9,2.1,2.6,3.7,2.6c2.3,0,3.4-1.6,3.4-2.9c0-1.3-0.4-2.4-2.5-4.1l-1.2-0.9c-2.8-2.2-3.8-4-3.8-6.1
						c0-2.8,2.4-4.9,5.9-4.9c1.7,0,2.7,0.3,3.4,0.4c0.2,0.1,0.4,0.1,0.4,0.3c0,0.3-0.1,1.1-0.1,3.1c0,0.6-0.1,0.8-0.3,0.8
						c-0.2,0-0.3-0.2-0.3-0.5c0-0.2-0.1-1-0.7-1.7c-0.4-0.5-1.1-1.3-2.8-1.3c-1.9,0-3.1,1.1-3.1,2.6c0,1.2,0.6,2.1,2.7,3.7l0.7,0.5
						c3.1,2.3,4.2,4.1,4.2,6.5c0,1.5-0.6,3.3-2.4,4.5c-1.3,0.8-2.7,1.1-4.1,1.1C1132.9,200.4,1131.7,200.2,1130.6,199.8z"/>
					<path class="st3" d="M1145.2,189.9c0-3.3,0-3.9,0-4.6c-0.1-0.7-0.3-1-1-1.2c-0.2-0.1-0.6-0.1-0.9-0.1c-0.2,0-0.4-0.1-0.4-0.2
						c0-0.2,0.2-0.2,0.5-0.2c1.2,0,2.6,0.1,3.3,0.1c0.7,0,5.7,0,6.2,0c0.4,0,0.8-0.1,0.9-0.1c0.1,0,0.3-0.1,0.4-0.1
						c0.1,0,0.2,0.1,0.2,0.2c0,0.2-0.1,0.4-0.2,1.4c0,0.2-0.1,1.2-0.1,1.4c0,0.1-0.1,0.4-0.3,0.4c-0.2,0-0.2-0.1-0.2-0.3
						c0-0.2,0-0.5-0.2-0.8c-0.2-0.4-0.4-0.7-1.5-0.8c-0.4-0.1-3.1-0.1-3.5-0.1c-0.1,0-0.2,0.1-0.2,0.2v5.4c0,0.1,0,0.2,0.2,0.2
						c0.5,0,3.4,0,4-0.1c0.5-0.1,0.9-0.1,1.1-0.3c0.2-0.2,0.3-0.3,0.4-0.3c0.1,0,0.2,0.1,0.2,0.2c0,0.1-0.1,0.5-0.2,1.6
						c-0.1,0.4-0.1,1.3-0.1,1.5c0,0.2,0,0.5-0.2,0.5c-0.2,0-0.2-0.1-0.2-0.2c0-0.2,0-0.5-0.1-0.8c-0.1-0.4-0.4-0.8-1.3-0.8
						c-0.4-0.1-3-0.1-3.5-0.1c-0.1,0-0.1,0.1-0.1,0.2v1.7c0,0.7,0,2.6,0,3.2c0.1,1.5,0.7,1.8,3.1,1.8c0.6,0,1.5,0,2.1-0.3
						c0.6-0.3,0.8-0.7,1-1.6c0.1-0.2,0.1-0.3,0.3-0.3c0.2,0,0.2,0.3,0.2,0.5c0,0.5-0.2,2-0.3,2.4c-0.2,0.6-0.4,0.6-1.2,0.6
						c-1.7,0-3.1,0-4.2-0.1c-1.1,0-2-0.1-2.6-0.1c-0.3,0-0.7,0-1.3,0c-0.5,0-1.1,0.1-1.6,0.1c-0.3,0-0.4-0.1-0.4-0.2
						c0-0.1,0.1-0.2,0.4-0.2c0.3,0,0.6,0,0.8-0.1c0.5-0.1,0.6-0.5,0.7-1.2c0.1-0.9,0.1-2.6,0.1-4.6V189.9z"/>
					<path class="st3" d="M1158.9,189.9c0-3.3,0-3.9,0-4.6c-0.1-0.7-0.3-1-1-1.2c-0.2-0.1-0.6-0.1-0.9-0.1c-0.2,0-0.4-0.1-0.4-0.2
						c0-0.2,0.2-0.2,0.5-0.2c1.2,0,2.6,0.1,3.1,0.1c0.8,0,2.8-0.1,3.5-0.1c1.4,0,3.1,0.1,4.3,0.9c0.6,0.4,1.6,1.5,1.6,3
						c0,1.6-0.9,3.1-3.1,4.8c2,2.5,3.6,4.4,5,5.8c1.3,1.3,2.1,1.4,2.4,1.4c0.2,0.1,0.4,0.1,0.5,0.1s0.3,0.1,0.3,0.2
						c0,0.2-0.2,0.2-0.4,0.2h-2.2c-1.3,0-1.9-0.1-2.5-0.4c-1-0.5-1.8-1.5-3.1-3.2c-0.9-1.2-1.8-2.6-2.1-3c-0.1-0.1-0.3-0.2-0.4-0.2
						l-2-0.1c-0.1,0-0.2,0.1-0.2,0.2v0.3c0,2,0,3.7,0.1,4.6c0.1,0.6,0.2,1.1,0.9,1.2c0.3,0.1,0.8,0.1,1.1,0.1c0.2,0,0.3,0.1,0.3,0.2
						c0,0.2-0.2,0.2-0.5,0.2c-1.3,0-3.2-0.1-3.5-0.1c-0.4,0-1.9,0.1-2.8,0.1c-0.3,0-0.4-0.1-0.4-0.2c0-0.1,0.1-0.2,0.4-0.2
						c0.3,0,0.6,0,0.8-0.1c0.5-0.1,0.6-0.5,0.7-1.2c0.1-0.9,0.1-2.6,0.1-4.6V189.9z M1161.8,191.6c0,0.2,0.1,0.3,0.2,0.4
						c0.5,0.2,1.2,0.2,1.7,0.2c0.9,0,1.2-0.1,1.6-0.4c0.7-0.5,1.5-1.4,1.5-3.2c0-3.1-2.1-3.9-3.4-3.9c-0.6,0-1.1,0-1.3,0.1
						c-0.2,0.1-0.2,0.1-0.2,0.3V191.6z"/>
					<path class="st3" d="M1173,185.7c-0.5-1.2-0.8-1.4-1.7-1.6c-0.3-0.1-0.7-0.1-0.9-0.1c-0.2,0-0.3-0.1-0.3-0.2
						c0-0.2,0.2-0.2,0.6-0.2c1.2,0,2.5,0.1,3.3,0.1c0.6,0,1.7-0.1,2.9-0.1c0.3,0,0.5,0.1,0.5,0.2c0,0.2-0.2,0.2-0.4,0.2
						c-0.4,0-0.7,0-0.9,0.2c-0.2,0.1-0.2,0.2-0.2,0.4c0,0.3,0.2,0.9,0.5,1.6l3.8,9.8h0.1c1-2.3,3.9-9.3,4.4-10.7
						c0.1-0.3,0.2-0.6,0.2-0.8c0-0.2-0.1-0.3-0.3-0.4c-0.3-0.1-0.6-0.1-0.9-0.1c-0.2,0-0.4-0.1-0.4-0.2c0-0.2,0.2-0.2,0.6-0.2
						c1.1,0,2.1,0.1,2.4,0.1c0.4,0,1.4-0.1,2.1-0.1c0.3,0,0.5,0.1,0.5,0.2c0,0.2-0.1,0.2-0.4,0.2c-0.2,0-0.7,0-1.1,0.3
						c-0.3,0.2-0.6,0.5-1.2,1.9c-0.9,2.1-1.5,3.2-2.7,5.9c-1.4,3.2-2.5,5.6-3,6.7c-0.6,1.3-0.8,1.6-1.1,1.6c-0.3,0-0.5-0.3-0.9-1.3
						L1173,185.7z"/>
					<path class="st3" d="M1190.6,189.9c0-3.3,0-3.9,0-4.6c-0.1-0.7-0.3-1-0.8-1.2c-0.3-0.1-0.5-0.1-0.8-0.1c-0.2,0-0.4-0.1-0.4-0.3
						c0-0.1,0.2-0.2,0.5-0.2c0.8,0,2.4,0.1,3,0.1c0.6,0,2-0.1,2.9-0.1c0.3,0,0.5,0.1,0.5,0.2c0,0.2-0.1,0.3-0.4,0.3s-0.4,0-0.7,0.1
						c-0.6,0.1-0.8,0.4-0.8,1.2c-0.1,0.7-0.1,1.3-0.1,4.6v3.8c0,2.1,0,3.8,0.1,4.8c0.1,0.6,0.2,0.9,0.9,1c0.3,0.1,0.8,0.1,1.2,0.1
						c0.3,0,0.4,0.1,0.4,0.2c0,0.2-0.2,0.2-0.4,0.2c-1.5,0-3-0.1-3.6-0.1c-0.5,0-2.1,0.1-3,0.1c-0.3,0-0.4-0.1-0.4-0.2
						c0-0.1,0.1-0.2,0.4-0.2c0.3,0,0.6,0,0.8-0.1c0.5-0.1,0.6-0.4,0.7-1.1c0.1-0.9,0.1-2.6,0.1-4.7V189.9z"/>
					<path class="st3" d="M1199.7,198c-2.2-1.9-2.8-4.3-2.8-6.4c0-1.5,0.5-4.1,2.6-6c1.6-1.4,3.8-2.3,7.2-2.3c1.4,0,2.3,0.1,3.3,0.2
						c0.8,0.1,1.6,0.3,2.3,0.4c0.3,0,0.3,0.1,0.3,0.3c0,0.2-0.1,0.4-0.1,1.2c-0.1,0.7-0.1,1.9-0.1,2.4c0,0.3-0.1,0.5-0.3,0.5
						c-0.2,0-0.2-0.2-0.2-0.5c0-0.7-0.3-1.5-0.9-2c-0.8-0.7-2.3-1.3-4.4-1.3c-2,0-3.2,0.4-4.3,1.2c-1.7,1.4-2.1,3.5-2.1,5.7
						c0,5.2,4,7.6,7,7.6c2,0,3.1-0.2,4-1.2c0.4-0.4,0.7-1.1,0.8-1.5c0-0.3,0.1-0.4,0.3-0.4c0.2,0,0.3,0.2,0.3,0.4
						c0,0.3-0.3,2.2-0.5,2.9c-0.1,0.4-0.2,0.5-0.6,0.6c-0.9,0.4-2.6,0.5-4.1,0.5C1204.4,200.4,1201.7,199.7,1199.7,198z"/>
					<path class="st3" d="M1216.7,189.9c0-3.3,0-3.9,0-4.6c-0.1-0.7-0.3-1-1-1.2c-0.2-0.1-0.6-0.1-0.9-0.1c-0.2,0-0.4-0.1-0.4-0.2
						c0-0.2,0.2-0.2,0.5-0.2c1.2,0,2.6,0.1,3.3,0.1c0.7,0,5.7,0,6.2,0c0.4,0,0.8-0.1,0.9-0.1c0.1,0,0.3-0.1,0.4-0.1
						c0.1,0,0.2,0.1,0.2,0.2c0,0.2-0.1,0.4-0.2,1.4c0,0.2-0.1,1.2-0.1,1.4c0,0.1-0.1,0.4-0.3,0.4c-0.2,0-0.2-0.1-0.2-0.3
						c0-0.2,0-0.5-0.2-0.8c-0.2-0.4-0.4-0.7-1.5-0.8c-0.4-0.1-3.1-0.1-3.5-0.1c-0.1,0-0.2,0.1-0.2,0.2v5.4c0,0.1,0,0.2,0.2,0.2
						c0.5,0,3.4,0,4-0.1c0.5-0.1,0.9-0.1,1.1-0.3c0.2-0.2,0.3-0.3,0.4-0.3s0.2,0.1,0.2,0.2c0,0.1-0.1,0.5-0.2,1.6
						c-0.1,0.4-0.1,1.3-0.1,1.5c0,0.2,0,0.5-0.2,0.5c-0.2,0-0.2-0.1-0.2-0.2c0-0.2,0-0.5-0.1-0.8c-0.1-0.4-0.4-0.8-1.3-0.8
						c-0.4-0.1-3-0.1-3.5-0.1c-0.1,0-0.1,0.1-0.1,0.2v1.7c0,0.7,0,2.6,0,3.2c0.1,1.5,0.7,1.8,3.1,1.8c0.6,0,1.5,0,2.1-0.3
						c0.6-0.3,0.8-0.7,1-1.6c0.1-0.2,0.1-0.3,0.3-0.3c0.2,0,0.2,0.3,0.2,0.5c0,0.5-0.2,2-0.3,2.4c-0.2,0.6-0.4,0.6-1.2,0.6
						c-1.7,0-3.1,0-4.2-0.1c-1.1,0-2-0.1-2.6-0.1c-0.3,0-0.7,0-1.3,0c-0.5,0-1.1,0.1-1.6,0.1c-0.3,0-0.4-0.1-0.4-0.2
						c0-0.1,0.1-0.2,0.4-0.2c0.3,0,0.6,0,0.8-0.1c0.5-0.1,0.6-0.5,0.7-1.2c0.1-0.9,0.1-2.6,0.1-4.6V189.9z"/>
				</g>
				<rect x="1025.3" y="175.9" class="st3" width="204.1" height="0.8"/>
			</g>
		</g>
		<g>
			<g>
				<g>
					<polygon class="st4" points="-198.6,133.8 -240.9,133.8 -254,93.5 -267.1,133.8 -309.5,133.8 -275.2,158.7 -288.3,198.9 
						-260.6,178.8 -270.8,171.4 -254,119.9 -237.3,171.4 -247.5,178.8 -219.8,198.9 -232.8,158.7 					"/>
				</g>
				<g>
					<polygon class="st5" points="-254,129.4 -267.3,170.3 -257,177.8 -257,189.3 -254,189.3 -254,189.3 					"/>
				</g>
			</g>
			<g>
				<g>
					<path class="st6" d="M-347.4,214.2l-5.1,0.1c-2,0.1-2.8,0.2-3.3,1c-0.3,0.5-0.5,0.9-0.6,1.2c-0.1,0.3-0.2,0.4-0.4,0.4
						c-0.2,0-0.3-0.2-0.3-0.5c0-0.5,0.7-3.7,0.7-3.9c0.1-0.4,0.2-0.6,0.4-0.6c0.3,0,0.6,0.3,1.5,0.4c1,0.1,2.3,0.2,3.4,0.2h13.6
						c1.1,0,1.8-0.1,2.4-0.2c0.5-0.1,0.8-0.2,0.9-0.2c0.2,0,0.3,0.2,0.3,0.7c0,0.7-0.1,3.1-0.1,4c0,0.3-0.1,0.5-0.3,0.5
						c-0.3,0-0.3-0.2-0.4-0.7l0-0.4c-0.1-0.9-1-1.8-4-1.9l-4.3-0.1v14c0,3.2,0,5.9,0.2,7.3c0.1,1,0.3,1.7,1.3,1.8
						c0.5,0.1,1.2,0.1,1.7,0.1c0.4,0,0.5,0.1,0.5,0.3c0,0.2-0.3,0.3-0.7,0.3c-2.3,0-4.4-0.1-5.4-0.1c-0.8,0-2.9,0.1-4.3,0.1
						c-0.4,0-0.7-0.1-0.7-0.3c0-0.2,0.1-0.3,0.5-0.3c0.5,0,0.9-0.1,1.2-0.1c0.7-0.1,0.9-0.9,1-1.9c0.2-1.4,0.2-4.1,0.2-7.3V214.2z"
						/>
					<path class="st6" d="M-328.6,224.6c0-4.4,0-5.2,0-6.2c-0.1-1-0.3-1.3-1.3-1.6c-0.2-0.1-0.8-0.1-1.2-0.1c-0.3,0-0.5-0.1-0.5-0.3
						c0-0.2,0.2-0.3,0.7-0.3c1.6,0,3.5,0.1,4.3,0.1c1,0,7.6,0,8.2,0c0.5,0,1-0.1,1.3-0.2c0.2,0,0.3-0.1,0.5-0.1
						c0.2,0,0.2,0.1,0.2,0.3c0,0.2-0.2,0.5-0.2,1.9c0,0.3-0.1,1.6-0.2,1.9c0,0.1-0.1,0.5-0.3,0.5c-0.2,0-0.2-0.1-0.2-0.4
						c0-0.2,0-0.7-0.2-1.1c-0.2-0.5-0.5-0.9-2-1.1c-0.5-0.1-4.1-0.1-4.7-0.1c-0.1,0-0.2,0.1-0.2,0.3v7.2c0,0.2,0,0.3,0.2,0.3
						c0.7,0,4.6,0,5.3-0.1c0.7-0.1,1.2-0.1,1.4-0.4c0.2-0.2,0.3-0.4,0.5-0.4c0.1,0,0.2,0.1,0.2,0.3c0,0.2-0.1,0.6-0.2,2.1
						c-0.1,0.6-0.1,1.7-0.1,2c0,0.2,0,0.6-0.3,0.6c-0.2,0-0.3-0.1-0.3-0.2c0-0.3,0-0.7-0.1-1.1c-0.2-0.6-0.5-1-1.7-1.1
						c-0.5-0.1-4-0.1-4.7-0.1c-0.1,0-0.2,0.1-0.2,0.3v2.3c0,1,0,3.5,0,4.3c0.1,2,1,2.4,4.1,2.4c0.8,0,2.1,0,2.8-0.4
						c0.8-0.3,1.1-1,1.3-2.2c0.1-0.3,0.1-0.4,0.3-0.4c0.2,0,0.3,0.4,0.3,0.7c0,0.7-0.2,2.6-0.4,3.2c-0.2,0.8-0.5,0.8-1.6,0.8
						c-2.3,0-4.1,0-5.5-0.1c-1.5,0-2.6-0.1-3.5-0.1c-0.3,0-1,0-1.7,0c-0.7,0-1.5,0.1-2.1,0.1c-0.4,0-0.6-0.1-0.6-0.3
						c0-0.1,0.1-0.3,0.5-0.3c0.4,0,0.8,0,1.1-0.1c0.6-0.1,0.8-0.7,0.9-1.5c0.1-1.2,0.1-3.5,0.1-6.2V224.6z"/>
					<path class="st6" d="M-300.7,226c1,1.4,6,9.3,6.7,10.3c0.5,0.7,1,1,1.6,1.2c0.4,0.1,0.9,0.2,1.2,0.2c0.2,0,0.4,0.1,0.4,0.3
						c0,0.2-0.2,0.3-0.6,0.3h-0.9c-0.7,0-3.1,0-5.6-0.1c-0.8,0-1.1-0.1-1.1-0.3c0-0.2,0.1-0.3,0.4-0.4c0.1,0,0.3-0.2,0.1-0.6
						c-1.7-2.8-3.4-5.6-4.8-7.8l-4.4,6.9c-0.3,0.5-0.5,0.9-0.4,1.2c0,0.3,0.3,0.4,0.6,0.4c0.2,0,0.4,0,0.7,0c0.2,0,0.4,0.2,0.4,0.3
						c0,0.2-0.2,0.3-0.6,0.3h-0.5c-0.2,0-2.2-0.1-2.9-0.1c-0.6,0-2.1,0.1-2.5,0.1h-0.5c-0.3,0-0.4-0.1-0.4-0.3
						c0-0.2,0.2-0.3,0.4-0.3c0.2,0,0.7,0,1.1-0.1c0.9-0.2,1.4-0.7,2.4-2.1l5.9-7.9l-5.3-8.3c-0.8-1.2-1.4-1.8-2.4-2.1
						c-0.5-0.1-1-0.2-1.3-0.2c-0.2,0-0.3-0.1-0.3-0.3c0-0.2,0.2-0.2,0.6-0.2c0.7,0,3.2,0.1,4.6,0.1c0.4,0,2.3-0.1,3.4-0.1
						c0.4,0,0.6,0.1,0.6,0.3c0,0.2-0.2,0.3-0.5,0.3c-0.2,0-0.5,0-0.7,0.1c-0.3,0.1-0.4,0.2-0.4,0.4s0.1,0.5,0.3,0.9
						c1.3,2.3,2.6,4.3,3.8,6.3c0.9-1.3,3.6-5.2,4.1-6.1c0.2-0.4,0.3-0.8,0.3-1.1c0-0.2-0.2-0.4-0.5-0.5c-0.3-0.1-0.7-0.1-1-0.1
						c-0.2,0-0.4-0.1-0.4-0.3c0-0.2,0.2-0.3,0.6-0.3c1.2,0,2.6,0.1,3.2,0.1c0.6,0,1.8-0.1,2.9-0.1c0.3,0,0.5,0.1,0.5,0.3
						c0,0.2-0.2,0.3-0.5,0.3c-0.3,0-0.7,0.1-1.1,0.2c-0.7,0.2-1.2,1-2.2,2.2L-300.7,226z"/>
					<path class="st6" d="M-286,230.9c-0.2,0-0.2,0-0.3,0.2l-1.6,3.9c-0.3,0.7-0.4,1.4-0.4,1.8c0,0.5,0.3,0.8,1.2,0.8h0.4
						c0.4,0,0.4,0.1,0.4,0.3c0,0.2-0.2,0.3-0.5,0.3c-1,0-2.4-0.1-3.4-0.1c-0.3,0-1.9,0.1-3.5,0.1c-0.4,0-0.5-0.1-0.5-0.3
						c0-0.2,0.1-0.3,0.3-0.3c0.3,0,0.6,0,0.9,0c1.4-0.2,1.9-1.1,2.5-2.6l7.9-18.3c0.3-0.8,0.6-1.2,0.9-1.2c0.4,0,0.6,0.3,0.9,0.9
						c0.7,1.6,5.8,13.5,7.7,17.9c1.2,2.6,2,3,2.6,3.1c0.4,0.1,0.8,0.1,1.1,0.1c0.3,0,0.4,0.1,0.4,0.3c0,0.2-0.2,0.3-1.3,0.3
						c-1.1,0-3.3,0-5.8-0.1c-0.5,0-0.9,0-0.9-0.2c0-0.2,0.1-0.3,0.4-0.3c0.2,0,0.4-0.3,0.3-0.7l-2.3-5.9c-0.1-0.2-0.2-0.2-0.3-0.2
						H-286z M-279.6,229.3c0.1,0,0.2-0.1,0.1-0.2l-2.8-7.4c0-0.1-0.1-0.3-0.1-0.3c-0.1,0-0.1,0.2-0.2,0.3l-2.9,7.4
						c-0.1,0.1,0,0.2,0.1,0.2H-279.6z"/>
					<path class="st6" d="M-267.7,237.8c-0.5-0.2-0.6-0.3-0.6-1c0-1.6,0.1-3.4,0.2-3.9c0-0.4,0.1-0.8,0.4-0.8c0.3,0,0.3,0.3,0.3,0.5
						c0,0.4,0.1,1,0.3,1.5c0.7,2.2,2.9,2.9,4.8,2.9c2.6,0,4.2-1.6,4.2-3.7c0-1.3-0.3-2.5-3-4.1l-1.7-1c-3.6-2.1-4.7-4-4.7-6.6
						c0-3.6,3.4-5.9,7.6-5.9c2,0,3.5,0.3,4.3,0.5c0.3,0.1,0.4,0.2,0.4,0.4c0,0.4-0.1,1.2-0.1,3.5c0,0.6-0.1,0.9-0.4,0.9
						c-0.2,0-0.3-0.2-0.3-0.5c0-0.3-0.1-1.2-0.8-1.9c-0.4-0.5-1.4-1.4-3.4-1.4c-2.2,0-4.1,1.1-4.1,3.1c0,1.3,0.5,2.3,3.2,3.8
						l1.2,0.7c4,2.2,5.2,4.4,5.2,7.1c0,2.2-0.8,3.9-3,5.4c-1.4,1-3.4,1.2-5,1.2C-264.5,238.6-266.4,238.4-267.7,237.8z"/>
					<path class="st6" d="M-235.2,229.3c-0.2,0-0.2,0.1-0.3,0.3l-1.8,4.9c-0.3,0.9-0.5,1.7-0.5,2.1c0,0.6,0.3,1.1,1.4,1.1h0.5
						c0.4,0,0.5,0.1,0.5,0.3c0,0.3-0.2,0.3-0.6,0.3c-1.1,0-2.6-0.1-3.6-0.1c-0.4,0-2.3,0.1-4,0.1c-0.4,0-0.7-0.1-0.7-0.3
						c0-0.2,0.1-0.3,0.4-0.3c0.3,0,0.8,0,1.1-0.1c1.6-0.2,2.2-1.4,2.9-3.1l8.6-21.5c0.4-1,0.6-1.4,1-1.4c0.3,0,0.5,0.3,0.9,1.1
						c0.8,1.9,6.3,15.9,8.5,21.1c1.3,3.1,2.3,3.6,3,3.7c0.5,0.1,1,0.1,1.4,0.1c0.3,0,0.4,0,0.4,0.3c0,0.3-0.3,0.3-1.6,0.3
						c-1.2,0-3.7,0-6.5-0.1c-0.6,0-1,0-1-0.3c0-0.2,0.1-0.3,0.5-0.3c0.2-0.1,0.5-0.4,0.3-0.8l-2.7-7.3c-0.1-0.2-0.2-0.2-0.3-0.2
						H-235.2z M-228.2,227.6c0.2,0,0.2-0.1,0.2-0.2l-3.1-8.5c0-0.1-0.1-0.3-0.2-0.3c-0.1,0-0.2,0.2-0.2,0.3l-3.2,8.4
						c0,0.1,0,0.2,0.1,0.2H-228.2z"/>
					<path class="st6" d="M-210.7,223c-1.4-1.9-1.7-3.3-1.7-4.9c0-2.7,2.4-6.3,8.3-6.3c1.7,0,3.2,0.3,4.1,0.7
						c0.6,0.2,0.6,0.5,0.6,0.9c0,1.1-0.3,3.9-0.4,4.4c-0.1,0.5-0.2,0.6-0.4,0.6c-0.2,0-0.2-0.1-0.2-0.7c0-0.9-0.2-2-1-2.9
						c-0.7-0.8-1.9-1.5-3.8-1.5c-1.4,0-3.7,1-3.7,3.9c0,3.2,2.9,6,5.7,9c1.2,1.3,5.4,5.1,6,5.7c0.7-1,1.6-3.2,1.6-5.3
						c0-0.5-0.1-1.1-0.7-1.6c-0.4-0.4-1.2-0.5-1.7-0.5c-0.2,0-0.4-0.1-0.4-0.3c0-0.3,0.3-0.3,0.5-0.3c0.8,0,2.2,0,4.1,0.2
						c0.7,0.1,1.2,0.3,1.2,0.7c0,2.6-1.4,5.8-3.4,8.1c2.3,1.9,3.8,2.8,4.8,3.4c1.1,0.7,3,1.2,3.7,1.2c0.3,0,0.5,0,0.5,0.3
						c0,0.2-0.3,0.3-1,0.3h-2.6c-3.9,0-5.1-0.4-8.1-2.6c-1.1,1-3.4,3.1-8.1,3.1c-7.3,0-9.5-4.6-9.5-7.6
						C-216.2,227.1-212.7,224-210.7,223z M-199.9,234.5c-2-1.7-5.3-4.9-6.2-5.9c-0.9-1-3.1-3.4-3.7-4.3c-1.2,0.9-2.4,2.5-2.4,5.2
						c0,4.3,3,7,6.6,7C-202.9,236.5-200.7,235.2-199.9,234.5z"/>
					<path class="st6" d="M-182.9,212.5c0.1-0.6,0.3-0.9,0.6-0.9c0.3,0,0.5,0.2,0.9,1.1l9.3,19.3l9.3-19.6c0.3-0.5,0.4-0.8,0.8-0.8
						c0.3,0,0.5,0.3,0.6,1.1l3.1,21.2c0.3,2.2,0.7,3.2,1.7,3.5c1,0.3,1.7,0.3,2.1,0.3c0.3,0,0.5,0,0.5,0.2c0,0.3-0.4,0.4-0.9,0.4
						c-0.9,0-5.6-0.1-7-0.2c-0.8-0.1-1-0.2-1-0.4c0-0.2,0.1-0.3,0.4-0.4c0.2-0.1,0.3-0.5,0.2-1.5l-2.1-15.1h-0.1l-7.5,15.5
						c-0.8,1.6-1,1.9-1.3,1.9c-0.3,0-0.7-0.7-1.2-1.7c-0.8-1.6-3.5-6.8-3.9-7.8c-0.3-0.7-2.4-5-3.6-7.6h-0.1l-1.8,13.6
						c-0.1,0.6-0.1,1.1-0.1,1.6c0,0.6,0.4,1,1,1.1c0.6,0.1,1.1,0.2,1.4,0.2c0.3,0,0.5,0.1,0.5,0.2c0,0.3-0.3,0.4-0.8,0.4
						c-1.4,0-3-0.1-3.6-0.1c-0.7,0-2.3,0.1-3.4,0.1c-0.3,0-0.6-0.1-0.6-0.4c0-0.2,0.2-0.2,0.5-0.2c0.3,0,0.5,0,1-0.1
						c1-0.2,1.2-1.5,1.4-2.7L-182.9,212.5z"/>
				</g>
				<g>
					<path class="st6" d="M-347.3,259.7c0,2.5,0,4.4,0.1,5.5c0.1,0.7,0.2,1.3,1,1.4c0.4,0.1,0.9,0.1,1.3,0.1c0.3,0,0.4,0.1,0.4,0.2
						c0,0.2-0.2,0.3-0.6,0.3c-1.6,0-3.2-0.1-3.9-0.1c-0.7,0-2.3,0.1-3.3,0.1c-0.4,0-0.5-0.1-0.5-0.3c0-0.1,0.1-0.2,0.4-0.2
						c0.4,0,0.7-0.1,0.9-0.1c0.5-0.1,0.6-0.7,0.7-1.4c0.1-1.1,0.1-3,0.1-5.5v-4.5c0-3.9,0-4.6-0.1-5.4c-0.1-0.9-0.3-1.3-1.1-1.5
						c-0.2-0.1-0.6-0.1-1-0.1c-0.3,0-0.4-0.1-0.4-0.2c0-0.2,0.2-0.3,0.6-0.3c0.7,0,1.4,0,2.1,0c0.7,0,1.3,0.1,1.6,0.1
						c1,0,6.2,0,6.8,0c0.5,0,0.8,0,1.1-0.1c0.2-0.1,0.3-0.2,0.4-0.2c0.1,0,0.2,0.1,0.2,0.2c0,0.2-0.1,0.5-0.2,1.2
						c0,0.3-0.1,1.8-0.1,2.1c0,0.2-0.1,0.4-0.3,0.4c-0.2,0-0.2-0.1-0.3-0.4c0-0.2,0-0.6-0.2-1c-0.2-0.4-0.7-0.7-1.7-0.8l-4-0.1
						c-0.2,0-0.2,0.1-0.2,0.4v6.4c0,0.2,0,0.2,0.2,0.2l3.3,0c0.4,0,0.8,0,1.2,0c0.5,0,0.8-0.1,1.1-0.5c0.1-0.2,0.2-0.3,0.3-0.3
						c0.1,0,0.2,0.1,0.2,0.2c0,0.2-0.1,0.8-0.2,1.6c-0.1,0.5-0.1,1.7-0.1,1.9c0,0.2,0,0.5-0.3,0.5c-0.2,0-0.2-0.2-0.2-0.4
						c0-0.2-0.1-0.5-0.2-0.8c-0.1-0.4-0.5-0.8-1.3-0.9c-0.6-0.1-3.4-0.1-3.8-0.1c-0.1,0-0.2,0.1-0.2,0.2V259.7z"/>
					<path class="st6" d="M-338.5,258.8c0-3.7,2.6-8.5,9.5-8.5c5.7,0,9.2,3.2,9.2,8.2c0,5-3.6,8.9-9.5,8.9
						C-335.9,267.4-338.5,262.7-338.5,258.8z M-323.2,259.3c0-4.8-2.9-7.8-6.5-7.8c-2.5,0-5.5,1.3-5.5,6.7c0,4.5,2.6,8,6.8,8
						C-326.8,266.2-323.2,265.5-323.2,259.3z"/>
					<path class="st6" d="M-316.8,256.9c0-3.3,0-3.9,0-4.6c-0.1-0.7-0.3-1-1-1.2c-0.2-0.1-0.6-0.1-0.9-0.1c-0.2,0-0.4-0.1-0.4-0.2
						c0-0.2,0.2-0.2,0.5-0.2c1.2,0,2.6,0.1,3.1,0.1c0.8,0,2.8-0.1,3.5-0.1c1.4,0,3.1,0.1,4.3,0.9c0.6,0.4,1.6,1.5,1.6,3
						c0,1.6-0.9,3.1-3.1,4.8c2,2.5,3.6,4.4,5,5.8c1.3,1.3,2.1,1.4,2.4,1.4c0.2,0.1,0.4,0.1,0.5,0.1c0.2,0,0.3,0.1,0.3,0.2
						c0,0.2-0.2,0.2-0.4,0.2h-2.2c-1.3,0-1.9-0.1-2.5-0.4c-1-0.5-1.8-1.5-3.1-3.2c-0.9-1.2-1.8-2.6-2.1-3c-0.1-0.1-0.3-0.2-0.4-0.2
						l-2-0.1c-0.1,0-0.2,0.1-0.2,0.2v0.3c0,2,0,3.7,0.1,4.6c0.1,0.6,0.2,1.1,0.9,1.2c0.3,0.1,0.8,0.1,1.1,0.1c0.2,0,0.3,0.1,0.3,0.2
						c0,0.2-0.2,0.2-0.5,0.2c-1.3,0-3.2-0.1-3.5-0.1c-0.4,0-1.9,0.1-2.8,0.1c-0.3,0-0.4-0.1-0.4-0.2c0-0.1,0.1-0.2,0.4-0.2
						c0.3,0,0.6,0,0.8-0.1c0.5-0.1,0.6-0.5,0.7-1.2c0.1-0.9,0.1-2.6,0.1-4.6V256.9z M-313.9,258.6c0,0.2,0.1,0.3,0.2,0.4
						c0.5,0.2,1.2,0.2,1.7,0.2c0.9,0,1.2-0.1,1.6-0.4c0.7-0.5,1.5-1.4,1.5-3.2c0-3.1-2.1-3.9-3.4-3.9c-0.6,0-1.1,0-1.3,0.1
						c-0.2,0.1-0.2,0.1-0.2,0.3V258.6z"/>
					<path class="st6" d="M-299.9,256.9c0-3.3,0-3.9,0-4.6c-0.1-0.7-0.3-1-1-1.2c-0.2-0.1-0.6-0.1-0.9-0.1c-0.2,0-0.4-0.1-0.4-0.2
						c0-0.2,0.2-0.2,0.5-0.2c1.2,0,2.6,0.1,3.3,0.1c0.7,0,5.7,0,6.2,0c0.4,0,0.8-0.1,0.9-0.1c0.1,0,0.3-0.1,0.4-0.1
						c0.1,0,0.2,0.1,0.2,0.2c0,0.2-0.1,0.4-0.2,1.4c0,0.2-0.1,1.2-0.1,1.4c0,0.1-0.1,0.4-0.3,0.4c-0.2,0-0.2-0.1-0.2-0.3
						c0-0.2,0-0.5-0.2-0.8c-0.2-0.4-0.4-0.7-1.5-0.8c-0.4-0.1-3.1-0.1-3.5-0.1c-0.1,0-0.2,0.1-0.2,0.2v5.4c0,0.1,0,0.2,0.2,0.2
						c0.5,0,3.4,0,4-0.1c0.5-0.1,0.9-0.1,1.1-0.3c0.2-0.2,0.3-0.3,0.4-0.3c0.1,0,0.2,0.1,0.2,0.2c0,0.1-0.1,0.5-0.2,1.6
						c-0.1,0.4-0.1,1.3-0.1,1.5c0,0.2,0,0.5-0.2,0.5c-0.2,0-0.2-0.1-0.2-0.2c0-0.2,0-0.5-0.1-0.8c-0.1-0.4-0.4-0.8-1.3-0.8
						c-0.4-0.1-3-0.1-3.5-0.1c-0.1,0-0.1,0.1-0.1,0.2v1.7c0,0.7,0,2.6,0,3.2c0.1,1.5,0.7,1.8,3.1,1.8c0.6,0,1.5,0,2.1-0.3
						c0.6-0.3,0.8-0.7,1-1.6c0-0.2,0.1-0.3,0.3-0.3c0.2,0,0.2,0.3,0.2,0.5c0,0.5-0.2,2-0.3,2.4c-0.2,0.6-0.4,0.6-1.2,0.6
						c-1.7,0-3.1,0-4.2-0.1c-1.1,0-1.9-0.1-2.6-0.1c-0.3,0-0.7,0-1.3,0c-0.5,0-1.1,0.1-1.6,0.1c-0.3,0-0.4-0.1-0.4-0.2
						c0-0.1,0.1-0.2,0.4-0.2c0.3,0,0.6,0,0.8-0.1c0.5-0.1,0.6-0.5,0.7-1.2c0.1-0.9,0.1-2.6,0.1-4.6V256.9z"/>
					<path class="st6" d="M-287.4,266.8c-0.4-0.2-0.4-0.3-0.4-0.7c0-1.2,0.1-2.5,0.1-2.9c0-0.3,0.1-0.6,0.3-0.6
						c0.2,0,0.2,0.2,0.2,0.4c0,0.3,0.1,0.7,0.2,1.1c0.5,1.6,2.2,2.2,3.6,2.2c2,0,3.1-1.2,3.1-2.8c0-0.9-0.2-1.9-2.2-3.1l-1.3-0.8
						c-2.7-1.6-3.5-3-3.5-5c0-2.7,2.6-4.4,5.7-4.4c1.5,0,2.6,0.2,3.2,0.4c0.2,0.1,0.3,0.1,0.3,0.3c0,0.3-0.1,0.9-0.1,2.6
						c0,0.5-0.1,0.7-0.3,0.7c-0.2,0-0.2-0.1-0.2-0.4c0-0.2-0.1-0.9-0.6-1.4c-0.3-0.4-1.1-1-2.5-1c-1.6,0-3.1,0.8-3.1,2.3
						c0,1,0.4,1.7,2.4,2.9l0.9,0.5c3,1.6,3.9,3.3,3.9,5.3c0,1.6-0.6,2.9-2.3,4.1c-1.1,0.8-2.6,0.9-3.8,0.9
						C-285.1,267.4-286.4,267.3-287.4,266.8z"/>
					<path class="st6" d="M-270.1,251.9l-3.4,0.1c-1.3,0-1.8,0.2-2.2,0.7c-0.2,0.3-0.3,0.6-0.4,0.7c-0.1,0.2-0.1,0.3-0.3,0.3
						s-0.2-0.1-0.2-0.4c0-0.4,0.4-2.5,0.5-2.6c0-0.3,0.1-0.4,0.3-0.4c0.2,0,0.4,0.2,1,0.3c0.7,0.1,1.5,0.1,2.3,0.1h9.2
						c0.7,0,1.2-0.1,1.5-0.1c0.4-0.1,0.5-0.1,0.6-0.1c0.2,0,0.2,0.1,0.2,0.5c0,0.5-0.1,2.1-0.1,2.6c0,0.2-0.1,0.4-0.2,0.4
						c-0.2,0-0.2-0.1-0.3-0.4l0-0.2c-0.1-0.6-0.6-1.2-2.7-1.3l-2.8-0.1v8.8c0,2,0,3.7,0.1,4.7c0.1,0.6,0.2,1,0.9,1.1
						c0.3,0.1,0.8,0.1,1.2,0.1c0.3,0,0.4,0.1,0.4,0.2c0,0.2-0.2,0.2-0.4,0.2c-1.5,0-3-0.1-3.6-0.1c-0.5,0-2.1,0.1-3,0.1
						c-0.3,0-0.4-0.1-0.4-0.2c0-0.1,0.1-0.2,0.4-0.2c0.3,0,0.6,0,0.8-0.1c0.5-0.1,0.6-0.5,0.7-1.2c0.1-0.9,0.1-2.6,0.1-4.6V251.9z"
						/>
					<path class="st6" d="M-251.9,266.8c-0.4-0.2-0.5-0.3-0.5-0.9c0-1.4,0.1-3,0.1-3.4c0-0.4,0.1-0.7,0.3-0.7c0.2,0,0.3,0.2,0.3,0.4
						c0,0.3,0.1,0.9,0.2,1.3c0.6,1.9,2.1,2.6,3.7,2.6c2.3,0,3.4-1.6,3.4-2.9c0-1.3-0.4-2.4-2.5-4.1l-1.2-0.9c-2.8-2.2-3.8-4-3.8-6.1
						c0-2.8,2.4-4.9,5.9-4.9c1.7,0,2.7,0.3,3.4,0.4c0.2,0.1,0.4,0.1,0.4,0.3c0,0.3-0.1,1.1-0.1,3.1c0,0.6-0.1,0.8-0.3,0.8
						c-0.2,0-0.3-0.2-0.3-0.5c0-0.2-0.1-1-0.7-1.7c-0.4-0.5-1.1-1.3-2.8-1.3c-1.9,0-3.1,1.1-3.1,2.6c0,1.2,0.6,2.1,2.7,3.7l0.7,0.5
						c3.1,2.3,4.2,4.1,4.2,6.5c0,1.5-0.6,3.3-2.4,4.5c-1.3,0.8-2.7,1.1-4.1,1.1C-249.6,267.5-250.8,267.3-251.9,266.8z"/>
					<path class="st6" d="M-237.3,256.9c0-3.3,0-3.9,0-4.6c-0.1-0.7-0.3-1-1-1.2c-0.2-0.1-0.6-0.1-0.9-0.1c-0.2,0-0.4-0.1-0.4-0.2
						c0-0.2,0.2-0.2,0.5-0.2c1.2,0,2.6,0.1,3.3,0.1c0.7,0,5.7,0,6.2,0c0.4,0,0.8-0.1,0.9-0.1c0.1,0,0.3-0.1,0.4-0.1
						c0.1,0,0.2,0.1,0.2,0.2c0,0.2-0.1,0.4-0.2,1.4c0,0.2-0.1,1.2-0.1,1.4c0,0.1-0.1,0.4-0.3,0.4c-0.2,0-0.2-0.1-0.2-0.3
						c0-0.2,0-0.5-0.2-0.8c-0.2-0.4-0.4-0.7-1.5-0.8c-0.4-0.1-3.1-0.1-3.5-0.1c-0.1,0-0.2,0.1-0.2,0.2v5.4c0,0.1,0,0.2,0.2,0.2
						c0.5,0,3.4,0,4-0.1c0.5-0.1,0.9-0.1,1.1-0.3c0.2-0.2,0.3-0.3,0.4-0.3c0.1,0,0.2,0.1,0.2,0.2c0,0.1-0.1,0.5-0.2,1.6
						c-0.1,0.4-0.1,1.3-0.1,1.5c0,0.2,0,0.5-0.2,0.5c-0.2,0-0.2-0.1-0.2-0.2c0-0.2,0-0.5-0.1-0.8c-0.1-0.4-0.4-0.8-1.3-0.8
						c-0.4-0.1-3-0.1-3.5-0.1c-0.1,0-0.1,0.1-0.1,0.2v1.7c0,0.7,0,2.6,0,3.2c0.1,1.5,0.7,1.8,3.1,1.8c0.6,0,1.5,0,2.1-0.3
						c0.6-0.3,0.8-0.7,1-1.6c0.1-0.2,0.1-0.3,0.3-0.3c0.2,0,0.2,0.3,0.2,0.5c0,0.5-0.2,2-0.3,2.4c-0.2,0.6-0.4,0.6-1.2,0.6
						c-1.7,0-3.1,0-4.2-0.1c-1.1,0-2-0.1-2.6-0.1c-0.3,0-0.7,0-1.3,0c-0.5,0-1.1,0.1-1.6,0.1c-0.3,0-0.4-0.1-0.4-0.2
						c0-0.1,0.1-0.2,0.4-0.2c0.3,0,0.6,0,0.8-0.1c0.5-0.1,0.6-0.5,0.7-1.2c0.1-0.9,0.1-2.6,0.1-4.6V256.9z"/>
					<path class="st6" d="M-223.6,256.9c0-3.3,0-3.9,0-4.6c-0.1-0.7-0.3-1-1-1.2c-0.2-0.1-0.6-0.1-0.9-0.1c-0.2,0-0.4-0.1-0.4-0.2
						c0-0.2,0.2-0.2,0.5-0.2c1.2,0,2.6,0.1,3.1,0.1c0.8,0,2.8-0.1,3.5-0.1c1.4,0,3.1,0.1,4.3,0.9c0.6,0.4,1.6,1.5,1.6,3
						c0,1.6-0.9,3.1-3.1,4.8c2,2.5,3.6,4.4,5,5.8c1.3,1.3,2.1,1.4,2.4,1.4c0.2,0.1,0.4,0.1,0.5,0.1c0.2,0,0.3,0.1,0.3,0.2
						c0,0.2-0.2,0.2-0.4,0.2h-2.2c-1.3,0-1.9-0.1-2.5-0.4c-1-0.5-1.8-1.5-3.1-3.2c-0.9-1.2-1.8-2.6-2.1-3c-0.1-0.1-0.3-0.2-0.4-0.2
						l-2-0.1c-0.1,0-0.2,0.1-0.2,0.2v0.3c0,2,0,3.7,0.1,4.6c0.1,0.6,0.2,1.1,0.9,1.2c0.3,0.1,0.8,0.1,1.1,0.1c0.2,0,0.3,0.1,0.3,0.2
						c0,0.2-0.2,0.2-0.5,0.2c-1.3,0-3.2-0.1-3.5-0.1c-0.4,0-1.9,0.1-2.8,0.1c-0.3,0-0.4-0.1-0.4-0.2c0-0.1,0.1-0.2,0.4-0.2
						c0.3,0,0.6,0,0.8-0.1c0.5-0.1,0.6-0.5,0.7-1.2c0.1-0.9,0.1-2.6,0.1-4.6V256.9z M-220.7,258.6c0,0.2,0.1,0.3,0.2,0.4
						c0.5,0.2,1.2,0.2,1.7,0.2c0.9,0,1.2-0.1,1.6-0.4c0.7-0.5,1.5-1.4,1.5-3.2c0-3.1-2.1-3.9-3.4-3.9c-0.6,0-1.1,0-1.3,0.1
						c-0.2,0.1-0.2,0.1-0.2,0.3V258.6z"/>
					<path class="st6" d="M-209.5,252.7c-0.5-1.2-0.8-1.4-1.7-1.6c-0.3-0.1-0.7-0.1-0.9-0.1c-0.2,0-0.3-0.1-0.3-0.2
						c0-0.2,0.2-0.2,0.6-0.2c1.2,0,2.5,0.1,3.3,0.1c0.6,0,1.7-0.1,2.9-0.1c0.3,0,0.5,0.1,0.5,0.2c0,0.2-0.2,0.2-0.4,0.2
						c-0.4,0-0.7,0-0.9,0.2c-0.2,0.1-0.2,0.2-0.2,0.4c0,0.3,0.2,0.9,0.5,1.6l3.8,9.8h0.1c1-2.3,3.9-9.3,4.4-10.7
						c0.1-0.3,0.2-0.6,0.2-0.8c0-0.2-0.1-0.3-0.3-0.4c-0.3-0.1-0.6-0.1-0.9-0.1c-0.2,0-0.4-0.1-0.4-0.2c0-0.2,0.2-0.2,0.6-0.2
						c1.1,0,2.1,0.1,2.4,0.1c0.4,0,1.4-0.1,2.1-0.1c0.3,0,0.5,0.1,0.5,0.2c0,0.2-0.1,0.2-0.4,0.2c-0.2,0-0.7,0-1.1,0.3
						c-0.3,0.2-0.6,0.5-1.2,1.9c-0.9,2.1-1.5,3.2-2.7,5.9c-1.4,3.2-2.5,5.6-3,6.7c-0.6,1.3-0.8,1.6-1.1,1.6c-0.3,0-0.5-0.3-0.9-1.3
						L-209.5,252.7z"/>
					<path class="st6" d="M-191.9,256.9c0-3.3,0-3.9,0-4.6c-0.1-0.7-0.3-1-0.8-1.2c-0.3-0.1-0.5-0.1-0.8-0.1c-0.2,0-0.4-0.1-0.4-0.3
						c0-0.1,0.2-0.2,0.5-0.2c0.8,0,2.4,0.1,3,0.1c0.6,0,2-0.1,2.9-0.1c0.3,0,0.5,0.1,0.5,0.2c0,0.2-0.1,0.3-0.4,0.3
						c-0.2,0-0.4,0-0.7,0.1c-0.6,0.1-0.8,0.4-0.8,1.2c-0.1,0.7-0.1,1.3-0.1,4.6v3.8c0,2.1,0,3.8,0.1,4.8c0.1,0.6,0.2,0.9,0.9,1
						c0.3,0.1,0.8,0.1,1.2,0.1c0.3,0,0.4,0.1,0.4,0.2c0,0.2-0.2,0.2-0.4,0.2c-1.5,0-3-0.1-3.6-0.1c-0.5,0-2.1,0.1-3,0.1
						c-0.3,0-0.4-0.1-0.4-0.2c0-0.1,0.1-0.2,0.4-0.2c0.3,0,0.6,0,0.8-0.1c0.5-0.1,0.6-0.4,0.7-1.1c0.1-0.9,0.1-2.6,0.1-4.7V256.9z"
						/>
					<path class="st6" d="M-182.8,265c-2.2-1.9-2.8-4.3-2.8-6.4c0-1.5,0.5-4.1,2.6-6c1.6-1.4,3.8-2.3,7.2-2.3c1.4,0,2.3,0.1,3.3,0.2
						c0.8,0.1,1.6,0.3,2.3,0.4c0.3,0,0.3,0.1,0.3,0.3c0,0.2-0.1,0.4-0.1,1.2c-0.1,0.7-0.1,1.9-0.1,2.4c0,0.3-0.1,0.5-0.3,0.5
						c-0.2,0-0.2-0.2-0.2-0.5c0-0.7-0.3-1.5-0.9-2c-0.8-0.7-2.3-1.3-4.4-1.3c-2,0-3.2,0.4-4.3,1.2c-1.7,1.4-2.1,3.5-2.1,5.7
						c0,5.2,4,7.6,7,7.6c2,0,3.1-0.2,4-1.2c0.4-0.4,0.7-1.1,0.8-1.5c0-0.3,0.1-0.4,0.3-0.4c0.2,0,0.3,0.2,0.3,0.4
						c0,0.3-0.3,2.2-0.5,2.9c-0.1,0.4-0.2,0.5-0.6,0.6c-0.9,0.4-2.6,0.5-4.1,0.5C-178.1,267.4-180.7,266.7-182.8,265z"/>
					<path class="st6" d="M-165.8,256.9c0-3.3,0-3.9,0-4.6c-0.1-0.7-0.3-1-1-1.2c-0.2-0.1-0.6-0.1-0.9-0.1c-0.2,0-0.4-0.1-0.4-0.2
						c0-0.2,0.2-0.2,0.5-0.2c1.2,0,2.6,0.1,3.3,0.1c0.7,0,5.7,0,6.2,0c0.4,0,0.8-0.1,0.9-0.1c0.1,0,0.3-0.1,0.4-0.1
						c0.1,0,0.2,0.1,0.2,0.2c0,0.2-0.1,0.4-0.2,1.4c0,0.2-0.1,1.2-0.1,1.4c0,0.1-0.1,0.4-0.3,0.4c-0.2,0-0.2-0.1-0.2-0.3
						c0-0.2,0-0.5-0.2-0.8c-0.2-0.4-0.4-0.7-1.5-0.8c-0.4-0.1-3.1-0.1-3.5-0.1c-0.1,0-0.2,0.1-0.2,0.2v5.4c0,0.1,0,0.2,0.2,0.2
						c0.5,0,3.4,0,4-0.1c0.5-0.1,0.9-0.1,1.1-0.3c0.2-0.2,0.3-0.3,0.4-0.3c0.1,0,0.2,0.1,0.2,0.2c0,0.1-0.1,0.5-0.2,1.6
						c-0.1,0.4-0.1,1.3-0.1,1.5c0,0.2,0,0.5-0.2,0.5c-0.2,0-0.2-0.1-0.2-0.2c0-0.2,0-0.5-0.1-0.8c-0.1-0.4-0.4-0.8-1.3-0.8
						c-0.4-0.1-3-0.1-3.5-0.1c-0.1,0-0.1,0.1-0.1,0.2v1.7c0,0.7,0,2.6,0,3.2c0.1,1.5,0.7,1.8,3.1,1.8c0.6,0,1.5,0,2.1-0.3
						c0.6-0.3,0.8-0.7,1-1.6c0.1-0.2,0.1-0.3,0.3-0.3c0.2,0,0.2,0.3,0.2,0.5c0,0.5-0.2,2-0.3,2.4c-0.2,0.6-0.4,0.6-1.2,0.6
						c-1.7,0-3.1,0-4.2-0.1c-1.1,0-2-0.1-2.6-0.1c-0.3,0-0.7,0-1.3,0c-0.5,0-1.1,0.1-1.6,0.1c-0.3,0-0.4-0.1-0.4-0.2
						c0-0.1,0.1-0.2,0.4-0.2c0.3,0,0.6,0,0.8-0.1c0.5-0.1,0.6-0.5,0.7-1.2c0.1-0.9,0.1-2.6,0.1-4.6V256.9z"/>
				</g>
				<rect x="-357.1" y="243" class="st6" width="204.1" height="0.8"/>
			</g>
		</g>
	</g>
</g>
<g id="Layer_2">
</g>
</svg>
