<?xml version="1.0" encoding="UTF-8" standalone="no"?>
<!-- Created with Inkscape (http://www.inkscape.org/) -->

<svg
   width="210mm"
   height="297mm"
   viewBox="0 0 210 297"
   version="1.1"
   id="svg5"
   xml:space="preserve"
   inkscape:version="1.2.1 (9c6d41e, 2022-07-14)"
   sodipodi:docname="flickr_svged2.svg"
   xmlns:inkscape="http://www.inkscape.org/namespaces/inkscape"
   xmlns:sodipodi="http://sodipodi.sourceforge.net/DTD/sodipodi-0.dtd"
   xmlns="http://www.w3.org/2000/svg"
   xmlns:svg="http://www.w3.org/2000/svg"><sodipodi:namedview
     id="namedview7"
     pagecolor="#505050"
     bordercolor="#eeeeee"
     borderopacity="1"
     inkscape:showpageshadow="0"
     inkscape:pageopacity="0"
     inkscape:pagecheckerboard="0"
     inkscape:deskcolor="#505050"
     inkscape:document-units="mm"
     showgrid="false"
     inkscape:zoom="0.62092452"
     inkscape:cx="152.99766"
     inkscape:cy="562.87034"
     inkscape:window-width="1598"
     inkscape:window-height="858"
     inkscape:window-x="0"
     inkscape:window-y="20"
     inkscape:window-maximized="1"
     inkscape:current-layer="layer1" /><defs
     id="defs2" /><g
     inkscape:label="Layer 1"
     inkscape:groupmode="layer"
     id="layer1"><path
       style="fill:#000000;stroke-width:0.264583"
       d="m 77.239516,156.46968 c -4.466775,-0.63784 -8.273849,-2.60383 -11.652072,-6.0172 -4.140526,-4.18359 -6.085417,-8.84189 -6.085417,-14.57547 0,-5.47271 1.879551,-10.1907 5.661298,-14.21081 3.315816,-3.52482 7.060943,-5.50481 11.986209,-6.33692 10.031734,-1.69486 19.989457,4.64254 23.139856,14.72689 0.53044,1.69794 0.61993,2.53816 0.61993,5.82084 0,3.28268 -0.0895,4.12289 -0.61993,5.82083 -2.025134,6.48241 -6.971532,11.68997 -13.0871,13.77809 -3.478573,1.18773 -6.496331,1.48875 -9.962774,0.99375 z m 53.170844,0.15448 c -0.3638,-0.0637 -1.37584,-0.2435 -2.24896,-0.39955 -5.77508,-1.03216 -11.52201,-5.41506 -14.24691,-10.86542 -1.78207,-3.5645 -2.15726,-5.21363 -2.15726,-9.48218 0,-4.26855 0.37519,-5.91768 2.15726,-9.48219 2.6607,-5.32195 7.80803,-9.35503 13.78628,-10.80196 2.18091,-0.52785 6.73991,-0.58662 8.9273,-0.11509 3.71667,0.8012 7.16026,2.62082 9.9878,5.27763 7.37832,6.93282 8.68618,18.11234 3.11051,26.5885 -1.19904,1.82279 -3.75052,4.47623 -5.44058,5.658 -1.56264,1.09267 -4.63555,2.48117 -6.60698,2.98538 -1.97837,0.50598 -6.00234,0.85857 -7.26846,0.63688 z"
       id="path253" /></g></svg>
